%TF.GenerationSoftware,KiCad,Pcbnew,9.0.1*%
%TF.CreationDate,2025-07-06T08:30:04+03:00*%
%TF.ProjectId,Dual_Wind_Sensor-NANO_noReg,4475616c-5f57-4696-9e64-5f53656e736f,rev?*%
%TF.SameCoordinates,Original*%
%TF.FileFunction,Copper,L4,Bot*%
%TF.FilePolarity,Positive*%
%FSLAX46Y46*%
G04 Gerber Fmt 4.6, Leading zero omitted, Abs format (unit mm)*
G04 Created by KiCad (PCBNEW 9.0.1) date 2025-07-06 08:30:04*
%MOMM*%
%LPD*%
G01*
G04 APERTURE LIST*
G04 Aperture macros list*
%AMRoundRect*
0 Rectangle with rounded corners*
0 $1 Rounding radius*
0 $2 $3 $4 $5 $6 $7 $8 $9 X,Y pos of 4 corners*
0 Add a 4 corners polygon primitive as box body*
4,1,4,$2,$3,$4,$5,$6,$7,$8,$9,$2,$3,0*
0 Add four circle primitives for the rounded corners*
1,1,$1+$1,$2,$3*
1,1,$1+$1,$4,$5*
1,1,$1+$1,$6,$7*
1,1,$1+$1,$8,$9*
0 Add four rect primitives between the rounded corners*
20,1,$1+$1,$2,$3,$4,$5,0*
20,1,$1+$1,$4,$5,$6,$7,0*
20,1,$1+$1,$6,$7,$8,$9,0*
20,1,$1+$1,$8,$9,$2,$3,0*%
G04 Aperture macros list end*
%ADD10C,0.100000*%
%ADD11C,0.150000*%
%ADD12C,0.300000*%
%ADD13C,0.400000*%
%TA.AperFunction,ComponentPad*%
%ADD14C,1.400000*%
%TD*%
%TA.AperFunction,ComponentPad*%
%ADD15O,1.400000X1.400000*%
%TD*%
%TA.AperFunction,ComponentPad*%
%ADD16RoundRect,0.250000X-0.725000X0.600000X-0.725000X-0.600000X0.725000X-0.600000X0.725000X0.600000X0*%
%TD*%
%TA.AperFunction,ComponentPad*%
%ADD17O,1.950000X1.700000*%
%TD*%
%TA.AperFunction,ComponentPad*%
%ADD18R,1.700000X1.700000*%
%TD*%
%TA.AperFunction,ComponentPad*%
%ADD19O,1.700000X1.700000*%
%TD*%
%TA.AperFunction,ComponentPad*%
%ADD20R,1.600000X1.600000*%
%TD*%
%TA.AperFunction,ComponentPad*%
%ADD21C,1.600000*%
%TD*%
%TA.AperFunction,ComponentPad*%
%ADD22RoundRect,0.250000X-0.600000X-0.725000X0.600000X-0.725000X0.600000X0.725000X-0.600000X0.725000X0*%
%TD*%
%TA.AperFunction,ComponentPad*%
%ADD23O,1.700000X1.950000*%
%TD*%
%TA.AperFunction,ComponentPad*%
%ADD24R,1.800000X1.800000*%
%TD*%
%TA.AperFunction,ComponentPad*%
%ADD25C,1.800000*%
%TD*%
%TA.AperFunction,ComponentPad*%
%ADD26O,1.600000X1.600000*%
%TD*%
%TA.AperFunction,ComponentPad*%
%ADD27C,0.800000*%
%TD*%
%TA.AperFunction,ComponentPad*%
%ADD28C,5.000000*%
%TD*%
%TA.AperFunction,ComponentPad*%
%ADD29R,1.930400X1.930400*%
%TD*%
%TA.AperFunction,ComponentPad*%
%ADD30R,3.000000X3.000000*%
%TD*%
%TA.AperFunction,ComponentPad*%
%ADD31C,3.000000*%
%TD*%
%TA.AperFunction,Conductor*%
%ADD32C,1.000000*%
%TD*%
G04 APERTURE END LIST*
D10*
D11*
X177002200Y-166007200D02*
X285002200Y-166007200D01*
X285002200Y-198007200D01*
X177002200Y-198007200D01*
X177002200Y-166007200D01*
D10*
D11*
X10000000Y-10000000D02*
X287002200Y-10000000D01*
X287002200Y-200007200D01*
X10000000Y-200007200D01*
X10000000Y-10000000D01*
D10*
D11*
X12000000Y-12000000D02*
X285002200Y-12000000D01*
X285002200Y-198007200D01*
X12000000Y-198007200D01*
X12000000Y-12000000D01*
D10*
D11*
X60000000Y-12000000D02*
X60000000Y-10000000D01*
D10*
D11*
X110000000Y-12000000D02*
X110000000Y-10000000D01*
D10*
D11*
X160000000Y-12000000D02*
X160000000Y-10000000D01*
D10*
D11*
X210000000Y-12000000D02*
X210000000Y-10000000D01*
D10*
D11*
X260000000Y-12000000D02*
X260000000Y-10000000D01*
D10*
D11*
X36089160Y-11593604D02*
X35346303Y-11593604D01*
X35717731Y-11593604D02*
X35717731Y-10293604D01*
X35717731Y-10293604D02*
X35593922Y-10479319D01*
X35593922Y-10479319D02*
X35470112Y-10603128D01*
X35470112Y-10603128D02*
X35346303Y-10665033D01*
D10*
D11*
X85346303Y-10417414D02*
X85408207Y-10355509D01*
X85408207Y-10355509D02*
X85532017Y-10293604D01*
X85532017Y-10293604D02*
X85841541Y-10293604D01*
X85841541Y-10293604D02*
X85965350Y-10355509D01*
X85965350Y-10355509D02*
X86027255Y-10417414D01*
X86027255Y-10417414D02*
X86089160Y-10541223D01*
X86089160Y-10541223D02*
X86089160Y-10665033D01*
X86089160Y-10665033D02*
X86027255Y-10850747D01*
X86027255Y-10850747D02*
X85284398Y-11593604D01*
X85284398Y-11593604D02*
X86089160Y-11593604D01*
D10*
D11*
X135284398Y-10293604D02*
X136089160Y-10293604D01*
X136089160Y-10293604D02*
X135655826Y-10788842D01*
X135655826Y-10788842D02*
X135841541Y-10788842D01*
X135841541Y-10788842D02*
X135965350Y-10850747D01*
X135965350Y-10850747D02*
X136027255Y-10912652D01*
X136027255Y-10912652D02*
X136089160Y-11036461D01*
X136089160Y-11036461D02*
X136089160Y-11345985D01*
X136089160Y-11345985D02*
X136027255Y-11469795D01*
X136027255Y-11469795D02*
X135965350Y-11531700D01*
X135965350Y-11531700D02*
X135841541Y-11593604D01*
X135841541Y-11593604D02*
X135470112Y-11593604D01*
X135470112Y-11593604D02*
X135346303Y-11531700D01*
X135346303Y-11531700D02*
X135284398Y-11469795D01*
D10*
D11*
X185965350Y-10726938D02*
X185965350Y-11593604D01*
X185655826Y-10231700D02*
X185346303Y-11160271D01*
X185346303Y-11160271D02*
X186151064Y-11160271D01*
D10*
D11*
X236027255Y-10293604D02*
X235408207Y-10293604D01*
X235408207Y-10293604D02*
X235346303Y-10912652D01*
X235346303Y-10912652D02*
X235408207Y-10850747D01*
X235408207Y-10850747D02*
X235532017Y-10788842D01*
X235532017Y-10788842D02*
X235841541Y-10788842D01*
X235841541Y-10788842D02*
X235965350Y-10850747D01*
X235965350Y-10850747D02*
X236027255Y-10912652D01*
X236027255Y-10912652D02*
X236089160Y-11036461D01*
X236089160Y-11036461D02*
X236089160Y-11345985D01*
X236089160Y-11345985D02*
X236027255Y-11469795D01*
X236027255Y-11469795D02*
X235965350Y-11531700D01*
X235965350Y-11531700D02*
X235841541Y-11593604D01*
X235841541Y-11593604D02*
X235532017Y-11593604D01*
X235532017Y-11593604D02*
X235408207Y-11531700D01*
X235408207Y-11531700D02*
X235346303Y-11469795D01*
D10*
D11*
X285965350Y-10293604D02*
X285717731Y-10293604D01*
X285717731Y-10293604D02*
X285593922Y-10355509D01*
X285593922Y-10355509D02*
X285532017Y-10417414D01*
X285532017Y-10417414D02*
X285408207Y-10603128D01*
X285408207Y-10603128D02*
X285346303Y-10850747D01*
X285346303Y-10850747D02*
X285346303Y-11345985D01*
X285346303Y-11345985D02*
X285408207Y-11469795D01*
X285408207Y-11469795D02*
X285470112Y-11531700D01*
X285470112Y-11531700D02*
X285593922Y-11593604D01*
X285593922Y-11593604D02*
X285841541Y-11593604D01*
X285841541Y-11593604D02*
X285965350Y-11531700D01*
X285965350Y-11531700D02*
X286027255Y-11469795D01*
X286027255Y-11469795D02*
X286089160Y-11345985D01*
X286089160Y-11345985D02*
X286089160Y-11036461D01*
X286089160Y-11036461D02*
X286027255Y-10912652D01*
X286027255Y-10912652D02*
X285965350Y-10850747D01*
X285965350Y-10850747D02*
X285841541Y-10788842D01*
X285841541Y-10788842D02*
X285593922Y-10788842D01*
X285593922Y-10788842D02*
X285470112Y-10850747D01*
X285470112Y-10850747D02*
X285408207Y-10912652D01*
X285408207Y-10912652D02*
X285346303Y-11036461D01*
D10*
D11*
X60000000Y-198007200D02*
X60000000Y-200007200D01*
D10*
D11*
X110000000Y-198007200D02*
X110000000Y-200007200D01*
D10*
D11*
X160000000Y-198007200D02*
X160000000Y-200007200D01*
D10*
D11*
X210000000Y-198007200D02*
X210000000Y-200007200D01*
D10*
D11*
X260000000Y-198007200D02*
X260000000Y-200007200D01*
D10*
D11*
X36089160Y-199600804D02*
X35346303Y-199600804D01*
X35717731Y-199600804D02*
X35717731Y-198300804D01*
X35717731Y-198300804D02*
X35593922Y-198486519D01*
X35593922Y-198486519D02*
X35470112Y-198610328D01*
X35470112Y-198610328D02*
X35346303Y-198672233D01*
D10*
D11*
X85346303Y-198424614D02*
X85408207Y-198362709D01*
X85408207Y-198362709D02*
X85532017Y-198300804D01*
X85532017Y-198300804D02*
X85841541Y-198300804D01*
X85841541Y-198300804D02*
X85965350Y-198362709D01*
X85965350Y-198362709D02*
X86027255Y-198424614D01*
X86027255Y-198424614D02*
X86089160Y-198548423D01*
X86089160Y-198548423D02*
X86089160Y-198672233D01*
X86089160Y-198672233D02*
X86027255Y-198857947D01*
X86027255Y-198857947D02*
X85284398Y-199600804D01*
X85284398Y-199600804D02*
X86089160Y-199600804D01*
D10*
D11*
X135284398Y-198300804D02*
X136089160Y-198300804D01*
X136089160Y-198300804D02*
X135655826Y-198796042D01*
X135655826Y-198796042D02*
X135841541Y-198796042D01*
X135841541Y-198796042D02*
X135965350Y-198857947D01*
X135965350Y-198857947D02*
X136027255Y-198919852D01*
X136027255Y-198919852D02*
X136089160Y-199043661D01*
X136089160Y-199043661D02*
X136089160Y-199353185D01*
X136089160Y-199353185D02*
X136027255Y-199476995D01*
X136027255Y-199476995D02*
X135965350Y-199538900D01*
X135965350Y-199538900D02*
X135841541Y-199600804D01*
X135841541Y-199600804D02*
X135470112Y-199600804D01*
X135470112Y-199600804D02*
X135346303Y-199538900D01*
X135346303Y-199538900D02*
X135284398Y-199476995D01*
D10*
D11*
X185965350Y-198734138D02*
X185965350Y-199600804D01*
X185655826Y-198238900D02*
X185346303Y-199167471D01*
X185346303Y-199167471D02*
X186151064Y-199167471D01*
D10*
D11*
X236027255Y-198300804D02*
X235408207Y-198300804D01*
X235408207Y-198300804D02*
X235346303Y-198919852D01*
X235346303Y-198919852D02*
X235408207Y-198857947D01*
X235408207Y-198857947D02*
X235532017Y-198796042D01*
X235532017Y-198796042D02*
X235841541Y-198796042D01*
X235841541Y-198796042D02*
X235965350Y-198857947D01*
X235965350Y-198857947D02*
X236027255Y-198919852D01*
X236027255Y-198919852D02*
X236089160Y-199043661D01*
X236089160Y-199043661D02*
X236089160Y-199353185D01*
X236089160Y-199353185D02*
X236027255Y-199476995D01*
X236027255Y-199476995D02*
X235965350Y-199538900D01*
X235965350Y-199538900D02*
X235841541Y-199600804D01*
X235841541Y-199600804D02*
X235532017Y-199600804D01*
X235532017Y-199600804D02*
X235408207Y-199538900D01*
X235408207Y-199538900D02*
X235346303Y-199476995D01*
D10*
D11*
X285965350Y-198300804D02*
X285717731Y-198300804D01*
X285717731Y-198300804D02*
X285593922Y-198362709D01*
X285593922Y-198362709D02*
X285532017Y-198424614D01*
X285532017Y-198424614D02*
X285408207Y-198610328D01*
X285408207Y-198610328D02*
X285346303Y-198857947D01*
X285346303Y-198857947D02*
X285346303Y-199353185D01*
X285346303Y-199353185D02*
X285408207Y-199476995D01*
X285408207Y-199476995D02*
X285470112Y-199538900D01*
X285470112Y-199538900D02*
X285593922Y-199600804D01*
X285593922Y-199600804D02*
X285841541Y-199600804D01*
X285841541Y-199600804D02*
X285965350Y-199538900D01*
X285965350Y-199538900D02*
X286027255Y-199476995D01*
X286027255Y-199476995D02*
X286089160Y-199353185D01*
X286089160Y-199353185D02*
X286089160Y-199043661D01*
X286089160Y-199043661D02*
X286027255Y-198919852D01*
X286027255Y-198919852D02*
X285965350Y-198857947D01*
X285965350Y-198857947D02*
X285841541Y-198796042D01*
X285841541Y-198796042D02*
X285593922Y-198796042D01*
X285593922Y-198796042D02*
X285470112Y-198857947D01*
X285470112Y-198857947D02*
X285408207Y-198919852D01*
X285408207Y-198919852D02*
X285346303Y-199043661D01*
D10*
D11*
X10000000Y-60000000D02*
X12000000Y-60000000D01*
D10*
D11*
X10000000Y-110000000D02*
X12000000Y-110000000D01*
D10*
D11*
X10000000Y-160000000D02*
X12000000Y-160000000D01*
D10*
D11*
X10690476Y-35222176D02*
X11309523Y-35222176D01*
X10566666Y-35593604D02*
X10999999Y-34293604D01*
X10999999Y-34293604D02*
X11433333Y-35593604D01*
D10*
D11*
X11092857Y-84912652D02*
X11278571Y-84974557D01*
X11278571Y-84974557D02*
X11340476Y-85036461D01*
X11340476Y-85036461D02*
X11402380Y-85160271D01*
X11402380Y-85160271D02*
X11402380Y-85345985D01*
X11402380Y-85345985D02*
X11340476Y-85469795D01*
X11340476Y-85469795D02*
X11278571Y-85531700D01*
X11278571Y-85531700D02*
X11154761Y-85593604D01*
X11154761Y-85593604D02*
X10659523Y-85593604D01*
X10659523Y-85593604D02*
X10659523Y-84293604D01*
X10659523Y-84293604D02*
X11092857Y-84293604D01*
X11092857Y-84293604D02*
X11216666Y-84355509D01*
X11216666Y-84355509D02*
X11278571Y-84417414D01*
X11278571Y-84417414D02*
X11340476Y-84541223D01*
X11340476Y-84541223D02*
X11340476Y-84665033D01*
X11340476Y-84665033D02*
X11278571Y-84788842D01*
X11278571Y-84788842D02*
X11216666Y-84850747D01*
X11216666Y-84850747D02*
X11092857Y-84912652D01*
X11092857Y-84912652D02*
X10659523Y-84912652D01*
D10*
D11*
X11402380Y-135469795D02*
X11340476Y-135531700D01*
X11340476Y-135531700D02*
X11154761Y-135593604D01*
X11154761Y-135593604D02*
X11030952Y-135593604D01*
X11030952Y-135593604D02*
X10845238Y-135531700D01*
X10845238Y-135531700D02*
X10721428Y-135407890D01*
X10721428Y-135407890D02*
X10659523Y-135284080D01*
X10659523Y-135284080D02*
X10597619Y-135036461D01*
X10597619Y-135036461D02*
X10597619Y-134850747D01*
X10597619Y-134850747D02*
X10659523Y-134603128D01*
X10659523Y-134603128D02*
X10721428Y-134479319D01*
X10721428Y-134479319D02*
X10845238Y-134355509D01*
X10845238Y-134355509D02*
X11030952Y-134293604D01*
X11030952Y-134293604D02*
X11154761Y-134293604D01*
X11154761Y-134293604D02*
X11340476Y-134355509D01*
X11340476Y-134355509D02*
X11402380Y-134417414D01*
D10*
D11*
X10659523Y-185593604D02*
X10659523Y-184293604D01*
X10659523Y-184293604D02*
X10969047Y-184293604D01*
X10969047Y-184293604D02*
X11154761Y-184355509D01*
X11154761Y-184355509D02*
X11278571Y-184479319D01*
X11278571Y-184479319D02*
X11340476Y-184603128D01*
X11340476Y-184603128D02*
X11402380Y-184850747D01*
X11402380Y-184850747D02*
X11402380Y-185036461D01*
X11402380Y-185036461D02*
X11340476Y-185284080D01*
X11340476Y-185284080D02*
X11278571Y-185407890D01*
X11278571Y-185407890D02*
X11154761Y-185531700D01*
X11154761Y-185531700D02*
X10969047Y-185593604D01*
X10969047Y-185593604D02*
X10659523Y-185593604D01*
D10*
D11*
X287002200Y-60000000D02*
X285002200Y-60000000D01*
D10*
D11*
X287002200Y-110000000D02*
X285002200Y-110000000D01*
D10*
D11*
X287002200Y-160000000D02*
X285002200Y-160000000D01*
D10*
D11*
X285692676Y-35222176D02*
X286311723Y-35222176D01*
X285568866Y-35593604D02*
X286002199Y-34293604D01*
X286002199Y-34293604D02*
X286435533Y-35593604D01*
D10*
D11*
X286095057Y-84912652D02*
X286280771Y-84974557D01*
X286280771Y-84974557D02*
X286342676Y-85036461D01*
X286342676Y-85036461D02*
X286404580Y-85160271D01*
X286404580Y-85160271D02*
X286404580Y-85345985D01*
X286404580Y-85345985D02*
X286342676Y-85469795D01*
X286342676Y-85469795D02*
X286280771Y-85531700D01*
X286280771Y-85531700D02*
X286156961Y-85593604D01*
X286156961Y-85593604D02*
X285661723Y-85593604D01*
X285661723Y-85593604D02*
X285661723Y-84293604D01*
X285661723Y-84293604D02*
X286095057Y-84293604D01*
X286095057Y-84293604D02*
X286218866Y-84355509D01*
X286218866Y-84355509D02*
X286280771Y-84417414D01*
X286280771Y-84417414D02*
X286342676Y-84541223D01*
X286342676Y-84541223D02*
X286342676Y-84665033D01*
X286342676Y-84665033D02*
X286280771Y-84788842D01*
X286280771Y-84788842D02*
X286218866Y-84850747D01*
X286218866Y-84850747D02*
X286095057Y-84912652D01*
X286095057Y-84912652D02*
X285661723Y-84912652D01*
D10*
D11*
X286404580Y-135469795D02*
X286342676Y-135531700D01*
X286342676Y-135531700D02*
X286156961Y-135593604D01*
X286156961Y-135593604D02*
X286033152Y-135593604D01*
X286033152Y-135593604D02*
X285847438Y-135531700D01*
X285847438Y-135531700D02*
X285723628Y-135407890D01*
X285723628Y-135407890D02*
X285661723Y-135284080D01*
X285661723Y-135284080D02*
X285599819Y-135036461D01*
X285599819Y-135036461D02*
X285599819Y-134850747D01*
X285599819Y-134850747D02*
X285661723Y-134603128D01*
X285661723Y-134603128D02*
X285723628Y-134479319D01*
X285723628Y-134479319D02*
X285847438Y-134355509D01*
X285847438Y-134355509D02*
X286033152Y-134293604D01*
X286033152Y-134293604D02*
X286156961Y-134293604D01*
X286156961Y-134293604D02*
X286342676Y-134355509D01*
X286342676Y-134355509D02*
X286404580Y-134417414D01*
D10*
D11*
X285661723Y-185593604D02*
X285661723Y-184293604D01*
X285661723Y-184293604D02*
X285971247Y-184293604D01*
X285971247Y-184293604D02*
X286156961Y-184355509D01*
X286156961Y-184355509D02*
X286280771Y-184479319D01*
X286280771Y-184479319D02*
X286342676Y-184603128D01*
X286342676Y-184603128D02*
X286404580Y-184850747D01*
X286404580Y-184850747D02*
X286404580Y-185036461D01*
X286404580Y-185036461D02*
X286342676Y-185284080D01*
X286342676Y-185284080D02*
X286280771Y-185407890D01*
X286280771Y-185407890D02*
X286156961Y-185531700D01*
X286156961Y-185531700D02*
X285971247Y-185593604D01*
X285971247Y-185593604D02*
X285661723Y-185593604D01*
D10*
D11*
X200458026Y-193793328D02*
X200458026Y-192293328D01*
X200458026Y-192293328D02*
X200815169Y-192293328D01*
X200815169Y-192293328D02*
X201029455Y-192364757D01*
X201029455Y-192364757D02*
X201172312Y-192507614D01*
X201172312Y-192507614D02*
X201243741Y-192650471D01*
X201243741Y-192650471D02*
X201315169Y-192936185D01*
X201315169Y-192936185D02*
X201315169Y-193150471D01*
X201315169Y-193150471D02*
X201243741Y-193436185D01*
X201243741Y-193436185D02*
X201172312Y-193579042D01*
X201172312Y-193579042D02*
X201029455Y-193721900D01*
X201029455Y-193721900D02*
X200815169Y-193793328D01*
X200815169Y-193793328D02*
X200458026Y-193793328D01*
X202600884Y-193793328D02*
X202600884Y-193007614D01*
X202600884Y-193007614D02*
X202529455Y-192864757D01*
X202529455Y-192864757D02*
X202386598Y-192793328D01*
X202386598Y-192793328D02*
X202100884Y-192793328D01*
X202100884Y-192793328D02*
X201958026Y-192864757D01*
X202600884Y-193721900D02*
X202458026Y-193793328D01*
X202458026Y-193793328D02*
X202100884Y-193793328D01*
X202100884Y-193793328D02*
X201958026Y-193721900D01*
X201958026Y-193721900D02*
X201886598Y-193579042D01*
X201886598Y-193579042D02*
X201886598Y-193436185D01*
X201886598Y-193436185D02*
X201958026Y-193293328D01*
X201958026Y-193293328D02*
X202100884Y-193221900D01*
X202100884Y-193221900D02*
X202458026Y-193221900D01*
X202458026Y-193221900D02*
X202600884Y-193150471D01*
X203100884Y-192793328D02*
X203672312Y-192793328D01*
X203315169Y-192293328D02*
X203315169Y-193579042D01*
X203315169Y-193579042D02*
X203386598Y-193721900D01*
X203386598Y-193721900D02*
X203529455Y-193793328D01*
X203529455Y-193793328D02*
X203672312Y-193793328D01*
X204743741Y-193721900D02*
X204600884Y-193793328D01*
X204600884Y-193793328D02*
X204315170Y-193793328D01*
X204315170Y-193793328D02*
X204172312Y-193721900D01*
X204172312Y-193721900D02*
X204100884Y-193579042D01*
X204100884Y-193579042D02*
X204100884Y-193007614D01*
X204100884Y-193007614D02*
X204172312Y-192864757D01*
X204172312Y-192864757D02*
X204315170Y-192793328D01*
X204315170Y-192793328D02*
X204600884Y-192793328D01*
X204600884Y-192793328D02*
X204743741Y-192864757D01*
X204743741Y-192864757D02*
X204815170Y-193007614D01*
X204815170Y-193007614D02*
X204815170Y-193150471D01*
X204815170Y-193150471D02*
X204100884Y-193293328D01*
X205458026Y-193650471D02*
X205529455Y-193721900D01*
X205529455Y-193721900D02*
X205458026Y-193793328D01*
X205458026Y-193793328D02*
X205386598Y-193721900D01*
X205386598Y-193721900D02*
X205458026Y-193650471D01*
X205458026Y-193650471D02*
X205458026Y-193793328D01*
X205458026Y-192864757D02*
X205529455Y-192936185D01*
X205529455Y-192936185D02*
X205458026Y-193007614D01*
X205458026Y-193007614D02*
X205386598Y-192936185D01*
X205386598Y-192936185D02*
X205458026Y-192864757D01*
X205458026Y-192864757D02*
X205458026Y-193007614D01*
D10*
D11*
X177002200Y-194507200D02*
X285002200Y-194507200D01*
D10*
D11*
X178458026Y-196593328D02*
X178458026Y-195093328D01*
X179315169Y-196593328D02*
X178672312Y-195736185D01*
X179315169Y-195093328D02*
X178458026Y-195950471D01*
X179958026Y-196593328D02*
X179958026Y-195593328D01*
X179958026Y-195093328D02*
X179886598Y-195164757D01*
X179886598Y-195164757D02*
X179958026Y-195236185D01*
X179958026Y-195236185D02*
X180029455Y-195164757D01*
X180029455Y-195164757D02*
X179958026Y-195093328D01*
X179958026Y-195093328D02*
X179958026Y-195236185D01*
X181529455Y-196450471D02*
X181458027Y-196521900D01*
X181458027Y-196521900D02*
X181243741Y-196593328D01*
X181243741Y-196593328D02*
X181100884Y-196593328D01*
X181100884Y-196593328D02*
X180886598Y-196521900D01*
X180886598Y-196521900D02*
X180743741Y-196379042D01*
X180743741Y-196379042D02*
X180672312Y-196236185D01*
X180672312Y-196236185D02*
X180600884Y-195950471D01*
X180600884Y-195950471D02*
X180600884Y-195736185D01*
X180600884Y-195736185D02*
X180672312Y-195450471D01*
X180672312Y-195450471D02*
X180743741Y-195307614D01*
X180743741Y-195307614D02*
X180886598Y-195164757D01*
X180886598Y-195164757D02*
X181100884Y-195093328D01*
X181100884Y-195093328D02*
X181243741Y-195093328D01*
X181243741Y-195093328D02*
X181458027Y-195164757D01*
X181458027Y-195164757D02*
X181529455Y-195236185D01*
X182815170Y-196593328D02*
X182815170Y-195807614D01*
X182815170Y-195807614D02*
X182743741Y-195664757D01*
X182743741Y-195664757D02*
X182600884Y-195593328D01*
X182600884Y-195593328D02*
X182315170Y-195593328D01*
X182315170Y-195593328D02*
X182172312Y-195664757D01*
X182815170Y-196521900D02*
X182672312Y-196593328D01*
X182672312Y-196593328D02*
X182315170Y-196593328D01*
X182315170Y-196593328D02*
X182172312Y-196521900D01*
X182172312Y-196521900D02*
X182100884Y-196379042D01*
X182100884Y-196379042D02*
X182100884Y-196236185D01*
X182100884Y-196236185D02*
X182172312Y-196093328D01*
X182172312Y-196093328D02*
X182315170Y-196021900D01*
X182315170Y-196021900D02*
X182672312Y-196021900D01*
X182672312Y-196021900D02*
X182815170Y-195950471D01*
X184172313Y-196593328D02*
X184172313Y-195093328D01*
X184172313Y-196521900D02*
X184029455Y-196593328D01*
X184029455Y-196593328D02*
X183743741Y-196593328D01*
X183743741Y-196593328D02*
X183600884Y-196521900D01*
X183600884Y-196521900D02*
X183529455Y-196450471D01*
X183529455Y-196450471D02*
X183458027Y-196307614D01*
X183458027Y-196307614D02*
X183458027Y-195879042D01*
X183458027Y-195879042D02*
X183529455Y-195736185D01*
X183529455Y-195736185D02*
X183600884Y-195664757D01*
X183600884Y-195664757D02*
X183743741Y-195593328D01*
X183743741Y-195593328D02*
X184029455Y-195593328D01*
X184029455Y-195593328D02*
X184172313Y-195664757D01*
X186029455Y-195807614D02*
X186529455Y-195807614D01*
X186743741Y-196593328D02*
X186029455Y-196593328D01*
X186029455Y-196593328D02*
X186029455Y-195093328D01*
X186029455Y-195093328D02*
X186743741Y-195093328D01*
X187386598Y-196450471D02*
X187458027Y-196521900D01*
X187458027Y-196521900D02*
X187386598Y-196593328D01*
X187386598Y-196593328D02*
X187315170Y-196521900D01*
X187315170Y-196521900D02*
X187386598Y-196450471D01*
X187386598Y-196450471D02*
X187386598Y-196593328D01*
X188100884Y-196593328D02*
X188100884Y-195093328D01*
X188100884Y-195093328D02*
X188458027Y-195093328D01*
X188458027Y-195093328D02*
X188672313Y-195164757D01*
X188672313Y-195164757D02*
X188815170Y-195307614D01*
X188815170Y-195307614D02*
X188886599Y-195450471D01*
X188886599Y-195450471D02*
X188958027Y-195736185D01*
X188958027Y-195736185D02*
X188958027Y-195950471D01*
X188958027Y-195950471D02*
X188886599Y-196236185D01*
X188886599Y-196236185D02*
X188815170Y-196379042D01*
X188815170Y-196379042D02*
X188672313Y-196521900D01*
X188672313Y-196521900D02*
X188458027Y-196593328D01*
X188458027Y-196593328D02*
X188100884Y-196593328D01*
X189600884Y-196450471D02*
X189672313Y-196521900D01*
X189672313Y-196521900D02*
X189600884Y-196593328D01*
X189600884Y-196593328D02*
X189529456Y-196521900D01*
X189529456Y-196521900D02*
X189600884Y-196450471D01*
X189600884Y-196450471D02*
X189600884Y-196593328D01*
X190243742Y-196164757D02*
X190958028Y-196164757D01*
X190100885Y-196593328D02*
X190600885Y-195093328D01*
X190600885Y-195093328D02*
X191100885Y-196593328D01*
X191600884Y-196450471D02*
X191672313Y-196521900D01*
X191672313Y-196521900D02*
X191600884Y-196593328D01*
X191600884Y-196593328D02*
X191529456Y-196521900D01*
X191529456Y-196521900D02*
X191600884Y-196450471D01*
X191600884Y-196450471D02*
X191600884Y-196593328D01*
X193529456Y-196593328D02*
X193815170Y-196593328D01*
X193815170Y-196593328D02*
X193958027Y-196521900D01*
X193958027Y-196521900D02*
X194029456Y-196450471D01*
X194029456Y-196450471D02*
X194172313Y-196236185D01*
X194172313Y-196236185D02*
X194243742Y-195950471D01*
X194243742Y-195950471D02*
X194243742Y-195379042D01*
X194243742Y-195379042D02*
X194172313Y-195236185D01*
X194172313Y-195236185D02*
X194100885Y-195164757D01*
X194100885Y-195164757D02*
X193958027Y-195093328D01*
X193958027Y-195093328D02*
X193672313Y-195093328D01*
X193672313Y-195093328D02*
X193529456Y-195164757D01*
X193529456Y-195164757D02*
X193458027Y-195236185D01*
X193458027Y-195236185D02*
X193386599Y-195379042D01*
X193386599Y-195379042D02*
X193386599Y-195736185D01*
X193386599Y-195736185D02*
X193458027Y-195879042D01*
X193458027Y-195879042D02*
X193529456Y-195950471D01*
X193529456Y-195950471D02*
X193672313Y-196021900D01*
X193672313Y-196021900D02*
X193958027Y-196021900D01*
X193958027Y-196021900D02*
X194100885Y-195950471D01*
X194100885Y-195950471D02*
X194172313Y-195879042D01*
X194172313Y-195879042D02*
X194243742Y-195736185D01*
X194886598Y-196450471D02*
X194958027Y-196521900D01*
X194958027Y-196521900D02*
X194886598Y-196593328D01*
X194886598Y-196593328D02*
X194815170Y-196521900D01*
X194815170Y-196521900D02*
X194886598Y-196450471D01*
X194886598Y-196450471D02*
X194886598Y-196593328D01*
X195886599Y-195093328D02*
X196029456Y-195093328D01*
X196029456Y-195093328D02*
X196172313Y-195164757D01*
X196172313Y-195164757D02*
X196243742Y-195236185D01*
X196243742Y-195236185D02*
X196315170Y-195379042D01*
X196315170Y-195379042D02*
X196386599Y-195664757D01*
X196386599Y-195664757D02*
X196386599Y-196021900D01*
X196386599Y-196021900D02*
X196315170Y-196307614D01*
X196315170Y-196307614D02*
X196243742Y-196450471D01*
X196243742Y-196450471D02*
X196172313Y-196521900D01*
X196172313Y-196521900D02*
X196029456Y-196593328D01*
X196029456Y-196593328D02*
X195886599Y-196593328D01*
X195886599Y-196593328D02*
X195743742Y-196521900D01*
X195743742Y-196521900D02*
X195672313Y-196450471D01*
X195672313Y-196450471D02*
X195600884Y-196307614D01*
X195600884Y-196307614D02*
X195529456Y-196021900D01*
X195529456Y-196021900D02*
X195529456Y-195664757D01*
X195529456Y-195664757D02*
X195600884Y-195379042D01*
X195600884Y-195379042D02*
X195672313Y-195236185D01*
X195672313Y-195236185D02*
X195743742Y-195164757D01*
X195743742Y-195164757D02*
X195886599Y-195093328D01*
X197029455Y-196450471D02*
X197100884Y-196521900D01*
X197100884Y-196521900D02*
X197029455Y-196593328D01*
X197029455Y-196593328D02*
X196958027Y-196521900D01*
X196958027Y-196521900D02*
X197029455Y-196450471D01*
X197029455Y-196450471D02*
X197029455Y-196593328D01*
X198529456Y-196593328D02*
X197672313Y-196593328D01*
X198100884Y-196593328D02*
X198100884Y-195093328D01*
X198100884Y-195093328D02*
X197958027Y-195307614D01*
X197958027Y-195307614D02*
X197815170Y-195450471D01*
X197815170Y-195450471D02*
X197672313Y-195521900D01*
D10*
D11*
X177002200Y-191507200D02*
X285002200Y-191507200D01*
D10*
D12*
X264413853Y-193785528D02*
X263913853Y-193071242D01*
X263556710Y-193785528D02*
X263556710Y-192285528D01*
X263556710Y-192285528D02*
X264128139Y-192285528D01*
X264128139Y-192285528D02*
X264270996Y-192356957D01*
X264270996Y-192356957D02*
X264342425Y-192428385D01*
X264342425Y-192428385D02*
X264413853Y-192571242D01*
X264413853Y-192571242D02*
X264413853Y-192785528D01*
X264413853Y-192785528D02*
X264342425Y-192928385D01*
X264342425Y-192928385D02*
X264270996Y-192999814D01*
X264270996Y-192999814D02*
X264128139Y-193071242D01*
X264128139Y-193071242D02*
X263556710Y-193071242D01*
X265628139Y-193714100D02*
X265485282Y-193785528D01*
X265485282Y-193785528D02*
X265199568Y-193785528D01*
X265199568Y-193785528D02*
X265056710Y-193714100D01*
X265056710Y-193714100D02*
X264985282Y-193571242D01*
X264985282Y-193571242D02*
X264985282Y-192999814D01*
X264985282Y-192999814D02*
X265056710Y-192856957D01*
X265056710Y-192856957D02*
X265199568Y-192785528D01*
X265199568Y-192785528D02*
X265485282Y-192785528D01*
X265485282Y-192785528D02*
X265628139Y-192856957D01*
X265628139Y-192856957D02*
X265699568Y-192999814D01*
X265699568Y-192999814D02*
X265699568Y-193142671D01*
X265699568Y-193142671D02*
X264985282Y-193285528D01*
X266199567Y-192785528D02*
X266556710Y-193785528D01*
X266556710Y-193785528D02*
X266913853Y-192785528D01*
X267485281Y-193642671D02*
X267556710Y-193714100D01*
X267556710Y-193714100D02*
X267485281Y-193785528D01*
X267485281Y-193785528D02*
X267413853Y-193714100D01*
X267413853Y-193714100D02*
X267485281Y-193642671D01*
X267485281Y-193642671D02*
X267485281Y-193785528D01*
X267485281Y-192856957D02*
X267556710Y-192928385D01*
X267556710Y-192928385D02*
X267485281Y-192999814D01*
X267485281Y-192999814D02*
X267413853Y-192928385D01*
X267413853Y-192928385D02*
X267485281Y-192856957D01*
X267485281Y-192856957D02*
X267485281Y-192999814D01*
D10*
D11*
X178386598Y-193721900D02*
X178600884Y-193793328D01*
X178600884Y-193793328D02*
X178958026Y-193793328D01*
X178958026Y-193793328D02*
X179100884Y-193721900D01*
X179100884Y-193721900D02*
X179172312Y-193650471D01*
X179172312Y-193650471D02*
X179243741Y-193507614D01*
X179243741Y-193507614D02*
X179243741Y-193364757D01*
X179243741Y-193364757D02*
X179172312Y-193221900D01*
X179172312Y-193221900D02*
X179100884Y-193150471D01*
X179100884Y-193150471D02*
X178958026Y-193079042D01*
X178958026Y-193079042D02*
X178672312Y-193007614D01*
X178672312Y-193007614D02*
X178529455Y-192936185D01*
X178529455Y-192936185D02*
X178458026Y-192864757D01*
X178458026Y-192864757D02*
X178386598Y-192721900D01*
X178386598Y-192721900D02*
X178386598Y-192579042D01*
X178386598Y-192579042D02*
X178458026Y-192436185D01*
X178458026Y-192436185D02*
X178529455Y-192364757D01*
X178529455Y-192364757D02*
X178672312Y-192293328D01*
X178672312Y-192293328D02*
X179029455Y-192293328D01*
X179029455Y-192293328D02*
X179243741Y-192364757D01*
X179886597Y-193793328D02*
X179886597Y-192793328D01*
X179886597Y-192293328D02*
X179815169Y-192364757D01*
X179815169Y-192364757D02*
X179886597Y-192436185D01*
X179886597Y-192436185D02*
X179958026Y-192364757D01*
X179958026Y-192364757D02*
X179886597Y-192293328D01*
X179886597Y-192293328D02*
X179886597Y-192436185D01*
X180458026Y-192793328D02*
X181243741Y-192793328D01*
X181243741Y-192793328D02*
X180458026Y-193793328D01*
X180458026Y-193793328D02*
X181243741Y-193793328D01*
X182386598Y-193721900D02*
X182243741Y-193793328D01*
X182243741Y-193793328D02*
X181958027Y-193793328D01*
X181958027Y-193793328D02*
X181815169Y-193721900D01*
X181815169Y-193721900D02*
X181743741Y-193579042D01*
X181743741Y-193579042D02*
X181743741Y-193007614D01*
X181743741Y-193007614D02*
X181815169Y-192864757D01*
X181815169Y-192864757D02*
X181958027Y-192793328D01*
X181958027Y-192793328D02*
X182243741Y-192793328D01*
X182243741Y-192793328D02*
X182386598Y-192864757D01*
X182386598Y-192864757D02*
X182458027Y-193007614D01*
X182458027Y-193007614D02*
X182458027Y-193150471D01*
X182458027Y-193150471D02*
X181743741Y-193293328D01*
X183100883Y-193650471D02*
X183172312Y-193721900D01*
X183172312Y-193721900D02*
X183100883Y-193793328D01*
X183100883Y-193793328D02*
X183029455Y-193721900D01*
X183029455Y-193721900D02*
X183100883Y-193650471D01*
X183100883Y-193650471D02*
X183100883Y-193793328D01*
X183100883Y-192864757D02*
X183172312Y-192936185D01*
X183172312Y-192936185D02*
X183100883Y-193007614D01*
X183100883Y-193007614D02*
X183029455Y-192936185D01*
X183029455Y-192936185D02*
X183100883Y-192864757D01*
X183100883Y-192864757D02*
X183100883Y-193007614D01*
X184886598Y-193364757D02*
X185600884Y-193364757D01*
X184743741Y-193793328D02*
X185243741Y-192293328D01*
X185243741Y-192293328D02*
X185743741Y-193793328D01*
X186886598Y-192793328D02*
X186886598Y-193793328D01*
X186529455Y-192221900D02*
X186172312Y-193293328D01*
X186172312Y-193293328D02*
X187100883Y-193293328D01*
D10*
D11*
X263458026Y-196593328D02*
X263458026Y-195093328D01*
X264815170Y-196593328D02*
X264815170Y-195093328D01*
X264815170Y-196521900D02*
X264672312Y-196593328D01*
X264672312Y-196593328D02*
X264386598Y-196593328D01*
X264386598Y-196593328D02*
X264243741Y-196521900D01*
X264243741Y-196521900D02*
X264172312Y-196450471D01*
X264172312Y-196450471D02*
X264100884Y-196307614D01*
X264100884Y-196307614D02*
X264100884Y-195879042D01*
X264100884Y-195879042D02*
X264172312Y-195736185D01*
X264172312Y-195736185D02*
X264243741Y-195664757D01*
X264243741Y-195664757D02*
X264386598Y-195593328D01*
X264386598Y-195593328D02*
X264672312Y-195593328D01*
X264672312Y-195593328D02*
X264815170Y-195664757D01*
X265529455Y-196450471D02*
X265600884Y-196521900D01*
X265600884Y-196521900D02*
X265529455Y-196593328D01*
X265529455Y-196593328D02*
X265458027Y-196521900D01*
X265458027Y-196521900D02*
X265529455Y-196450471D01*
X265529455Y-196450471D02*
X265529455Y-196593328D01*
X265529455Y-195664757D02*
X265600884Y-195736185D01*
X265600884Y-195736185D02*
X265529455Y-195807614D01*
X265529455Y-195807614D02*
X265458027Y-195736185D01*
X265458027Y-195736185D02*
X265529455Y-195664757D01*
X265529455Y-195664757D02*
X265529455Y-195807614D01*
X268029456Y-195593328D02*
X268029456Y-196593328D01*
X267672313Y-195021900D02*
X267315170Y-196093328D01*
X267315170Y-196093328D02*
X268243741Y-196093328D01*
X269886598Y-195021900D02*
X268600884Y-196950471D01*
X271172313Y-196593328D02*
X270315170Y-196593328D01*
X270743741Y-196593328D02*
X270743741Y-195093328D01*
X270743741Y-195093328D02*
X270600884Y-195307614D01*
X270600884Y-195307614D02*
X270458027Y-195450471D01*
X270458027Y-195450471D02*
X270315170Y-195521900D01*
X272600884Y-196593328D02*
X271743741Y-196593328D01*
X272172312Y-196593328D02*
X272172312Y-195093328D01*
X272172312Y-195093328D02*
X272029455Y-195307614D01*
X272029455Y-195307614D02*
X271886598Y-195450471D01*
X271886598Y-195450471D02*
X271743741Y-195521900D01*
D10*
D11*
X177002200Y-187507200D02*
X285002200Y-187507200D01*
D10*
D13*
X178693928Y-188211638D02*
X179836785Y-188211638D01*
X179015357Y-190211638D02*
X179265357Y-188211638D01*
X180253452Y-190211638D02*
X180420119Y-188878304D01*
X180503452Y-188211638D02*
X180396309Y-188306876D01*
X180396309Y-188306876D02*
X180479643Y-188402114D01*
X180479643Y-188402114D02*
X180586786Y-188306876D01*
X180586786Y-188306876D02*
X180503452Y-188211638D01*
X180503452Y-188211638D02*
X180479643Y-188402114D01*
X181086786Y-188878304D02*
X181848690Y-188878304D01*
X181455833Y-188211638D02*
X181241548Y-189925923D01*
X181241548Y-189925923D02*
X181312976Y-190116400D01*
X181312976Y-190116400D02*
X181491548Y-190211638D01*
X181491548Y-190211638D02*
X181682024Y-190211638D01*
X182634405Y-190211638D02*
X182455833Y-190116400D01*
X182455833Y-190116400D02*
X182384405Y-189925923D01*
X182384405Y-189925923D02*
X182598690Y-188211638D01*
X184170119Y-190116400D02*
X183967738Y-190211638D01*
X183967738Y-190211638D02*
X183586785Y-190211638D01*
X183586785Y-190211638D02*
X183408214Y-190116400D01*
X183408214Y-190116400D02*
X183336785Y-189925923D01*
X183336785Y-189925923D02*
X183432024Y-189164019D01*
X183432024Y-189164019D02*
X183551071Y-188973542D01*
X183551071Y-188973542D02*
X183753452Y-188878304D01*
X183753452Y-188878304D02*
X184134404Y-188878304D01*
X184134404Y-188878304D02*
X184312976Y-188973542D01*
X184312976Y-188973542D02*
X184384404Y-189164019D01*
X184384404Y-189164019D02*
X184360595Y-189354495D01*
X184360595Y-189354495D02*
X183384404Y-189544971D01*
X185134405Y-190021161D02*
X185217738Y-190116400D01*
X185217738Y-190116400D02*
X185110595Y-190211638D01*
X185110595Y-190211638D02*
X185027262Y-190116400D01*
X185027262Y-190116400D02*
X185134405Y-190021161D01*
X185134405Y-190021161D02*
X185110595Y-190211638D01*
X185265357Y-188973542D02*
X185348690Y-189068780D01*
X185348690Y-189068780D02*
X185241548Y-189164019D01*
X185241548Y-189164019D02*
X185158214Y-189068780D01*
X185158214Y-189068780D02*
X185265357Y-188973542D01*
X185265357Y-188973542D02*
X185241548Y-189164019D01*
D10*
D11*
X178958026Y-185607614D02*
X178458026Y-185607614D01*
X178458026Y-186393328D02*
X178458026Y-184893328D01*
X178458026Y-184893328D02*
X179172312Y-184893328D01*
X179743740Y-186393328D02*
X179743740Y-185393328D01*
X179743740Y-184893328D02*
X179672312Y-184964757D01*
X179672312Y-184964757D02*
X179743740Y-185036185D01*
X179743740Y-185036185D02*
X179815169Y-184964757D01*
X179815169Y-184964757D02*
X179743740Y-184893328D01*
X179743740Y-184893328D02*
X179743740Y-185036185D01*
X180672312Y-186393328D02*
X180529455Y-186321900D01*
X180529455Y-186321900D02*
X180458026Y-186179042D01*
X180458026Y-186179042D02*
X180458026Y-184893328D01*
X181815169Y-186321900D02*
X181672312Y-186393328D01*
X181672312Y-186393328D02*
X181386598Y-186393328D01*
X181386598Y-186393328D02*
X181243740Y-186321900D01*
X181243740Y-186321900D02*
X181172312Y-186179042D01*
X181172312Y-186179042D02*
X181172312Y-185607614D01*
X181172312Y-185607614D02*
X181243740Y-185464757D01*
X181243740Y-185464757D02*
X181386598Y-185393328D01*
X181386598Y-185393328D02*
X181672312Y-185393328D01*
X181672312Y-185393328D02*
X181815169Y-185464757D01*
X181815169Y-185464757D02*
X181886598Y-185607614D01*
X181886598Y-185607614D02*
X181886598Y-185750471D01*
X181886598Y-185750471D02*
X181172312Y-185893328D01*
X182529454Y-186250471D02*
X182600883Y-186321900D01*
X182600883Y-186321900D02*
X182529454Y-186393328D01*
X182529454Y-186393328D02*
X182458026Y-186321900D01*
X182458026Y-186321900D02*
X182529454Y-186250471D01*
X182529454Y-186250471D02*
X182529454Y-186393328D01*
X182529454Y-185464757D02*
X182600883Y-185536185D01*
X182600883Y-185536185D02*
X182529454Y-185607614D01*
X182529454Y-185607614D02*
X182458026Y-185536185D01*
X182458026Y-185536185D02*
X182529454Y-185464757D01*
X182529454Y-185464757D02*
X182529454Y-185607614D01*
X184386597Y-186393328D02*
X184386597Y-184893328D01*
X184386597Y-184893328D02*
X184743740Y-184893328D01*
X184743740Y-184893328D02*
X184958026Y-184964757D01*
X184958026Y-184964757D02*
X185100883Y-185107614D01*
X185100883Y-185107614D02*
X185172312Y-185250471D01*
X185172312Y-185250471D02*
X185243740Y-185536185D01*
X185243740Y-185536185D02*
X185243740Y-185750471D01*
X185243740Y-185750471D02*
X185172312Y-186036185D01*
X185172312Y-186036185D02*
X185100883Y-186179042D01*
X185100883Y-186179042D02*
X184958026Y-186321900D01*
X184958026Y-186321900D02*
X184743740Y-186393328D01*
X184743740Y-186393328D02*
X184386597Y-186393328D01*
X186529455Y-185393328D02*
X186529455Y-186393328D01*
X185886597Y-185393328D02*
X185886597Y-186179042D01*
X185886597Y-186179042D02*
X185958026Y-186321900D01*
X185958026Y-186321900D02*
X186100883Y-186393328D01*
X186100883Y-186393328D02*
X186315169Y-186393328D01*
X186315169Y-186393328D02*
X186458026Y-186321900D01*
X186458026Y-186321900D02*
X186529455Y-186250471D01*
X187886598Y-186393328D02*
X187886598Y-185607614D01*
X187886598Y-185607614D02*
X187815169Y-185464757D01*
X187815169Y-185464757D02*
X187672312Y-185393328D01*
X187672312Y-185393328D02*
X187386598Y-185393328D01*
X187386598Y-185393328D02*
X187243740Y-185464757D01*
X187886598Y-186321900D02*
X187743740Y-186393328D01*
X187743740Y-186393328D02*
X187386598Y-186393328D01*
X187386598Y-186393328D02*
X187243740Y-186321900D01*
X187243740Y-186321900D02*
X187172312Y-186179042D01*
X187172312Y-186179042D02*
X187172312Y-186036185D01*
X187172312Y-186036185D02*
X187243740Y-185893328D01*
X187243740Y-185893328D02*
X187386598Y-185821900D01*
X187386598Y-185821900D02*
X187743740Y-185821900D01*
X187743740Y-185821900D02*
X187886598Y-185750471D01*
X188815169Y-186393328D02*
X188672312Y-186321900D01*
X188672312Y-186321900D02*
X188600883Y-186179042D01*
X188600883Y-186179042D02*
X188600883Y-184893328D01*
X189029455Y-186536185D02*
X190172312Y-186536185D01*
X190386597Y-184893328D02*
X190743740Y-186393328D01*
X190743740Y-186393328D02*
X191029454Y-185321900D01*
X191029454Y-185321900D02*
X191315169Y-186393328D01*
X191315169Y-186393328D02*
X191672312Y-184893328D01*
X192243740Y-186393328D02*
X192243740Y-185393328D01*
X192243740Y-184893328D02*
X192172312Y-184964757D01*
X192172312Y-184964757D02*
X192243740Y-185036185D01*
X192243740Y-185036185D02*
X192315169Y-184964757D01*
X192315169Y-184964757D02*
X192243740Y-184893328D01*
X192243740Y-184893328D02*
X192243740Y-185036185D01*
X192958026Y-185393328D02*
X192958026Y-186393328D01*
X192958026Y-185536185D02*
X193029455Y-185464757D01*
X193029455Y-185464757D02*
X193172312Y-185393328D01*
X193172312Y-185393328D02*
X193386598Y-185393328D01*
X193386598Y-185393328D02*
X193529455Y-185464757D01*
X193529455Y-185464757D02*
X193600884Y-185607614D01*
X193600884Y-185607614D02*
X193600884Y-186393328D01*
X194958027Y-186393328D02*
X194958027Y-184893328D01*
X194958027Y-186321900D02*
X194815169Y-186393328D01*
X194815169Y-186393328D02*
X194529455Y-186393328D01*
X194529455Y-186393328D02*
X194386598Y-186321900D01*
X194386598Y-186321900D02*
X194315169Y-186250471D01*
X194315169Y-186250471D02*
X194243741Y-186107614D01*
X194243741Y-186107614D02*
X194243741Y-185679042D01*
X194243741Y-185679042D02*
X194315169Y-185536185D01*
X194315169Y-185536185D02*
X194386598Y-185464757D01*
X194386598Y-185464757D02*
X194529455Y-185393328D01*
X194529455Y-185393328D02*
X194815169Y-185393328D01*
X194815169Y-185393328D02*
X194958027Y-185464757D01*
X195315170Y-186536185D02*
X196458027Y-186536185D01*
X196743741Y-186321900D02*
X196958027Y-186393328D01*
X196958027Y-186393328D02*
X197315169Y-186393328D01*
X197315169Y-186393328D02*
X197458027Y-186321900D01*
X197458027Y-186321900D02*
X197529455Y-186250471D01*
X197529455Y-186250471D02*
X197600884Y-186107614D01*
X197600884Y-186107614D02*
X197600884Y-185964757D01*
X197600884Y-185964757D02*
X197529455Y-185821900D01*
X197529455Y-185821900D02*
X197458027Y-185750471D01*
X197458027Y-185750471D02*
X197315169Y-185679042D01*
X197315169Y-185679042D02*
X197029455Y-185607614D01*
X197029455Y-185607614D02*
X196886598Y-185536185D01*
X196886598Y-185536185D02*
X196815169Y-185464757D01*
X196815169Y-185464757D02*
X196743741Y-185321900D01*
X196743741Y-185321900D02*
X196743741Y-185179042D01*
X196743741Y-185179042D02*
X196815169Y-185036185D01*
X196815169Y-185036185D02*
X196886598Y-184964757D01*
X196886598Y-184964757D02*
X197029455Y-184893328D01*
X197029455Y-184893328D02*
X197386598Y-184893328D01*
X197386598Y-184893328D02*
X197600884Y-184964757D01*
X198815169Y-186321900D02*
X198672312Y-186393328D01*
X198672312Y-186393328D02*
X198386598Y-186393328D01*
X198386598Y-186393328D02*
X198243740Y-186321900D01*
X198243740Y-186321900D02*
X198172312Y-186179042D01*
X198172312Y-186179042D02*
X198172312Y-185607614D01*
X198172312Y-185607614D02*
X198243740Y-185464757D01*
X198243740Y-185464757D02*
X198386598Y-185393328D01*
X198386598Y-185393328D02*
X198672312Y-185393328D01*
X198672312Y-185393328D02*
X198815169Y-185464757D01*
X198815169Y-185464757D02*
X198886598Y-185607614D01*
X198886598Y-185607614D02*
X198886598Y-185750471D01*
X198886598Y-185750471D02*
X198172312Y-185893328D01*
X199529454Y-185393328D02*
X199529454Y-186393328D01*
X199529454Y-185536185D02*
X199600883Y-185464757D01*
X199600883Y-185464757D02*
X199743740Y-185393328D01*
X199743740Y-185393328D02*
X199958026Y-185393328D01*
X199958026Y-185393328D02*
X200100883Y-185464757D01*
X200100883Y-185464757D02*
X200172312Y-185607614D01*
X200172312Y-185607614D02*
X200172312Y-186393328D01*
X200815169Y-186321900D02*
X200958026Y-186393328D01*
X200958026Y-186393328D02*
X201243740Y-186393328D01*
X201243740Y-186393328D02*
X201386597Y-186321900D01*
X201386597Y-186321900D02*
X201458026Y-186179042D01*
X201458026Y-186179042D02*
X201458026Y-186107614D01*
X201458026Y-186107614D02*
X201386597Y-185964757D01*
X201386597Y-185964757D02*
X201243740Y-185893328D01*
X201243740Y-185893328D02*
X201029455Y-185893328D01*
X201029455Y-185893328D02*
X200886597Y-185821900D01*
X200886597Y-185821900D02*
X200815169Y-185679042D01*
X200815169Y-185679042D02*
X200815169Y-185607614D01*
X200815169Y-185607614D02*
X200886597Y-185464757D01*
X200886597Y-185464757D02*
X201029455Y-185393328D01*
X201029455Y-185393328D02*
X201243740Y-185393328D01*
X201243740Y-185393328D02*
X201386597Y-185464757D01*
X202315169Y-186393328D02*
X202172312Y-186321900D01*
X202172312Y-186321900D02*
X202100883Y-186250471D01*
X202100883Y-186250471D02*
X202029455Y-186107614D01*
X202029455Y-186107614D02*
X202029455Y-185679042D01*
X202029455Y-185679042D02*
X202100883Y-185536185D01*
X202100883Y-185536185D02*
X202172312Y-185464757D01*
X202172312Y-185464757D02*
X202315169Y-185393328D01*
X202315169Y-185393328D02*
X202529455Y-185393328D01*
X202529455Y-185393328D02*
X202672312Y-185464757D01*
X202672312Y-185464757D02*
X202743741Y-185536185D01*
X202743741Y-185536185D02*
X202815169Y-185679042D01*
X202815169Y-185679042D02*
X202815169Y-186107614D01*
X202815169Y-186107614D02*
X202743741Y-186250471D01*
X202743741Y-186250471D02*
X202672312Y-186321900D01*
X202672312Y-186321900D02*
X202529455Y-186393328D01*
X202529455Y-186393328D02*
X202315169Y-186393328D01*
X203458026Y-186393328D02*
X203458026Y-185393328D01*
X203458026Y-185679042D02*
X203529455Y-185536185D01*
X203529455Y-185536185D02*
X203600884Y-185464757D01*
X203600884Y-185464757D02*
X203743741Y-185393328D01*
X203743741Y-185393328D02*
X203886598Y-185393328D01*
X204386597Y-185821900D02*
X205529455Y-185821900D01*
X206243740Y-186393328D02*
X206243740Y-184893328D01*
X206243740Y-184893328D02*
X207100883Y-186393328D01*
X207100883Y-186393328D02*
X207100883Y-184893328D01*
X207743741Y-185964757D02*
X208458027Y-185964757D01*
X207600884Y-186393328D02*
X208100884Y-184893328D01*
X208100884Y-184893328D02*
X208600884Y-186393328D01*
X209100883Y-186393328D02*
X209100883Y-184893328D01*
X209100883Y-184893328D02*
X209958026Y-186393328D01*
X209958026Y-186393328D02*
X209958026Y-184893328D01*
X210958027Y-184893328D02*
X211243741Y-184893328D01*
X211243741Y-184893328D02*
X211386598Y-184964757D01*
X211386598Y-184964757D02*
X211529455Y-185107614D01*
X211529455Y-185107614D02*
X211600884Y-185393328D01*
X211600884Y-185393328D02*
X211600884Y-185893328D01*
X211600884Y-185893328D02*
X211529455Y-186179042D01*
X211529455Y-186179042D02*
X211386598Y-186321900D01*
X211386598Y-186321900D02*
X211243741Y-186393328D01*
X211243741Y-186393328D02*
X210958027Y-186393328D01*
X210958027Y-186393328D02*
X210815170Y-186321900D01*
X210815170Y-186321900D02*
X210672312Y-186179042D01*
X210672312Y-186179042D02*
X210600884Y-185893328D01*
X210600884Y-185893328D02*
X210600884Y-185393328D01*
X210600884Y-185393328D02*
X210672312Y-185107614D01*
X210672312Y-185107614D02*
X210815170Y-184964757D01*
X210815170Y-184964757D02*
X210958027Y-184893328D01*
X211886599Y-186536185D02*
X213029456Y-186536185D01*
X213386598Y-185393328D02*
X213386598Y-186393328D01*
X213386598Y-185536185D02*
X213458027Y-185464757D01*
X213458027Y-185464757D02*
X213600884Y-185393328D01*
X213600884Y-185393328D02*
X213815170Y-185393328D01*
X213815170Y-185393328D02*
X213958027Y-185464757D01*
X213958027Y-185464757D02*
X214029456Y-185607614D01*
X214029456Y-185607614D02*
X214029456Y-186393328D01*
X214958027Y-186393328D02*
X214815170Y-186321900D01*
X214815170Y-186321900D02*
X214743741Y-186250471D01*
X214743741Y-186250471D02*
X214672313Y-186107614D01*
X214672313Y-186107614D02*
X214672313Y-185679042D01*
X214672313Y-185679042D02*
X214743741Y-185536185D01*
X214743741Y-185536185D02*
X214815170Y-185464757D01*
X214815170Y-185464757D02*
X214958027Y-185393328D01*
X214958027Y-185393328D02*
X215172313Y-185393328D01*
X215172313Y-185393328D02*
X215315170Y-185464757D01*
X215315170Y-185464757D02*
X215386599Y-185536185D01*
X215386599Y-185536185D02*
X215458027Y-185679042D01*
X215458027Y-185679042D02*
X215458027Y-186107614D01*
X215458027Y-186107614D02*
X215386599Y-186250471D01*
X215386599Y-186250471D02*
X215315170Y-186321900D01*
X215315170Y-186321900D02*
X215172313Y-186393328D01*
X215172313Y-186393328D02*
X214958027Y-186393328D01*
X216958027Y-186393328D02*
X216458027Y-185679042D01*
X216100884Y-186393328D02*
X216100884Y-184893328D01*
X216100884Y-184893328D02*
X216672313Y-184893328D01*
X216672313Y-184893328D02*
X216815170Y-184964757D01*
X216815170Y-184964757D02*
X216886599Y-185036185D01*
X216886599Y-185036185D02*
X216958027Y-185179042D01*
X216958027Y-185179042D02*
X216958027Y-185393328D01*
X216958027Y-185393328D02*
X216886599Y-185536185D01*
X216886599Y-185536185D02*
X216815170Y-185607614D01*
X216815170Y-185607614D02*
X216672313Y-185679042D01*
X216672313Y-185679042D02*
X216100884Y-185679042D01*
X218172313Y-186321900D02*
X218029456Y-186393328D01*
X218029456Y-186393328D02*
X217743742Y-186393328D01*
X217743742Y-186393328D02*
X217600884Y-186321900D01*
X217600884Y-186321900D02*
X217529456Y-186179042D01*
X217529456Y-186179042D02*
X217529456Y-185607614D01*
X217529456Y-185607614D02*
X217600884Y-185464757D01*
X217600884Y-185464757D02*
X217743742Y-185393328D01*
X217743742Y-185393328D02*
X218029456Y-185393328D01*
X218029456Y-185393328D02*
X218172313Y-185464757D01*
X218172313Y-185464757D02*
X218243742Y-185607614D01*
X218243742Y-185607614D02*
X218243742Y-185750471D01*
X218243742Y-185750471D02*
X217529456Y-185893328D01*
X219529456Y-185393328D02*
X219529456Y-186607614D01*
X219529456Y-186607614D02*
X219458027Y-186750471D01*
X219458027Y-186750471D02*
X219386598Y-186821900D01*
X219386598Y-186821900D02*
X219243741Y-186893328D01*
X219243741Y-186893328D02*
X219029456Y-186893328D01*
X219029456Y-186893328D02*
X218886598Y-186821900D01*
X219529456Y-186321900D02*
X219386598Y-186393328D01*
X219386598Y-186393328D02*
X219100884Y-186393328D01*
X219100884Y-186393328D02*
X218958027Y-186321900D01*
X218958027Y-186321900D02*
X218886598Y-186250471D01*
X218886598Y-186250471D02*
X218815170Y-186107614D01*
X218815170Y-186107614D02*
X218815170Y-185679042D01*
X218815170Y-185679042D02*
X218886598Y-185536185D01*
X218886598Y-185536185D02*
X218958027Y-185464757D01*
X218958027Y-185464757D02*
X219100884Y-185393328D01*
X219100884Y-185393328D02*
X219386598Y-185393328D01*
X219386598Y-185393328D02*
X219529456Y-185464757D01*
X220243741Y-186250471D02*
X220315170Y-186321900D01*
X220315170Y-186321900D02*
X220243741Y-186393328D01*
X220243741Y-186393328D02*
X220172313Y-186321900D01*
X220172313Y-186321900D02*
X220243741Y-186250471D01*
X220243741Y-186250471D02*
X220243741Y-186393328D01*
X220958027Y-186393328D02*
X220958027Y-184893328D01*
X221100885Y-185821900D02*
X221529456Y-186393328D01*
X221529456Y-185393328D02*
X220958027Y-185964757D01*
X222172313Y-186393328D02*
X222172313Y-185393328D01*
X222172313Y-184893328D02*
X222100885Y-184964757D01*
X222100885Y-184964757D02*
X222172313Y-185036185D01*
X222172313Y-185036185D02*
X222243742Y-184964757D01*
X222243742Y-184964757D02*
X222172313Y-184893328D01*
X222172313Y-184893328D02*
X222172313Y-185036185D01*
X223529457Y-186321900D02*
X223386599Y-186393328D01*
X223386599Y-186393328D02*
X223100885Y-186393328D01*
X223100885Y-186393328D02*
X222958028Y-186321900D01*
X222958028Y-186321900D02*
X222886599Y-186250471D01*
X222886599Y-186250471D02*
X222815171Y-186107614D01*
X222815171Y-186107614D02*
X222815171Y-185679042D01*
X222815171Y-185679042D02*
X222886599Y-185536185D01*
X222886599Y-185536185D02*
X222958028Y-185464757D01*
X222958028Y-185464757D02*
X223100885Y-185393328D01*
X223100885Y-185393328D02*
X223386599Y-185393328D01*
X223386599Y-185393328D02*
X223529457Y-185464757D01*
X224815171Y-186393328D02*
X224815171Y-185607614D01*
X224815171Y-185607614D02*
X224743742Y-185464757D01*
X224743742Y-185464757D02*
X224600885Y-185393328D01*
X224600885Y-185393328D02*
X224315171Y-185393328D01*
X224315171Y-185393328D02*
X224172313Y-185464757D01*
X224815171Y-186321900D02*
X224672313Y-186393328D01*
X224672313Y-186393328D02*
X224315171Y-186393328D01*
X224315171Y-186393328D02*
X224172313Y-186321900D01*
X224172313Y-186321900D02*
X224100885Y-186179042D01*
X224100885Y-186179042D02*
X224100885Y-186036185D01*
X224100885Y-186036185D02*
X224172313Y-185893328D01*
X224172313Y-185893328D02*
X224315171Y-185821900D01*
X224315171Y-185821900D02*
X224672313Y-185821900D01*
X224672313Y-185821900D02*
X224815171Y-185750471D01*
X226172314Y-186393328D02*
X226172314Y-184893328D01*
X226172314Y-186321900D02*
X226029456Y-186393328D01*
X226029456Y-186393328D02*
X225743742Y-186393328D01*
X225743742Y-186393328D02*
X225600885Y-186321900D01*
X225600885Y-186321900D02*
X225529456Y-186250471D01*
X225529456Y-186250471D02*
X225458028Y-186107614D01*
X225458028Y-186107614D02*
X225458028Y-185679042D01*
X225458028Y-185679042D02*
X225529456Y-185536185D01*
X225529456Y-185536185D02*
X225600885Y-185464757D01*
X225600885Y-185464757D02*
X225743742Y-185393328D01*
X225743742Y-185393328D02*
X226029456Y-185393328D01*
X226029456Y-185393328D02*
X226172314Y-185464757D01*
X226529457Y-186536185D02*
X227672314Y-186536185D01*
X228029456Y-185393328D02*
X228029456Y-186893328D01*
X228029456Y-185464757D02*
X228172314Y-185393328D01*
X228172314Y-185393328D02*
X228458028Y-185393328D01*
X228458028Y-185393328D02*
X228600885Y-185464757D01*
X228600885Y-185464757D02*
X228672314Y-185536185D01*
X228672314Y-185536185D02*
X228743742Y-185679042D01*
X228743742Y-185679042D02*
X228743742Y-186107614D01*
X228743742Y-186107614D02*
X228672314Y-186250471D01*
X228672314Y-186250471D02*
X228600885Y-186321900D01*
X228600885Y-186321900D02*
X228458028Y-186393328D01*
X228458028Y-186393328D02*
X228172314Y-186393328D01*
X228172314Y-186393328D02*
X228029456Y-186321900D01*
X230029457Y-186321900D02*
X229886599Y-186393328D01*
X229886599Y-186393328D02*
X229600885Y-186393328D01*
X229600885Y-186393328D02*
X229458028Y-186321900D01*
X229458028Y-186321900D02*
X229386599Y-186250471D01*
X229386599Y-186250471D02*
X229315171Y-186107614D01*
X229315171Y-186107614D02*
X229315171Y-185679042D01*
X229315171Y-185679042D02*
X229386599Y-185536185D01*
X229386599Y-185536185D02*
X229458028Y-185464757D01*
X229458028Y-185464757D02*
X229600885Y-185393328D01*
X229600885Y-185393328D02*
X229886599Y-185393328D01*
X229886599Y-185393328D02*
X230029457Y-185464757D01*
X230672313Y-186393328D02*
X230672313Y-184893328D01*
X230672313Y-185464757D02*
X230815171Y-185393328D01*
X230815171Y-185393328D02*
X231100885Y-185393328D01*
X231100885Y-185393328D02*
X231243742Y-185464757D01*
X231243742Y-185464757D02*
X231315171Y-185536185D01*
X231315171Y-185536185D02*
X231386599Y-185679042D01*
X231386599Y-185679042D02*
X231386599Y-186107614D01*
X231386599Y-186107614D02*
X231315171Y-186250471D01*
X231315171Y-186250471D02*
X231243742Y-186321900D01*
X231243742Y-186321900D02*
X231100885Y-186393328D01*
X231100885Y-186393328D02*
X230815171Y-186393328D01*
X230815171Y-186393328D02*
X230672313Y-186321900D01*
D10*
D11*
X177002200Y-181507200D02*
X285002200Y-181507200D01*
D10*
D11*
X178386598Y-183621900D02*
X178600884Y-183693328D01*
X178600884Y-183693328D02*
X178958026Y-183693328D01*
X178958026Y-183693328D02*
X179100884Y-183621900D01*
X179100884Y-183621900D02*
X179172312Y-183550471D01*
X179172312Y-183550471D02*
X179243741Y-183407614D01*
X179243741Y-183407614D02*
X179243741Y-183264757D01*
X179243741Y-183264757D02*
X179172312Y-183121900D01*
X179172312Y-183121900D02*
X179100884Y-183050471D01*
X179100884Y-183050471D02*
X178958026Y-182979042D01*
X178958026Y-182979042D02*
X178672312Y-182907614D01*
X178672312Y-182907614D02*
X178529455Y-182836185D01*
X178529455Y-182836185D02*
X178458026Y-182764757D01*
X178458026Y-182764757D02*
X178386598Y-182621900D01*
X178386598Y-182621900D02*
X178386598Y-182479042D01*
X178386598Y-182479042D02*
X178458026Y-182336185D01*
X178458026Y-182336185D02*
X178529455Y-182264757D01*
X178529455Y-182264757D02*
X178672312Y-182193328D01*
X178672312Y-182193328D02*
X179029455Y-182193328D01*
X179029455Y-182193328D02*
X179243741Y-182264757D01*
X179886597Y-183693328D02*
X179886597Y-182193328D01*
X180529455Y-183693328D02*
X180529455Y-182907614D01*
X180529455Y-182907614D02*
X180458026Y-182764757D01*
X180458026Y-182764757D02*
X180315169Y-182693328D01*
X180315169Y-182693328D02*
X180100883Y-182693328D01*
X180100883Y-182693328D02*
X179958026Y-182764757D01*
X179958026Y-182764757D02*
X179886597Y-182836185D01*
X181815169Y-183621900D02*
X181672312Y-183693328D01*
X181672312Y-183693328D02*
X181386598Y-183693328D01*
X181386598Y-183693328D02*
X181243740Y-183621900D01*
X181243740Y-183621900D02*
X181172312Y-183479042D01*
X181172312Y-183479042D02*
X181172312Y-182907614D01*
X181172312Y-182907614D02*
X181243740Y-182764757D01*
X181243740Y-182764757D02*
X181386598Y-182693328D01*
X181386598Y-182693328D02*
X181672312Y-182693328D01*
X181672312Y-182693328D02*
X181815169Y-182764757D01*
X181815169Y-182764757D02*
X181886598Y-182907614D01*
X181886598Y-182907614D02*
X181886598Y-183050471D01*
X181886598Y-183050471D02*
X181172312Y-183193328D01*
X183100883Y-183621900D02*
X182958026Y-183693328D01*
X182958026Y-183693328D02*
X182672312Y-183693328D01*
X182672312Y-183693328D02*
X182529454Y-183621900D01*
X182529454Y-183621900D02*
X182458026Y-183479042D01*
X182458026Y-183479042D02*
X182458026Y-182907614D01*
X182458026Y-182907614D02*
X182529454Y-182764757D01*
X182529454Y-182764757D02*
X182672312Y-182693328D01*
X182672312Y-182693328D02*
X182958026Y-182693328D01*
X182958026Y-182693328D02*
X183100883Y-182764757D01*
X183100883Y-182764757D02*
X183172312Y-182907614D01*
X183172312Y-182907614D02*
X183172312Y-183050471D01*
X183172312Y-183050471D02*
X182458026Y-183193328D01*
X183600883Y-182693328D02*
X184172311Y-182693328D01*
X183815168Y-182193328D02*
X183815168Y-183479042D01*
X183815168Y-183479042D02*
X183886597Y-183621900D01*
X183886597Y-183621900D02*
X184029454Y-183693328D01*
X184029454Y-183693328D02*
X184172311Y-183693328D01*
X184672311Y-183550471D02*
X184743740Y-183621900D01*
X184743740Y-183621900D02*
X184672311Y-183693328D01*
X184672311Y-183693328D02*
X184600883Y-183621900D01*
X184600883Y-183621900D02*
X184672311Y-183550471D01*
X184672311Y-183550471D02*
X184672311Y-183693328D01*
X184672311Y-182764757D02*
X184743740Y-182836185D01*
X184743740Y-182836185D02*
X184672311Y-182907614D01*
X184672311Y-182907614D02*
X184600883Y-182836185D01*
X184600883Y-182836185D02*
X184672311Y-182764757D01*
X184672311Y-182764757D02*
X184672311Y-182907614D01*
D10*
D11*
X197002200Y-191507200D02*
X197002200Y-194507200D01*
D10*
D11*
X261002200Y-191507200D02*
X261002200Y-198007200D01*
D14*
%TO.P,R2,1*%
%TO.N,Net-(A1-D6)*%
X144966600Y-60387600D03*
D15*
%TO.P,R2,2*%
%TO.N,Net-(D2-A)*%
X144966600Y-55307600D03*
%TD*%
D16*
%TO.P,J5,1,Pin_1*%
%TO.N,Net-(A1-D8)*%
X144316600Y-72497600D03*
D17*
%TO.P,J5,2,Pin_2*%
%TO.N,Net-(A1-D9)*%
X144316600Y-74997600D03*
%TO.P,J5,3,Pin_3*%
%TO.N,Net-(A1-D10)*%
X144316600Y-77497600D03*
%TO.P,J5,4,Pin_4*%
%TO.N,Net-(A1-D11)*%
X144316600Y-79997600D03*
%TO.P,J5,5,Pin_5*%
%TO.N,GND*%
X144316600Y-82497600D03*
%TD*%
D18*
%TO.P,JP3,1,A*%
%TO.N,+5V*%
X181416600Y-67297600D03*
D19*
%TO.P,JP3,2,B*%
%TO.N,Net-(J2-Pin_4)*%
X178876600Y-67297600D03*
%TD*%
D20*
%TO.P,C3,1*%
%TO.N,+5V*%
X176434221Y-41297600D03*
D21*
%TO.P,C3,2*%
%TO.N,GND*%
X178934221Y-41297600D03*
%TD*%
D14*
%TO.P,R3,1*%
%TO.N,Net-(A1-D7)*%
X144216600Y-68127600D03*
D15*
%TO.P,R3,2*%
%TO.N,Net-(D3-A)*%
X144216600Y-63047600D03*
%TD*%
D14*
%TO.P,R1,1*%
%TO.N,Net-(A1-D5)*%
X145262600Y-52684600D03*
D15*
%TO.P,R1,2*%
%TO.N,Net-(D1-A)*%
X145262600Y-47604600D03*
%TD*%
D22*
%TO.P,J3,1,Pin_1*%
%TO.N,Net-(A1-A3)*%
X170166600Y-52797600D03*
D23*
%TO.P,J3,2,Pin_2*%
%TO.N,Net-(A1-A2)*%
X172666600Y-52797600D03*
%TO.P,J3,3,Pin_3*%
%TO.N,unconnected-(J3-Pin_3-Pad3)*%
X175166600Y-52797600D03*
%TO.P,J3,4,Pin_4*%
%TO.N,Net-(J3-Pin_4)*%
X177666600Y-52797600D03*
%TO.P,J3,5,Pin_5*%
%TO.N,GND*%
X180166600Y-52797600D03*
%TD*%
D18*
%TO.P,JP2,1,A*%
%TO.N,+5V*%
X181366600Y-47747600D03*
D19*
%TO.P,JP2,2,B*%
%TO.N,Net-(J3-Pin_4)*%
X178826600Y-47747600D03*
%TD*%
D24*
%TO.P,D3,1,K*%
%TO.N,GND*%
X139674600Y-66137600D03*
D25*
%TO.P,D3,2,A*%
%TO.N,Net-(D3-A)*%
X139674600Y-63597600D03*
%TD*%
D20*
%TO.P,A1,1,D1/TX*%
%TO.N,Net-(A1-D1{slash}TX)*%
X148818600Y-43739600D03*
D26*
%TO.P,A1,2,D0/RX*%
%TO.N,Net-(A1-D0{slash}RX)*%
X148818600Y-46279600D03*
%TO.P,A1,3,~{RESET}*%
%TO.N,unconnected-(A1-~{RESET}-Pad3)*%
X148818600Y-48819600D03*
%TO.P,A1,4,GND*%
%TO.N,GND*%
X148818600Y-51359600D03*
%TO.P,A1,5,D2*%
%TO.N,unconnected-(A1-D2-Pad5)*%
X148818600Y-53899600D03*
%TO.P,A1,6,D3*%
%TO.N,unconnected-(A1-D3-Pad6)*%
X148818600Y-56439600D03*
%TO.P,A1,7,D4*%
%TO.N,unconnected-(A1-D4-Pad7)*%
X148818600Y-58979600D03*
%TO.P,A1,8,D5*%
%TO.N,Net-(A1-D5)*%
X148818600Y-61519600D03*
%TO.P,A1,9,D6*%
%TO.N,Net-(A1-D6)*%
X148818600Y-64059600D03*
%TO.P,A1,10,D7*%
%TO.N,Net-(A1-D7)*%
X148818600Y-66599600D03*
%TO.P,A1,11,D8*%
%TO.N,Net-(A1-D8)*%
X148818600Y-69139600D03*
%TO.P,A1,12,D9*%
%TO.N,Net-(A1-D9)*%
X148818600Y-71679600D03*
%TO.P,A1,13,D10*%
%TO.N,Net-(A1-D10)*%
X148818600Y-74219600D03*
%TO.P,A1,14,D11*%
%TO.N,Net-(A1-D11)*%
X148818600Y-76759600D03*
%TO.P,A1,15,D12*%
%TO.N,unconnected-(A1-D12-Pad15)*%
X148818600Y-79299600D03*
%TO.P,A1,16,D13*%
%TO.N,unconnected-(A1-D13-Pad16)*%
X164058600Y-79299600D03*
%TO.P,A1,17,3V3*%
%TO.N,unconnected-(A1-3V3-Pad17)*%
X164058600Y-76759600D03*
%TO.P,A1,18,AREF*%
%TO.N,unconnected-(A1-AREF-Pad18)*%
X164058600Y-74219600D03*
%TO.P,A1,19,A0*%
%TO.N,Net-(A1-A0)*%
X164058600Y-71679600D03*
%TO.P,A1,20,A1*%
%TO.N,Net-(A1-A1)*%
X164058600Y-69139600D03*
%TO.P,A1,21,A2*%
%TO.N,Net-(A1-A2)*%
X164058600Y-66599600D03*
%TO.P,A1,22,A3*%
%TO.N,Net-(A1-A3)*%
X164058600Y-64059600D03*
%TO.P,A1,23,A4*%
%TO.N,unconnected-(A1-A4-Pad23)*%
X164058600Y-61519600D03*
%TO.P,A1,24,A5*%
%TO.N,unconnected-(A1-A5-Pad24)*%
X164058600Y-58979600D03*
%TO.P,A1,25,A6*%
%TO.N,unconnected-(A1-A6-Pad25)*%
X164058600Y-56439600D03*
%TO.P,A1,26,A7*%
%TO.N,unconnected-(A1-A7-Pad26)*%
X164058600Y-53899600D03*
%TO.P,A1,27,+5V*%
%TO.N,+5V*%
X164058600Y-51359600D03*
%TO.P,A1,28,~{RESET}*%
%TO.N,unconnected-(A1-~{RESET}-Pad28)*%
X164058600Y-48819600D03*
%TO.P,A1,29,GND*%
%TO.N,GND*%
X164058600Y-46279600D03*
%TO.P,A1,30,VIN*%
%TO.N,+5V*%
X164058600Y-43739600D03*
%TD*%
D27*
%TO.P,H4,1*%
%TO.N,N/C*%
X180641600Y-83523600D03*
X181190775Y-82197775D03*
X181190775Y-84849425D03*
X182516600Y-81648600D03*
D28*
X182516600Y-83523600D03*
D27*
X182516600Y-85398600D03*
X183842425Y-82197775D03*
X183842425Y-84849425D03*
X184391600Y-83523600D03*
%TD*%
%TO.P,H2,1*%
%TO.N,N/C*%
X136109000Y-83523600D03*
X136658175Y-82197775D03*
X136658175Y-84849425D03*
X137984000Y-81648600D03*
D28*
X137984000Y-83523600D03*
D27*
X137984000Y-85398600D03*
X139309825Y-82197775D03*
X139309825Y-84849425D03*
X139859000Y-83523600D03*
%TD*%
D24*
%TO.P,D1,1,K*%
%TO.N,GND*%
X139674600Y-50144600D03*
D25*
%TO.P,D1,2,A*%
%TO.N,Net-(D1-A)*%
X139674600Y-47604600D03*
%TD*%
D29*
%TO.P,U2,EN,EN*%
%TO.N,unconnected-(U2-PadEN)*%
X162026600Y-34899600D03*
%TO.P,U2,GND,GND*%
%TO.N,GND*%
X162026600Y-29819600D03*
%TO.P,U2,IN+,IN+*%
%TO.N,Net-(JP1-A)*%
X162026600Y-32359600D03*
%TO.P,U2,VO+,VO+*%
%TO.N,+5V*%
X162026600Y-27279600D03*
%TD*%
D22*
%TO.P,J2,1,Pin_1*%
%TO.N,Net-(A1-A1)*%
X170166600Y-60847600D03*
D23*
%TO.P,J2,2,Pin_2*%
%TO.N,Net-(A1-A0)*%
X172666600Y-60847600D03*
%TO.P,J2,3,Pin_3*%
%TO.N,unconnected-(J2-Pin_3-Pad3)*%
X175166600Y-60847600D03*
%TO.P,J2,4,Pin_4*%
%TO.N,Net-(J2-Pin_4)*%
X177666600Y-60847600D03*
%TO.P,J2,5,Pin_5*%
%TO.N,GND*%
X180166600Y-60847600D03*
%TD*%
D27*
%TO.P,H3,1*%
%TO.N,N/C*%
X136109000Y-27723600D03*
X136658175Y-26397775D03*
X136658175Y-29049425D03*
X137984000Y-25848600D03*
D28*
X137984000Y-27723600D03*
D27*
X137984000Y-29598600D03*
X139309825Y-26397775D03*
X139309825Y-29049425D03*
X139859000Y-27723600D03*
%TD*%
D16*
%TO.P,J4,1,Pin_1*%
%TO.N,Net-(A1-D1{slash}TX)*%
X139674600Y-34797600D03*
D17*
%TO.P,J4,2,Pin_2*%
%TO.N,Net-(A1-D0{slash}RX)*%
X139674600Y-37297600D03*
%TO.P,J4,3,Pin_3*%
%TO.N,GND*%
X139674600Y-39797600D03*
%TD*%
D18*
%TO.P,JP1,1,A*%
%TO.N,Net-(JP1-A)*%
X178216600Y-34632600D03*
D19*
%TO.P,JP1,2,B*%
%TO.N,Net-(J1-Pin_2)*%
X178216600Y-32092600D03*
%TD*%
D24*
%TO.P,D2,1,K*%
%TO.N,GND*%
X139674600Y-57887600D03*
D25*
%TO.P,D2,2,A*%
%TO.N,Net-(D2-A)*%
X139674600Y-55347600D03*
%TD*%
D27*
%TO.P,H1,1*%
%TO.N,N/C*%
X180641600Y-27723600D03*
X181190775Y-26397775D03*
X181190775Y-29049425D03*
X182516600Y-25848600D03*
D28*
X182516600Y-27723600D03*
D27*
X182516600Y-29598600D03*
X183842425Y-26397775D03*
X183842425Y-29049425D03*
X184391600Y-27723600D03*
%TD*%
D30*
%TO.P,J1,1,Pin_1*%
%TO.N,GND*%
X172366600Y-31047600D03*
D31*
%TO.P,J1,2,Pin_2*%
%TO.N,Net-(J1-Pin_2)*%
X167366600Y-31047600D03*
%TD*%
D20*
%TO.P,C1,1*%
%TO.N,Net-(JP1-A)*%
X168766600Y-41297600D03*
D21*
%TO.P,C1,2*%
%TO.N,GND*%
X171266600Y-41297600D03*
%TD*%
D32*
%TO.N,GND*%
X137366600Y-64547600D02*
X137366600Y-60147600D01*
X139156600Y-58187600D02*
X137316600Y-56347600D01*
X144316600Y-82497600D02*
X144266600Y-82547600D01*
X138956600Y-66137600D02*
X137366600Y-64547600D01*
X137316600Y-52502600D02*
X139674600Y-50144600D01*
X144266600Y-82547600D02*
X143091600Y-82547600D01*
X137366600Y-60147600D02*
X139626600Y-57887600D01*
X148818600Y-51359600D02*
X147687230Y-51359600D01*
X137316600Y-56347600D02*
X137316600Y-52502600D01*
X139666600Y-58187600D02*
X139156600Y-58187600D01*
X146472230Y-50144600D02*
X139674600Y-50144600D01*
X143091600Y-82547600D02*
X139674600Y-79130600D01*
X139674600Y-79130600D02*
X139674600Y-66137600D01*
X139674600Y-66137600D02*
X138956600Y-66137600D01*
X139626600Y-57887600D02*
X139674600Y-57887600D01*
X147687230Y-51359600D02*
X146472230Y-50144600D01*
%TO.N,Net-(A1-A3)*%
X165189970Y-64059600D02*
X166215600Y-63033970D01*
X166215600Y-56748600D02*
X170166600Y-52797600D01*
X166215600Y-63033970D02*
X166215600Y-56748600D01*
X164058600Y-64059600D02*
X165189970Y-64059600D01*
%TO.N,Net-(A1-A0)*%
X172666600Y-64647600D02*
X165634600Y-71679600D01*
X165634600Y-71679600D02*
X164058600Y-71679600D01*
X172666600Y-60847600D02*
X172666600Y-64647600D01*
%TO.N,Net-(A1-D6)*%
X144966600Y-61338970D02*
X144966600Y-60387600D01*
X148818600Y-64059600D02*
X147687230Y-64059600D01*
X147687230Y-64059600D02*
X144966600Y-61338970D01*
X148768600Y-64109600D02*
X148818600Y-64059600D01*
%TO.N,Net-(A1-A2)*%
X164058600Y-66599600D02*
X165189970Y-66599600D01*
X167716600Y-64072970D02*
X167716600Y-59447600D01*
X172666600Y-54497600D02*
X172666600Y-52797600D01*
X165189970Y-66599600D02*
X167716600Y-64072970D01*
X167716600Y-59447600D02*
X172666600Y-54497600D01*
%TO.N,Net-(A1-D5)*%
X146816600Y-60648970D02*
X146816600Y-54238600D01*
X146816600Y-54238600D02*
X145262600Y-52684600D01*
X148818600Y-61519600D02*
X147687230Y-61519600D01*
X147687230Y-61519600D02*
X146816600Y-60648970D01*
%TO.N,Net-(A1-D9)*%
X146292600Y-73571600D02*
X148184600Y-71679600D01*
X145566708Y-74348600D02*
X146292600Y-73622708D01*
X146292600Y-73622708D02*
X146292600Y-73571600D01*
X145515600Y-74348600D02*
X145566708Y-74348600D01*
X148184600Y-71679600D02*
X148818600Y-71679600D01*
X144316600Y-74997600D02*
X144366600Y-75047600D01*
X144816600Y-75047600D02*
X145515600Y-74348600D01*
X144366600Y-75047600D02*
X144816600Y-75047600D01*
%TO.N,+5V*%
X155916600Y-35597600D02*
X164058600Y-43739600D01*
X164058600Y-51359600D02*
X165054600Y-51359600D01*
X171066600Y-69947600D02*
X179866600Y-69947600D01*
X166916600Y-74097600D02*
X171066600Y-69947600D01*
X181366600Y-47747600D02*
X181366600Y-46197600D01*
X164058600Y-51359600D02*
X162304600Y-51359600D01*
X161466600Y-52197600D02*
X161466600Y-80097600D01*
X162026600Y-27279600D02*
X157039850Y-27279600D01*
X174766600Y-43747600D02*
X176434221Y-42079979D01*
X165416600Y-81197600D02*
X166916600Y-79697600D01*
X181466600Y-67347600D02*
X181416600Y-67297600D01*
X162566600Y-81197600D02*
X165416600Y-81197600D01*
X174766600Y-43747600D02*
X174758600Y-43739600D01*
X181466600Y-68347600D02*
X181466600Y-67347600D01*
X180166600Y-44997600D02*
X179166600Y-44997600D01*
X164558600Y-43739600D02*
X164058600Y-43739600D01*
X157039850Y-27279600D02*
X155916600Y-28402850D01*
X165189970Y-43739600D02*
X164058600Y-43739600D01*
X176434221Y-42079979D02*
X176434221Y-41297600D01*
X166916600Y-79697600D02*
X166916600Y-74097600D01*
X179866600Y-69947600D02*
X181466600Y-68347600D01*
X179166600Y-44997600D02*
X176434221Y-42265221D01*
X162304600Y-51359600D02*
X161466600Y-52197600D01*
X155916600Y-28402850D02*
X155916600Y-35597600D01*
X164058600Y-51359600D02*
X162204600Y-51359600D01*
X161466600Y-80097600D02*
X162566600Y-81197600D01*
X174758600Y-43739600D02*
X164058600Y-43739600D01*
X176434221Y-42265221D02*
X176434221Y-41297600D01*
X165054600Y-51359600D02*
X166666600Y-49747600D01*
X166666600Y-49747600D02*
X166666600Y-45847600D01*
X166666600Y-45847600D02*
X164558600Y-43739600D01*
X181366600Y-46197600D02*
X180166600Y-44997600D01*
%TO.N,Net-(A1-D10)*%
X144316600Y-77497600D02*
X144366600Y-77547600D01*
X145066600Y-77547600D02*
X148394600Y-74219600D01*
X148394600Y-74219600D02*
X148818600Y-74219600D01*
X144366600Y-77547600D02*
X145066600Y-77547600D01*
%TO.N,Net-(A1-D7)*%
X148768600Y-66649600D02*
X148818600Y-66599600D01*
X145744600Y-66599600D02*
X148818600Y-66599600D01*
X144216600Y-68127600D02*
X145744600Y-66599600D01*
%TO.N,Net-(A1-A1)*%
X170166600Y-64397600D02*
X165424600Y-69139600D01*
X170166600Y-60847600D02*
X170166600Y-64397600D01*
X164108600Y-69189600D02*
X164058600Y-69139600D01*
X165424600Y-69139600D02*
X164058600Y-69139600D01*
%TO.N,Net-(A1-D11)*%
X144316600Y-79997600D02*
X144366600Y-80047600D01*
X148404600Y-76759600D02*
X148818600Y-76759600D01*
X145116600Y-80047600D02*
X148404600Y-76759600D01*
X144366600Y-80047600D02*
X145116600Y-80047600D01*
%TO.N,Net-(A1-D0{slash}RX)*%
X148818600Y-46279600D02*
X147687230Y-46279600D01*
X146466600Y-45058970D02*
X146466600Y-42597600D01*
X147687230Y-46279600D02*
X146466600Y-45058970D01*
X141166600Y-37297600D02*
X139674600Y-37297600D01*
X146466600Y-42597600D02*
X141166600Y-37297600D01*
%TO.N,Net-(A1-D1{slash}TX)*%
X141676600Y-34797600D02*
X139674600Y-34797600D01*
X148818600Y-41939600D02*
X141676600Y-34797600D01*
X148818600Y-43739600D02*
X148818600Y-41939600D01*
%TO.N,Net-(JP1-A)*%
X159016600Y-35822000D02*
X159016600Y-33797600D01*
X164442200Y-41247600D02*
X160442200Y-37247600D01*
X174416600Y-37747600D02*
X172066600Y-37747600D01*
X177531600Y-34632600D02*
X174416600Y-37747600D01*
X168816600Y-41247600D02*
X168766600Y-41297600D01*
X160442200Y-37247600D02*
X159016600Y-35822000D01*
X168766600Y-41047600D02*
X168766600Y-41297600D01*
X160454600Y-32359600D02*
X162026600Y-32359600D01*
X168766600Y-41247600D02*
X164442200Y-41247600D01*
X178216600Y-34632600D02*
X177531600Y-34632600D01*
X172066600Y-37747600D02*
X168766600Y-41047600D01*
X159016600Y-33797600D02*
X160454600Y-32359600D01*
%TO.N,Net-(D1-A)*%
X139674600Y-47604600D02*
X145262600Y-47604600D01*
%TO.N,Net-(D2-A)*%
X144966600Y-55307600D02*
X144905600Y-55246600D01*
X139666600Y-55647600D02*
X140016600Y-55297600D01*
X144956600Y-55297600D02*
X144966600Y-55307600D01*
X140016600Y-55297600D02*
X144956600Y-55297600D01*
%TO.N,Net-(D3-A)*%
X144216600Y-63047600D02*
X140224600Y-63047600D01*
X140224600Y-63047600D02*
X139674600Y-63597600D01*
%TO.N,Net-(J1-Pin_2)*%
X178216600Y-30897600D02*
X178216600Y-32092600D01*
X175380600Y-28061600D02*
X178216600Y-30897600D01*
X167366600Y-31047600D02*
X167366600Y-29697600D01*
X167366600Y-29697600D02*
X169002600Y-28061600D01*
X169002600Y-28061600D02*
X175380600Y-28061600D01*
%TO.N,Net-(J2-Pin_4)*%
X177666600Y-66087600D02*
X177666600Y-60847600D01*
X178876600Y-67297600D02*
X177666600Y-66087600D01*
%TO.N,Net-(J3-Pin_4)*%
X177666600Y-52797600D02*
X177666600Y-48907600D01*
X177666600Y-48907600D02*
X178826600Y-47747600D01*
%TO.N,Net-(A1-D8)*%
X144316600Y-72497600D02*
X144316600Y-71647600D01*
X144316600Y-71647600D02*
X146824600Y-69139600D01*
X146824600Y-69139600D02*
X148818600Y-69139600D01*
%TD*%
%TA.AperFunction,Conductor*%
%TO.N,GND*%
G36*
X180019287Y-24971739D02*
G01*
X180086221Y-24991768D01*
X180131703Y-25044807D01*
X180141290Y-25114016D01*
X180111938Y-25177421D01*
X180106326Y-25183417D01*
X179919776Y-25369967D01*
X179701585Y-25635834D01*
X179701575Y-25635848D01*
X179510504Y-25921806D01*
X179510493Y-25921824D01*
X179348372Y-26225130D01*
X179348370Y-26225135D01*
X179216750Y-26542893D01*
X179116908Y-26872027D01*
X179049810Y-27209350D01*
X179016100Y-27551634D01*
X179016100Y-27895565D01*
X179049810Y-28237849D01*
X179116908Y-28575172D01*
X179216750Y-28904306D01*
X179348370Y-29222064D01*
X179348372Y-29222069D01*
X179510493Y-29525375D01*
X179510504Y-29525393D01*
X179701575Y-29811351D01*
X179701585Y-29811365D01*
X179919776Y-30077232D01*
X180162967Y-30320423D01*
X180162972Y-30320427D01*
X180162973Y-30320428D01*
X180428840Y-30538619D01*
X180714813Y-30729700D01*
X180714822Y-30729705D01*
X180714824Y-30729706D01*
X181018130Y-30891827D01*
X181018132Y-30891827D01*
X181018138Y-30891831D01*
X181335895Y-31023450D01*
X181665022Y-31123290D01*
X182002350Y-31190389D01*
X182344631Y-31224100D01*
X182344634Y-31224100D01*
X182688566Y-31224100D01*
X182688569Y-31224100D01*
X183030850Y-31190389D01*
X183368178Y-31123290D01*
X183697305Y-31023450D01*
X184015062Y-30891831D01*
X184318387Y-30729700D01*
X184604360Y-30538619D01*
X184870227Y-30320428D01*
X185113428Y-30077227D01*
X185280148Y-29874077D01*
X185337892Y-29834744D01*
X185407737Y-29832873D01*
X185467505Y-29869060D01*
X185498221Y-29931816D01*
X185500000Y-29952743D01*
X185500000Y-81294456D01*
X185480315Y-81361495D01*
X185427511Y-81407250D01*
X185358353Y-81417194D01*
X185294797Y-81388169D01*
X185280147Y-81373121D01*
X185208793Y-81286175D01*
X185113428Y-81169973D01*
X185113427Y-81169972D01*
X185113423Y-81169967D01*
X184870232Y-80926776D01*
X184604365Y-80708585D01*
X184604364Y-80708584D01*
X184604360Y-80708581D01*
X184318387Y-80517500D01*
X184318382Y-80517497D01*
X184318375Y-80517493D01*
X184015069Y-80355372D01*
X184015064Y-80355370D01*
X183697306Y-80223750D01*
X183368172Y-80123908D01*
X183030848Y-80056810D01*
X183030849Y-80056810D01*
X182773056Y-80031421D01*
X182688569Y-80023100D01*
X182344631Y-80023100D01*
X182266566Y-80030788D01*
X182002350Y-80056810D01*
X181665027Y-80123908D01*
X181335893Y-80223750D01*
X181018135Y-80355370D01*
X181018130Y-80355372D01*
X180714824Y-80517493D01*
X180714806Y-80517504D01*
X180428848Y-80708575D01*
X180428834Y-80708585D01*
X180162967Y-80926776D01*
X179919776Y-81169967D01*
X179701585Y-81435834D01*
X179701575Y-81435848D01*
X179510504Y-81721806D01*
X179510493Y-81721824D01*
X179348372Y-82025130D01*
X179348370Y-82025135D01*
X179216750Y-82342893D01*
X179116908Y-82672027D01*
X179049810Y-83009350D01*
X179016100Y-83351634D01*
X179016100Y-83695565D01*
X179049810Y-84037849D01*
X179116908Y-84375172D01*
X179216750Y-84704306D01*
X179348370Y-85022064D01*
X179348372Y-85022069D01*
X179510493Y-85325375D01*
X179510504Y-85325393D01*
X179701575Y-85611351D01*
X179701585Y-85611365D01*
X179919776Y-85877232D01*
X180162967Y-86120423D01*
X180406332Y-86320147D01*
X180445666Y-86377892D01*
X180447537Y-86447737D01*
X180411350Y-86507505D01*
X180348594Y-86538221D01*
X180327667Y-86540000D01*
X140172933Y-86540000D01*
X140105894Y-86520315D01*
X140060139Y-86467511D01*
X140050195Y-86398353D01*
X140079220Y-86334797D01*
X140094268Y-86320147D01*
X140337627Y-86120428D01*
X140580828Y-85877227D01*
X140799019Y-85611360D01*
X140990100Y-85325387D01*
X141152231Y-85022062D01*
X141283850Y-84704305D01*
X141383690Y-84375178D01*
X141450789Y-84037850D01*
X141484500Y-83695569D01*
X141484500Y-83351631D01*
X141450789Y-83009350D01*
X141383690Y-82672022D01*
X141283850Y-82342895D01*
X141152231Y-82025138D01*
X141007119Y-81753654D01*
X140990106Y-81721824D01*
X140990105Y-81721822D01*
X140990100Y-81721813D01*
X140799019Y-81435840D01*
X140580828Y-81169973D01*
X140580827Y-81169972D01*
X140580823Y-81169967D01*
X140337632Y-80926776D01*
X140071765Y-80708585D01*
X140071764Y-80708584D01*
X140071760Y-80708581D01*
X139785787Y-80517500D01*
X139785782Y-80517497D01*
X139785775Y-80517493D01*
X139482469Y-80355372D01*
X139482464Y-80355370D01*
X139164706Y-80223750D01*
X138835572Y-80123908D01*
X138498248Y-80056810D01*
X138498249Y-80056810D01*
X138240456Y-80031421D01*
X138155969Y-80023100D01*
X137812031Y-80023100D01*
X137733966Y-80030788D01*
X137469750Y-80056810D01*
X137132427Y-80123908D01*
X136803293Y-80223750D01*
X136485535Y-80355370D01*
X136485530Y-80355372D01*
X136182224Y-80517493D01*
X136182206Y-80517504D01*
X135896248Y-80708575D01*
X135896234Y-80708585D01*
X135630367Y-80926776D01*
X135387176Y-81169967D01*
X135219853Y-81373852D01*
X135162108Y-81413186D01*
X135092263Y-81415057D01*
X135032495Y-81378870D01*
X135001779Y-81316114D01*
X135000000Y-81295187D01*
X135000000Y-55223041D01*
X137774100Y-55223041D01*
X137774100Y-55472158D01*
X137774101Y-55472175D01*
X137806617Y-55719161D01*
X137871098Y-55959807D01*
X137966430Y-56189961D01*
X137966437Y-56189976D01*
X138091000Y-56405726D01*
X138242660Y-56603374D01*
X138242666Y-56603381D01*
X138418818Y-56779533D01*
X138418825Y-56779539D01*
X138616473Y-56931199D01*
X138832223Y-57055762D01*
X138832238Y-57055769D01*
X138931425Y-57096853D01*
X139062393Y-57151102D01*
X139303035Y-57215582D01*
X139550035Y-57248100D01*
X139550042Y-57248100D01*
X139799158Y-57248100D01*
X139799165Y-57248100D01*
X140046165Y-57215582D01*
X140286807Y-57151102D01*
X140516973Y-57055764D01*
X140732727Y-56931199D01*
X140872792Y-56823723D01*
X140937960Y-56798530D01*
X140948277Y-56798100D01*
X144113995Y-56798100D01*
X144175994Y-56814712D01*
X144212874Y-56836005D01*
X144418819Y-56921310D01*
X144634137Y-56979004D01*
X144855143Y-57008100D01*
X144855150Y-57008100D01*
X145078050Y-57008100D01*
X145078057Y-57008100D01*
X145175917Y-56995216D01*
X145244949Y-57005981D01*
X145297205Y-57052361D01*
X145316100Y-57118155D01*
X145316100Y-58577044D01*
X145296415Y-58644083D01*
X145243611Y-58689838D01*
X145175915Y-58699983D01*
X145078067Y-58687101D01*
X145078062Y-58687100D01*
X145078057Y-58687100D01*
X144855143Y-58687100D01*
X144855137Y-58687100D01*
X144855133Y-58687101D01*
X144634147Y-58716194D01*
X144634140Y-58716195D01*
X144634137Y-58716196D01*
X144580929Y-58730453D01*
X144418819Y-58773890D01*
X144418809Y-58773893D01*
X144212877Y-58859193D01*
X144212873Y-58859195D01*
X144019826Y-58970652D01*
X144019817Y-58970658D01*
X143842977Y-59106351D01*
X143842970Y-59106357D01*
X143685357Y-59263970D01*
X143685351Y-59263977D01*
X143549658Y-59440817D01*
X143549652Y-59440826D01*
X143438195Y-59633873D01*
X143438193Y-59633877D01*
X143352893Y-59839809D01*
X143352890Y-59839819D01*
X143314779Y-59982054D01*
X143295197Y-60055134D01*
X143295194Y-60055147D01*
X143266101Y-60276133D01*
X143266100Y-60276149D01*
X143266100Y-60499050D01*
X143266101Y-60499066D01*
X143295194Y-60720052D01*
X143295195Y-60720057D01*
X143295196Y-60720063D01*
X143295197Y-60720065D01*
X143352890Y-60935380D01*
X143352893Y-60935390D01*
X143438190Y-61141316D01*
X143438192Y-61141320D01*
X143438195Y-61141326D01*
X143449488Y-61160885D01*
X143453638Y-61176373D01*
X143461077Y-61187949D01*
X143466100Y-61222884D01*
X143466100Y-61423100D01*
X143446415Y-61490139D01*
X143393611Y-61535894D01*
X143342100Y-61547100D01*
X140106503Y-61547100D01*
X139873231Y-61584046D01*
X139749862Y-61624132D01*
X139742637Y-61626480D01*
X139648607Y-61657032D01*
X139590342Y-61686719D01*
X139584791Y-61688906D01*
X139574526Y-61689828D01*
X139553918Y-61695499D01*
X139554059Y-61696570D01*
X139303038Y-61729617D01*
X139062392Y-61794098D01*
X138832238Y-61889430D01*
X138832223Y-61889437D01*
X138616473Y-62014000D01*
X138418825Y-62165660D01*
X138418818Y-62165666D01*
X138242666Y-62341818D01*
X138242660Y-62341825D01*
X138091000Y-62539473D01*
X137966437Y-62755223D01*
X137966430Y-62755238D01*
X137871098Y-62985392D01*
X137806617Y-63226038D01*
X137774101Y-63473024D01*
X137774100Y-63473041D01*
X137774100Y-63722158D01*
X137774101Y-63722175D01*
X137802987Y-63941589D01*
X137806618Y-63969165D01*
X137871098Y-64209807D01*
X137966430Y-64439961D01*
X137966437Y-64439976D01*
X138091000Y-64655726D01*
X138242660Y-64853374D01*
X138242666Y-64853381D01*
X138418818Y-65029533D01*
X138418825Y-65029539D01*
X138616473Y-65181199D01*
X138832223Y-65305762D01*
X138832238Y-65305769D01*
X138857559Y-65316257D01*
X139062393Y-65401102D01*
X139303035Y-65465582D01*
X139550035Y-65498100D01*
X139550042Y-65498100D01*
X139799158Y-65498100D01*
X139799165Y-65498100D01*
X140046165Y-65465582D01*
X140286807Y-65401102D01*
X140516973Y-65305764D01*
X140732727Y-65181199D01*
X140930376Y-65029538D01*
X141106538Y-64853376D01*
X141258199Y-64655727D01*
X141284542Y-64610100D01*
X141335109Y-64561885D01*
X141391929Y-64548100D01*
X143381316Y-64548100D01*
X143443314Y-64564712D01*
X143462874Y-64576005D01*
X143668819Y-64661310D01*
X143884137Y-64719004D01*
X144105143Y-64748100D01*
X144105150Y-64748100D01*
X144328050Y-64748100D01*
X144328057Y-64748100D01*
X144549063Y-64719004D01*
X144764381Y-64661310D01*
X144970326Y-64576005D01*
X145163374Y-64464548D01*
X145340224Y-64328847D01*
X145497847Y-64171224D01*
X145497850Y-64171219D01*
X145499655Y-64169415D01*
X145560979Y-64135930D01*
X145630670Y-64140914D01*
X145675018Y-64169415D01*
X146393022Y-64887419D01*
X146426507Y-64948742D01*
X146421523Y-65018434D01*
X146379651Y-65074367D01*
X146314187Y-65098784D01*
X146305341Y-65099100D01*
X145626503Y-65099100D01*
X145393231Y-65136046D01*
X145274632Y-65174582D01*
X145245547Y-65184033D01*
X145245546Y-65184033D01*
X145168612Y-65209029D01*
X144958165Y-65316257D01*
X144767088Y-65455084D01*
X144767087Y-65455085D01*
X143746221Y-66475950D01*
X143690638Y-66508043D01*
X143675371Y-66512134D01*
X143668819Y-66513890D01*
X143668817Y-66513890D01*
X143668816Y-66513891D01*
X143462882Y-66599190D01*
X143462873Y-66599195D01*
X143269826Y-66710652D01*
X143269817Y-66710658D01*
X143092977Y-66846351D01*
X143092970Y-66846357D01*
X142935357Y-67003970D01*
X142935351Y-67003977D01*
X142799658Y-67180817D01*
X142799652Y-67180826D01*
X142688195Y-67373873D01*
X142688193Y-67373877D01*
X142602893Y-67579809D01*
X142602890Y-67579819D01*
X142545197Y-67795134D01*
X142545194Y-67795147D01*
X142516101Y-68016133D01*
X142516100Y-68016149D01*
X142516100Y-68239050D01*
X142516101Y-68239066D01*
X142545194Y-68460052D01*
X142545195Y-68460057D01*
X142545196Y-68460063D01*
X142571869Y-68559607D01*
X142602890Y-68675380D01*
X142602893Y-68675390D01*
X142688193Y-68881322D01*
X142688195Y-68881326D01*
X142799652Y-69074374D01*
X142799657Y-69074380D01*
X142799658Y-69074382D01*
X142935351Y-69251222D01*
X142935357Y-69251229D01*
X143092970Y-69408842D01*
X143092976Y-69408847D01*
X143269826Y-69544548D01*
X143462874Y-69656005D01*
X143668819Y-69741310D01*
X143802107Y-69777024D01*
X143861766Y-69813388D01*
X143892295Y-69876235D01*
X143884000Y-69945610D01*
X143857693Y-69984479D01*
X143172082Y-70670090D01*
X143172075Y-70670098D01*
X143142944Y-70710194D01*
X143093909Y-70750207D01*
X142971972Y-70805593D01*
X142971966Y-70805596D01*
X142786954Y-70933774D01*
X142786942Y-70933784D01*
X142627784Y-71092942D01*
X142627774Y-71092954D01*
X142499597Y-71277967D01*
X142499591Y-71277977D01*
X142406503Y-71482918D01*
X142406502Y-71482921D01*
X142351505Y-71701179D01*
X142351504Y-71701186D01*
X142341100Y-71833377D01*
X142341100Y-73161808D01*
X142341101Y-73161823D01*
X142351504Y-73294013D01*
X142351505Y-73294020D01*
X142406502Y-73512278D01*
X142406503Y-73512281D01*
X142499591Y-73717222D01*
X142499597Y-73717232D01*
X142615463Y-73884476D01*
X142637460Y-73950793D01*
X142620922Y-74017092D01*
X142528377Y-74177384D01*
X142528373Y-74177394D01*
X142435547Y-74401495D01*
X142372761Y-74635814D01*
X142351200Y-74799593D01*
X142341100Y-74876312D01*
X142341100Y-75118888D01*
X142372762Y-75359389D01*
X142386999Y-75412520D01*
X142435547Y-75593704D01*
X142503247Y-75757145D01*
X142528376Y-75817812D01*
X142649664Y-76027889D01*
X142649666Y-76027892D01*
X142649667Y-76027893D01*
X142760331Y-76172114D01*
X142785525Y-76237283D01*
X142771487Y-76305728D01*
X142760331Y-76323086D01*
X142649667Y-76467306D01*
X142528377Y-76677385D01*
X142528373Y-76677394D01*
X142435547Y-76901495D01*
X142372761Y-77135814D01*
X142341100Y-77376311D01*
X142341100Y-77618888D01*
X142372761Y-77859385D01*
X142435547Y-78093704D01*
X142528373Y-78317805D01*
X142528376Y-78317812D01*
X142649664Y-78527889D01*
X142649666Y-78527892D01*
X142649667Y-78527893D01*
X142760331Y-78672114D01*
X142785525Y-78737283D01*
X142771487Y-78805728D01*
X142760331Y-78823086D01*
X142649667Y-78967306D01*
X142528377Y-79177385D01*
X142528373Y-79177394D01*
X142435547Y-79401495D01*
X142372761Y-79635814D01*
X142341100Y-79876311D01*
X142341100Y-80118888D01*
X142372761Y-80359385D01*
X142435547Y-80593704D01*
X142520944Y-80799869D01*
X142528376Y-80817812D01*
X142649664Y-81027889D01*
X142649666Y-81027892D01*
X142649667Y-81027893D01*
X142797333Y-81220336D01*
X142797339Y-81220343D01*
X142968856Y-81391860D01*
X142968863Y-81391866D01*
X143026171Y-81435840D01*
X143161311Y-81539536D01*
X143371388Y-81660824D01*
X143595500Y-81753654D01*
X143829811Y-81816438D01*
X144010186Y-81840184D01*
X144070311Y-81848100D01*
X144070312Y-81848100D01*
X144562889Y-81848100D01*
X144610988Y-81841767D01*
X144803389Y-81816438D01*
X145037700Y-81753654D01*
X145261812Y-81660824D01*
X145471889Y-81539536D01*
X145522023Y-81501065D01*
X145559188Y-81481512D01*
X145692592Y-81438168D01*
X145903034Y-81330943D01*
X146094110Y-81192117D01*
X147081753Y-80204472D01*
X147143074Y-80170989D01*
X147212765Y-80175973D01*
X147268699Y-80217844D01*
X147276814Y-80230147D01*
X147318327Y-80302050D01*
X147318329Y-80302053D01*
X147318330Y-80302054D01*
X147462006Y-80489297D01*
X147462012Y-80489304D01*
X147628895Y-80656187D01*
X147628901Y-80656192D01*
X147816150Y-80799873D01*
X147947518Y-80875718D01*
X148020543Y-80917880D01*
X148020548Y-80917882D01*
X148020551Y-80917884D01*
X148238607Y-81008206D01*
X148466586Y-81069293D01*
X148700589Y-81100100D01*
X148700596Y-81100100D01*
X148936604Y-81100100D01*
X148936611Y-81100100D01*
X149170614Y-81069293D01*
X149398593Y-81008206D01*
X149616649Y-80917884D01*
X149821050Y-80799873D01*
X150008299Y-80656192D01*
X150175192Y-80489299D01*
X150318873Y-80302050D01*
X150436884Y-80097649D01*
X150527206Y-79879593D01*
X150588293Y-79651614D01*
X150619100Y-79417611D01*
X150619100Y-79181589D01*
X150588293Y-78947586D01*
X150527206Y-78719607D01*
X150436884Y-78501551D01*
X150436882Y-78501548D01*
X150436880Y-78501543D01*
X150394718Y-78428518D01*
X150318873Y-78297150D01*
X150176100Y-78111084D01*
X150172721Y-78106680D01*
X150173886Y-78105785D01*
X150147069Y-78047981D01*
X150156598Y-77978765D01*
X150173219Y-77952902D01*
X150172721Y-77952520D01*
X150244185Y-77859385D01*
X150318873Y-77762050D01*
X150436884Y-77557649D01*
X150527206Y-77339593D01*
X150588293Y-77111614D01*
X150619100Y-76877611D01*
X150619100Y-76641589D01*
X150588293Y-76407586D01*
X150527206Y-76179607D01*
X150436884Y-75961551D01*
X150436882Y-75961548D01*
X150436880Y-75961543D01*
X150353892Y-75817805D01*
X150318873Y-75757150D01*
X150176100Y-75571084D01*
X150172721Y-75566680D01*
X150173886Y-75565785D01*
X150147069Y-75507981D01*
X150156598Y-75438765D01*
X150173219Y-75412902D01*
X150172721Y-75412520D01*
X150227414Y-75341241D01*
X150318873Y-75222050D01*
X150436884Y-75017649D01*
X150527206Y-74799593D01*
X150588293Y-74571614D01*
X150619100Y-74337611D01*
X150619100Y-74101589D01*
X150588293Y-73867586D01*
X150527206Y-73639607D01*
X150436884Y-73421551D01*
X150436882Y-73421548D01*
X150436880Y-73421543D01*
X150373153Y-73311166D01*
X150318873Y-73217150D01*
X150276408Y-73161808D01*
X150172721Y-73026680D01*
X150173886Y-73025785D01*
X150147069Y-72967981D01*
X150156598Y-72898765D01*
X150173219Y-72872902D01*
X150172721Y-72872520D01*
X150227414Y-72801241D01*
X150318873Y-72682050D01*
X150436884Y-72477649D01*
X150527206Y-72259593D01*
X150588293Y-72031614D01*
X150619100Y-71797611D01*
X150619100Y-71561589D01*
X150588293Y-71327586D01*
X150527206Y-71099607D01*
X150436884Y-70881551D01*
X150436882Y-70881548D01*
X150436880Y-70881543D01*
X150361052Y-70750207D01*
X150318873Y-70677150D01*
X150285705Y-70633925D01*
X150172721Y-70486680D01*
X150173886Y-70485785D01*
X150147069Y-70427981D01*
X150156598Y-70358765D01*
X150173219Y-70332902D01*
X150172721Y-70332520D01*
X150227414Y-70261241D01*
X150318873Y-70142050D01*
X150436884Y-69937649D01*
X150527206Y-69719593D01*
X150588293Y-69491614D01*
X150619100Y-69257611D01*
X150619100Y-69021589D01*
X150588293Y-68787586D01*
X150527206Y-68559607D01*
X150436884Y-68341551D01*
X150436882Y-68341548D01*
X150436880Y-68341543D01*
X150390436Y-68261100D01*
X150318873Y-68137150D01*
X150226014Y-68016133D01*
X150172721Y-67946680D01*
X150173886Y-67945785D01*
X150147069Y-67887981D01*
X150156598Y-67818765D01*
X150173219Y-67792902D01*
X150172721Y-67792520D01*
X150274876Y-67659388D01*
X150318873Y-67602050D01*
X150436884Y-67397649D01*
X150527206Y-67179593D01*
X150588293Y-66951614D01*
X150619100Y-66717611D01*
X150619100Y-66481589D01*
X150588293Y-66247586D01*
X150527206Y-66019607D01*
X150436884Y-65801551D01*
X150436882Y-65801548D01*
X150436880Y-65801543D01*
X150380216Y-65703400D01*
X150318873Y-65597150D01*
X150254831Y-65513689D01*
X150172721Y-65406680D01*
X150173886Y-65405785D01*
X150147069Y-65347981D01*
X150156598Y-65278765D01*
X150173219Y-65252902D01*
X150172721Y-65252520D01*
X150262094Y-65136046D01*
X150318873Y-65062050D01*
X150436884Y-64857649D01*
X150527206Y-64639593D01*
X150588293Y-64411614D01*
X150619100Y-64177611D01*
X150619100Y-63941589D01*
X150588293Y-63707586D01*
X150527206Y-63479607D01*
X150436884Y-63261551D01*
X150436882Y-63261548D01*
X150436880Y-63261543D01*
X150394718Y-63188518D01*
X150318873Y-63057150D01*
X150263811Y-62985392D01*
X150172721Y-62866680D01*
X150173886Y-62865785D01*
X150147069Y-62807981D01*
X150156598Y-62738765D01*
X150173219Y-62712902D01*
X150172721Y-62712520D01*
X150232953Y-62634023D01*
X150318873Y-62522050D01*
X150436884Y-62317649D01*
X150527206Y-62099593D01*
X150588293Y-61871614D01*
X150619100Y-61637611D01*
X150619100Y-61401589D01*
X150588293Y-61167586D01*
X150527206Y-60939607D01*
X150436884Y-60721551D01*
X150436882Y-60721548D01*
X150436880Y-60721543D01*
X150367463Y-60601311D01*
X150318873Y-60517150D01*
X150285705Y-60473925D01*
X150172721Y-60326680D01*
X150173886Y-60325785D01*
X150147069Y-60267981D01*
X150156598Y-60198765D01*
X150173219Y-60172902D01*
X150172721Y-60172520D01*
X150227414Y-60101241D01*
X150318873Y-59982050D01*
X150436884Y-59777649D01*
X150527206Y-59559593D01*
X150588293Y-59331614D01*
X150619100Y-59097611D01*
X150619100Y-58861589D01*
X150588293Y-58627586D01*
X150527206Y-58399607D01*
X150436884Y-58181551D01*
X150436882Y-58181548D01*
X150436880Y-58181543D01*
X150394718Y-58108518D01*
X150318873Y-57977150D01*
X150285705Y-57933925D01*
X150172721Y-57786680D01*
X150173886Y-57785785D01*
X150147069Y-57727981D01*
X150156598Y-57658765D01*
X150173219Y-57632902D01*
X150172721Y-57632520D01*
X150227414Y-57561241D01*
X150318873Y-57442050D01*
X150436884Y-57237649D01*
X150527206Y-57019593D01*
X150588293Y-56791614D01*
X150619100Y-56557611D01*
X150619100Y-56321589D01*
X150588293Y-56087586D01*
X150527206Y-55859607D01*
X150436884Y-55641551D01*
X150436882Y-55641548D01*
X150436880Y-55641543D01*
X150394718Y-55568518D01*
X150318873Y-55437150D01*
X150252075Y-55350097D01*
X150172721Y-55246680D01*
X150173886Y-55245785D01*
X150147069Y-55187981D01*
X150156598Y-55118765D01*
X150173219Y-55092902D01*
X150172721Y-55092520D01*
X150262102Y-54976035D01*
X150318873Y-54902050D01*
X150436884Y-54697649D01*
X150527206Y-54479593D01*
X150588293Y-54251614D01*
X150619100Y-54017611D01*
X150619100Y-53781589D01*
X150588293Y-53547586D01*
X150527206Y-53319607D01*
X150436884Y-53101551D01*
X150436882Y-53101548D01*
X150436880Y-53101543D01*
X150388098Y-53017052D01*
X150318873Y-52897150D01*
X150175192Y-52709901D01*
X150175187Y-52709895D01*
X150008304Y-52543012D01*
X150008297Y-52543006D01*
X149821054Y-52399330D01*
X149821053Y-52399329D01*
X149821050Y-52399327D01*
X149739309Y-52352134D01*
X149616656Y-52281319D01*
X149616645Y-52281314D01*
X149398593Y-52190994D01*
X149196410Y-52136819D01*
X149170614Y-52129907D01*
X149170613Y-52129906D01*
X149170610Y-52129906D01*
X148936620Y-52099101D01*
X148936617Y-52099100D01*
X148936611Y-52099100D01*
X148700589Y-52099100D01*
X148700583Y-52099100D01*
X148700579Y-52099101D01*
X148466589Y-52129906D01*
X148238606Y-52190994D01*
X148020554Y-52281314D01*
X148020543Y-52281319D01*
X147816145Y-52399330D01*
X147628903Y-52543005D01*
X147523648Y-52648260D01*
X147462325Y-52681744D01*
X147392633Y-52676760D01*
X147348286Y-52648259D01*
X146914248Y-52214221D01*
X146882155Y-52158635D01*
X146876310Y-52136819D01*
X146791005Y-51930874D01*
X146679548Y-51737826D01*
X146590371Y-51621608D01*
X146543848Y-51560977D01*
X146543842Y-51560970D01*
X146386229Y-51403357D01*
X146386222Y-51403351D01*
X146209382Y-51267658D01*
X146209380Y-51267657D01*
X146209374Y-51267652D01*
X146016326Y-51156195D01*
X146016322Y-51156193D01*
X145810390Y-51070893D01*
X145810383Y-51070891D01*
X145810381Y-51070890D01*
X145595063Y-51013196D01*
X145595057Y-51013195D01*
X145595052Y-51013194D01*
X145374066Y-50984101D01*
X145374063Y-50984100D01*
X145374057Y-50984100D01*
X145151143Y-50984100D01*
X145151137Y-50984100D01*
X145151133Y-50984101D01*
X144930147Y-51013194D01*
X144930140Y-51013195D01*
X144930137Y-51013196D01*
X144714819Y-51070890D01*
X144714809Y-51070893D01*
X144508877Y-51156193D01*
X144508873Y-51156195D01*
X144315826Y-51267652D01*
X144315817Y-51267658D01*
X144138977Y-51403351D01*
X144138970Y-51403357D01*
X143981357Y-51560970D01*
X143981351Y-51560977D01*
X143845658Y-51737817D01*
X143845652Y-51737826D01*
X143734195Y-51930873D01*
X143734193Y-51930877D01*
X143648893Y-52136809D01*
X143648890Y-52136819D01*
X143602269Y-52310814D01*
X143591197Y-52352134D01*
X143591194Y-52352147D01*
X143562101Y-52573133D01*
X143562100Y-52573149D01*
X143562100Y-52796050D01*
X143562101Y-52796066D01*
X143591194Y-53017052D01*
X143591195Y-53017057D01*
X143591196Y-53017063D01*
X143648890Y-53232380D01*
X143648893Y-53232390D01*
X143685020Y-53319607D01*
X143734195Y-53438326D01*
X143833947Y-53611101D01*
X143850420Y-53678999D01*
X143827568Y-53745026D01*
X143772647Y-53788217D01*
X143726560Y-53797100D01*
X140817954Y-53797100D01*
X140750915Y-53777415D01*
X140742476Y-53771482D01*
X140732727Y-53764001D01*
X140732717Y-53763995D01*
X140516976Y-53639437D01*
X140516961Y-53639430D01*
X140286807Y-53544098D01*
X140046165Y-53479618D01*
X140046164Y-53479617D01*
X140046161Y-53479617D01*
X139799175Y-53447101D01*
X139799170Y-53447100D01*
X139799165Y-53447100D01*
X139550035Y-53447100D01*
X139550029Y-53447100D01*
X139550024Y-53447101D01*
X139303038Y-53479617D01*
X139062392Y-53544098D01*
X138832238Y-53639430D01*
X138832223Y-53639437D01*
X138616473Y-53764000D01*
X138418825Y-53915660D01*
X138418818Y-53915666D01*
X138242666Y-54091818D01*
X138242660Y-54091825D01*
X138091000Y-54289473D01*
X137966437Y-54505223D01*
X137966430Y-54505238D01*
X137871098Y-54735392D01*
X137806617Y-54976038D01*
X137774101Y-55223024D01*
X137774100Y-55223041D01*
X135000000Y-55223041D01*
X135000000Y-34133377D01*
X137699100Y-34133377D01*
X137699100Y-35461808D01*
X137699101Y-35461823D01*
X137709504Y-35594013D01*
X137709505Y-35594020D01*
X137764502Y-35812278D01*
X137764503Y-35812281D01*
X137857591Y-36017222D01*
X137857597Y-36017232D01*
X137973463Y-36184476D01*
X137995460Y-36250793D01*
X137978922Y-36317092D01*
X137886377Y-36477384D01*
X137886373Y-36477394D01*
X137793547Y-36701495D01*
X137730761Y-36935814D01*
X137699100Y-37176311D01*
X137699100Y-37418888D01*
X137730761Y-37659385D01*
X137793547Y-37893704D01*
X137886373Y-38117805D01*
X137886376Y-38117812D01*
X138007664Y-38327889D01*
X138007666Y-38327892D01*
X138007667Y-38327893D01*
X138155333Y-38520336D01*
X138155339Y-38520343D01*
X138326856Y-38691860D01*
X138326862Y-38691865D01*
X138519311Y-38839536D01*
X138729388Y-38960824D01*
X138953500Y-39053654D01*
X139187811Y-39116438D01*
X139352870Y-39138168D01*
X139428311Y-39148100D01*
X139428312Y-39148100D01*
X139920889Y-39148100D01*
X139996330Y-39138168D01*
X140161389Y-39116438D01*
X140395700Y-39053654D01*
X140605481Y-38966759D01*
X140674948Y-38959291D01*
X140737427Y-38990566D01*
X140740613Y-38993640D01*
X144929781Y-43182808D01*
X144963266Y-43244131D01*
X144966100Y-43270489D01*
X144966100Y-45177067D01*
X145003046Y-45410338D01*
X145076033Y-45634966D01*
X145129610Y-45740115D01*
X145142506Y-45808784D01*
X145116230Y-45873525D01*
X145059123Y-45913782D01*
X145035311Y-45919349D01*
X144939035Y-45932024D01*
X144930137Y-45933196D01*
X144734222Y-45985691D01*
X144714819Y-45990890D01*
X144714809Y-45990893D01*
X144508880Y-46076192D01*
X144508878Y-46076193D01*
X144508875Y-46076194D01*
X144508874Y-46076195D01*
X144489314Y-46087487D01*
X144427316Y-46104100D01*
X140883116Y-46104100D01*
X140816077Y-46084415D01*
X140807641Y-46078484D01*
X140732727Y-46021001D01*
X140732722Y-46020997D01*
X140516976Y-45896437D01*
X140516961Y-45896430D01*
X140286807Y-45801098D01*
X140046161Y-45736617D01*
X139799175Y-45704101D01*
X139799170Y-45704100D01*
X139799165Y-45704100D01*
X139550035Y-45704100D01*
X139550029Y-45704100D01*
X139550024Y-45704101D01*
X139303038Y-45736617D01*
X139062392Y-45801098D01*
X138832238Y-45896430D01*
X138832223Y-45896437D01*
X138616473Y-46021000D01*
X138418825Y-46172660D01*
X138418818Y-46172666D01*
X138242666Y-46348818D01*
X138242660Y-46348825D01*
X138091000Y-46546473D01*
X137966437Y-46762223D01*
X137966430Y-46762238D01*
X137871098Y-46992392D01*
X137806617Y-47233038D01*
X137774101Y-47480024D01*
X137774100Y-47480041D01*
X137774100Y-47729158D01*
X137774101Y-47729175D01*
X137806617Y-47976161D01*
X137871098Y-48216807D01*
X137966430Y-48446961D01*
X137966437Y-48446976D01*
X138091000Y-48662726D01*
X138242660Y-48860374D01*
X138242666Y-48860381D01*
X138418818Y-49036533D01*
X138418825Y-49036539D01*
X138616473Y-49188199D01*
X138832223Y-49312762D01*
X138832238Y-49312769D01*
X138931425Y-49353853D01*
X139062393Y-49408102D01*
X139303035Y-49472582D01*
X139550035Y-49505100D01*
X139550042Y-49505100D01*
X139799158Y-49505100D01*
X139799165Y-49505100D01*
X140046165Y-49472582D01*
X140286807Y-49408102D01*
X140516973Y-49312764D01*
X140732727Y-49188199D01*
X140807631Y-49130723D01*
X140872799Y-49105530D01*
X140883116Y-49105100D01*
X144427316Y-49105100D01*
X144489314Y-49121712D01*
X144508874Y-49133005D01*
X144714819Y-49218310D01*
X144930137Y-49276004D01*
X145151143Y-49305100D01*
X145151150Y-49305100D01*
X145374050Y-49305100D01*
X145374057Y-49305100D01*
X145595063Y-49276004D01*
X145810381Y-49218310D01*
X146016326Y-49133005D01*
X146209374Y-49021548D01*
X146386224Y-48885847D01*
X146543847Y-48728224D01*
X146679548Y-48551374D01*
X146791005Y-48358326D01*
X146876310Y-48152381D01*
X146934004Y-47937063D01*
X146955510Y-47773707D01*
X146963712Y-47755165D01*
X146967171Y-47735183D01*
X146977559Y-47723863D01*
X146983775Y-47709814D01*
X147000701Y-47698648D01*
X147014415Y-47683707D01*
X147029274Y-47679801D01*
X147042099Y-47671342D01*
X147062378Y-47671100D01*
X147081990Y-47665946D01*
X147108596Y-47670550D01*
X147111964Y-47670510D01*
X147116745Y-47671957D01*
X147198890Y-47698648D01*
X147211438Y-47702725D01*
X147269113Y-47742163D01*
X147296311Y-47806522D01*
X147284396Y-47875368D01*
X147280506Y-47882656D01*
X147200319Y-48021543D01*
X147200314Y-48021554D01*
X147109994Y-48239606D01*
X147048906Y-48467589D01*
X147018101Y-48701579D01*
X147018100Y-48701595D01*
X147018100Y-48937604D01*
X147018101Y-48937620D01*
X147043823Y-49133004D01*
X147048907Y-49171614D01*
X147087289Y-49314857D01*
X147109994Y-49399593D01*
X147200314Y-49617645D01*
X147200319Y-49617656D01*
X147271277Y-49740557D01*
X147318327Y-49822050D01*
X147318329Y-49822053D01*
X147318330Y-49822054D01*
X147462006Y-50009297D01*
X147462012Y-50009304D01*
X147628895Y-50176187D01*
X147628902Y-50176193D01*
X147679585Y-50215083D01*
X147816150Y-50319873D01*
X147923908Y-50382087D01*
X148020543Y-50437880D01*
X148020548Y-50437882D01*
X148020551Y-50437884D01*
X148238607Y-50528206D01*
X148466586Y-50589293D01*
X148700589Y-50620100D01*
X148700596Y-50620100D01*
X148936604Y-50620100D01*
X148936611Y-50620100D01*
X149170614Y-50589293D01*
X149398593Y-50528206D01*
X149616649Y-50437884D01*
X149821050Y-50319873D01*
X150008299Y-50176192D01*
X150175192Y-50009299D01*
X150318873Y-49822050D01*
X150436884Y-49617649D01*
X150527206Y-49399593D01*
X150588293Y-49171614D01*
X150619100Y-48937611D01*
X150619100Y-48701589D01*
X150588293Y-48467586D01*
X150527206Y-48239607D01*
X150436884Y-48021551D01*
X150436882Y-48021548D01*
X150436880Y-48021543D01*
X150388098Y-47937052D01*
X150318873Y-47817150D01*
X150251360Y-47729165D01*
X150172721Y-47626680D01*
X150173886Y-47625785D01*
X150147069Y-47567981D01*
X150156598Y-47498765D01*
X150173219Y-47472902D01*
X150172721Y-47472520D01*
X150239252Y-47385814D01*
X150318873Y-47282050D01*
X150436884Y-47077649D01*
X150527206Y-46859593D01*
X150588293Y-46631614D01*
X150619100Y-46397611D01*
X150619100Y-46161589D01*
X150588293Y-45927586D01*
X150527206Y-45699607D01*
X150436884Y-45481551D01*
X150436882Y-45481548D01*
X150436880Y-45481543D01*
X150357193Y-45343522D01*
X150340720Y-45275622D01*
X150363572Y-45209595D01*
X150368459Y-45203185D01*
X150458298Y-45093007D01*
X150552509Y-44912649D01*
X150608486Y-44717018D01*
X150619100Y-44597637D01*
X150619099Y-42881564D01*
X150608486Y-42762182D01*
X150552509Y-42566551D01*
X150458298Y-42386193D01*
X150346998Y-42249694D01*
X150319889Y-42185297D01*
X150319100Y-42171333D01*
X150319100Y-41821502D01*
X150282153Y-41588231D01*
X150209166Y-41363603D01*
X150101942Y-41153165D01*
X149963117Y-40962090D01*
X142654110Y-33653083D01*
X142463034Y-33514257D01*
X142439396Y-33502213D01*
X142252596Y-33407033D01*
X142027968Y-33334046D01*
X141794697Y-33297100D01*
X141794692Y-33297100D01*
X141318935Y-33297100D01*
X141251896Y-33277415D01*
X141231254Y-33260781D01*
X141204257Y-33233784D01*
X141204254Y-33233781D01*
X141204250Y-33233778D01*
X141204245Y-33233774D01*
X141019232Y-33105597D01*
X141019230Y-33105595D01*
X141019226Y-33105593D01*
X140947159Y-33072859D01*
X140814281Y-33012503D01*
X140814278Y-33012502D01*
X140596020Y-32957505D01*
X140596013Y-32957504D01*
X140551947Y-32954036D01*
X140463817Y-32947100D01*
X140463815Y-32947100D01*
X138885391Y-32947100D01*
X138885376Y-32947101D01*
X138753186Y-32957504D01*
X138753179Y-32957505D01*
X138534921Y-33012502D01*
X138534918Y-33012503D01*
X138329977Y-33105591D01*
X138329967Y-33105597D01*
X138144954Y-33233774D01*
X138144942Y-33233784D01*
X137985784Y-33392942D01*
X137985774Y-33392954D01*
X137857597Y-33577967D01*
X137857591Y-33577977D01*
X137764503Y-33782918D01*
X137764502Y-33782921D01*
X137709505Y-34001179D01*
X137709504Y-34001186D01*
X137699100Y-34133377D01*
X135000000Y-34133377D01*
X135000000Y-29952012D01*
X135019685Y-29884973D01*
X135072489Y-29839218D01*
X135141647Y-29829274D01*
X135205203Y-29858299D01*
X135219848Y-29873342D01*
X135302538Y-29974100D01*
X135387177Y-30077233D01*
X135630367Y-30320423D01*
X135630372Y-30320427D01*
X135630373Y-30320428D01*
X135896240Y-30538619D01*
X136182213Y-30729700D01*
X136182222Y-30729705D01*
X136182224Y-30729706D01*
X136485530Y-30891827D01*
X136485532Y-30891827D01*
X136485538Y-30891831D01*
X136803295Y-31023450D01*
X137132422Y-31123290D01*
X137469750Y-31190389D01*
X137812031Y-31224100D01*
X137812034Y-31224100D01*
X138155966Y-31224100D01*
X138155969Y-31224100D01*
X138498250Y-31190389D01*
X138835578Y-31123290D01*
X139164705Y-31023450D01*
X139482462Y-30891831D01*
X139785787Y-30729700D01*
X140071760Y-30538619D01*
X140337627Y-30320428D01*
X140580828Y-30077227D01*
X140799019Y-29811360D01*
X140990100Y-29525387D01*
X141152231Y-29222062D01*
X141283850Y-28904305D01*
X141383690Y-28575178D01*
X141437863Y-28302833D01*
X141441460Y-28284752D01*
X154416100Y-28284752D01*
X154416100Y-35715697D01*
X154453046Y-35948968D01*
X154526033Y-36173596D01*
X154633257Y-36384034D01*
X154772084Y-36575111D01*
X154772085Y-36575112D01*
X162265529Y-44068557D01*
X162297623Y-44124144D01*
X162349994Y-44319593D01*
X162440314Y-44537645D01*
X162440319Y-44537656D01*
X162474950Y-44597637D01*
X162558327Y-44742050D01*
X162558329Y-44742053D01*
X162558330Y-44742054D01*
X162702006Y-44929297D01*
X162702012Y-44929304D01*
X162868895Y-45096187D01*
X162868902Y-45096193D01*
X162978906Y-45180601D01*
X163056150Y-45239873D01*
X163187518Y-45315718D01*
X163260543Y-45357880D01*
X163260548Y-45357882D01*
X163260551Y-45357884D01*
X163478607Y-45448206D01*
X163706586Y-45509293D01*
X163940589Y-45540100D01*
X163940596Y-45540100D01*
X164176596Y-45540100D01*
X164176611Y-45540100D01*
X164176625Y-45540098D01*
X164177265Y-45540056D01*
X164177462Y-45540100D01*
X164180670Y-45540100D01*
X164180670Y-45540817D01*
X164245451Y-45555300D01*
X164273081Y-45576108D01*
X165129781Y-46432808D01*
X165163266Y-46494131D01*
X165166100Y-46520489D01*
X165166100Y-47165203D01*
X165146415Y-47232242D01*
X165093611Y-47277997D01*
X165024453Y-47287941D01*
X164980100Y-47272590D01*
X164856656Y-47201319D01*
X164856645Y-47201314D01*
X164638593Y-47110994D01*
X164410610Y-47049906D01*
X164176620Y-47019101D01*
X164176617Y-47019100D01*
X164176611Y-47019100D01*
X163940589Y-47019100D01*
X163940583Y-47019100D01*
X163940579Y-47019101D01*
X163706589Y-47049906D01*
X163478606Y-47110994D01*
X163260554Y-47201314D01*
X163260543Y-47201319D01*
X163056145Y-47319330D01*
X162868902Y-47463006D01*
X162868895Y-47463012D01*
X162702012Y-47629895D01*
X162702006Y-47629902D01*
X162558330Y-47817145D01*
X162440319Y-48021543D01*
X162440314Y-48021554D01*
X162349994Y-48239606D01*
X162288906Y-48467589D01*
X162258101Y-48701579D01*
X162258100Y-48701595D01*
X162258100Y-48937604D01*
X162258101Y-48937620D01*
X162283823Y-49133004D01*
X162288907Y-49171614D01*
X162327289Y-49314857D01*
X162349994Y-49399593D01*
X162440314Y-49617645D01*
X162440319Y-49617656D01*
X162472330Y-49673100D01*
X162488803Y-49741000D01*
X162465950Y-49807027D01*
X162411029Y-49850218D01*
X162364943Y-49859100D01*
X162086503Y-49859100D01*
X161853231Y-49896046D01*
X161628603Y-49969033D01*
X161418166Y-50076257D01*
X161300482Y-50161760D01*
X161227090Y-50215083D01*
X161227087Y-50215085D01*
X161060085Y-50382087D01*
X161060085Y-50382088D01*
X161060083Y-50382090D01*
X161000462Y-50464150D01*
X160921257Y-50573166D01*
X160880570Y-50653019D01*
X160857766Y-50684405D01*
X160322086Y-51220086D01*
X160322084Y-51220088D01*
X160183257Y-51411165D01*
X160076033Y-51621603D01*
X160003046Y-51846231D01*
X159966100Y-52079502D01*
X159966100Y-80215697D01*
X160003046Y-80448968D01*
X160076033Y-80673596D01*
X160149515Y-80817812D01*
X160183257Y-80884034D01*
X160322083Y-81075110D01*
X161589090Y-82342117D01*
X161780167Y-82480943D01*
X161879591Y-82531602D01*
X161990603Y-82588166D01*
X161990605Y-82588166D01*
X161990608Y-82588168D01*
X162111012Y-82627289D01*
X162215231Y-82661153D01*
X162448503Y-82698100D01*
X162448508Y-82698100D01*
X165534697Y-82698100D01*
X165767968Y-82661153D01*
X165992592Y-82588168D01*
X166203034Y-82480943D01*
X166394110Y-82342117D01*
X168061117Y-80675110D01*
X168199943Y-80484034D01*
X168307168Y-80273592D01*
X168342227Y-80165692D01*
X168380153Y-80048968D01*
X168384250Y-80023100D01*
X168417100Y-79815697D01*
X168417100Y-74770489D01*
X168436785Y-74703450D01*
X168453419Y-74682808D01*
X171651808Y-71484419D01*
X171713131Y-71450934D01*
X171739489Y-71448100D01*
X179984697Y-71448100D01*
X180217968Y-71411153D01*
X180442592Y-71338168D01*
X180653034Y-71230943D01*
X180844110Y-71092117D01*
X182611118Y-69325110D01*
X182749943Y-69134033D01*
X182816184Y-69004025D01*
X182848304Y-68964223D01*
X182977709Y-68858709D01*
X183106298Y-68701007D01*
X183200509Y-68520649D01*
X183256486Y-68325018D01*
X183267100Y-68205637D01*
X183267099Y-66389564D01*
X183256486Y-66270182D01*
X183200509Y-66074551D01*
X183106298Y-65894193D01*
X183030761Y-65801554D01*
X182977709Y-65736490D01*
X182820009Y-65607904D01*
X182820010Y-65607904D01*
X182820007Y-65607902D01*
X182639649Y-65513691D01*
X182639648Y-65513690D01*
X182639645Y-65513689D01*
X182522429Y-65480150D01*
X182444018Y-65457714D01*
X182444015Y-65457713D01*
X182444013Y-65457713D01*
X182377702Y-65451817D01*
X182324637Y-65447100D01*
X182324632Y-65447100D01*
X180508571Y-65447100D01*
X180508565Y-65447100D01*
X180508564Y-65447101D01*
X180496916Y-65448136D01*
X180389184Y-65457713D01*
X180193554Y-65513689D01*
X180013191Y-65607903D01*
X179929318Y-65676292D01*
X179864921Y-65703400D01*
X179796092Y-65691390D01*
X179788958Y-65687576D01*
X179696815Y-65634377D01*
X179696805Y-65634373D01*
X179472704Y-65541547D01*
X179259006Y-65484286D01*
X179199346Y-65447920D01*
X179168817Y-65385073D01*
X179167100Y-65364511D01*
X179167100Y-62098981D01*
X179186785Y-62031942D01*
X179192726Y-62023493D01*
X179200010Y-62014000D01*
X179208536Y-62002889D01*
X179329824Y-61792812D01*
X179422654Y-61568700D01*
X179485438Y-61334389D01*
X179517100Y-61093888D01*
X179517100Y-60601312D01*
X179485438Y-60360811D01*
X179422654Y-60126500D01*
X179329824Y-59902388D01*
X179208536Y-59692311D01*
X179060865Y-59499862D01*
X179060860Y-59499856D01*
X178889343Y-59328339D01*
X178889336Y-59328333D01*
X178696893Y-59180667D01*
X178696892Y-59180666D01*
X178696889Y-59180664D01*
X178486812Y-59059376D01*
X178486805Y-59059373D01*
X178262704Y-58966547D01*
X178028385Y-58903761D01*
X177787889Y-58872100D01*
X177787888Y-58872100D01*
X177545312Y-58872100D01*
X177545311Y-58872100D01*
X177304814Y-58903761D01*
X177070495Y-58966547D01*
X176846394Y-59059373D01*
X176846385Y-59059377D01*
X176636306Y-59180667D01*
X176492086Y-59291331D01*
X176426917Y-59316525D01*
X176358472Y-59302487D01*
X176341114Y-59291331D01*
X176196893Y-59180667D01*
X176196892Y-59180666D01*
X176196889Y-59180664D01*
X175986812Y-59059376D01*
X175986805Y-59059373D01*
X175762704Y-58966547D01*
X175528385Y-58903761D01*
X175287889Y-58872100D01*
X175287888Y-58872100D01*
X175045312Y-58872100D01*
X175045311Y-58872100D01*
X174804814Y-58903761D01*
X174570495Y-58966547D01*
X174346394Y-59059373D01*
X174346385Y-59059377D01*
X174136306Y-59180667D01*
X173992086Y-59291331D01*
X173926917Y-59316525D01*
X173858472Y-59302487D01*
X173841114Y-59291331D01*
X173696893Y-59180667D01*
X173696892Y-59180666D01*
X173696889Y-59180664D01*
X173486812Y-59059376D01*
X173486805Y-59059373D01*
X173262704Y-58966547D01*
X173028385Y-58903761D01*
X172787889Y-58872100D01*
X172787888Y-58872100D01*
X172545312Y-58872100D01*
X172545311Y-58872100D01*
X172304814Y-58903761D01*
X172070495Y-58966547D01*
X171846394Y-59059373D01*
X171846384Y-59059377D01*
X171686092Y-59151922D01*
X171618191Y-59168395D01*
X171553476Y-59146463D01*
X171386232Y-59030597D01*
X171386230Y-59030595D01*
X171386226Y-59030593D01*
X171245221Y-58966546D01*
X171181281Y-58937503D01*
X171181278Y-58937502D01*
X170963020Y-58882505D01*
X170963013Y-58882504D01*
X170830822Y-58872100D01*
X170830817Y-58872100D01*
X170713488Y-58872100D01*
X170646449Y-58852415D01*
X170600694Y-58799611D01*
X170590750Y-58730453D01*
X170619775Y-58666897D01*
X170625807Y-58660419D01*
X172070644Y-57215582D01*
X173811117Y-55475110D01*
X173949943Y-55284034D01*
X174057168Y-55073592D01*
X174130153Y-54848969D01*
X174147184Y-54741438D01*
X174158232Y-54671686D01*
X174188161Y-54608551D01*
X174247473Y-54571620D01*
X174317335Y-54572618D01*
X174342707Y-54583698D01*
X174346388Y-54585824D01*
X174570500Y-54678654D01*
X174804811Y-54741438D01*
X174985186Y-54765184D01*
X175045311Y-54773100D01*
X175045312Y-54773100D01*
X175287889Y-54773100D01*
X175335988Y-54766767D01*
X175528389Y-54741438D01*
X175762700Y-54678654D01*
X175986812Y-54585824D01*
X176196889Y-54464536D01*
X176341116Y-54353866D01*
X176406283Y-54328674D01*
X176474727Y-54342712D01*
X176492076Y-54353861D01*
X176636311Y-54464536D01*
X176846388Y-54585824D01*
X177070500Y-54678654D01*
X177304811Y-54741438D01*
X177485186Y-54765184D01*
X177545311Y-54773100D01*
X177545312Y-54773100D01*
X177787889Y-54773100D01*
X177835988Y-54766767D01*
X178028389Y-54741438D01*
X178262700Y-54678654D01*
X178486812Y-54585824D01*
X178696889Y-54464536D01*
X178889338Y-54316865D01*
X179060865Y-54145338D01*
X179208536Y-53952889D01*
X179329824Y-53742812D01*
X179422654Y-53518700D01*
X179485438Y-53284389D01*
X179517100Y-53043888D01*
X179517100Y-52551312D01*
X179485438Y-52310811D01*
X179422654Y-52076500D01*
X179329824Y-51852388D01*
X179326269Y-51846231D01*
X179208536Y-51642311D01*
X179192724Y-51621704D01*
X179167530Y-51556535D01*
X179167100Y-51546218D01*
X179167100Y-49667291D01*
X179186785Y-49600252D01*
X179239589Y-49554497D01*
X179259006Y-49547516D01*
X179422700Y-49503654D01*
X179646812Y-49410824D01*
X179738959Y-49357622D01*
X179806857Y-49341150D01*
X179872884Y-49364002D01*
X179879319Y-49368908D01*
X179963193Y-49437298D01*
X180143551Y-49531509D01*
X180339182Y-49587486D01*
X180458563Y-49598100D01*
X182274636Y-49598099D01*
X182394018Y-49587486D01*
X182589649Y-49531509D01*
X182770007Y-49437298D01*
X182927709Y-49308709D01*
X183056298Y-49151007D01*
X183150509Y-48970649D01*
X183206486Y-48775018D01*
X183217100Y-48655637D01*
X183217099Y-46839564D01*
X183206486Y-46720182D01*
X183150509Y-46524551D01*
X183056298Y-46344193D01*
X182927709Y-46186491D01*
X182912735Y-46174281D01*
X182873220Y-46116658D01*
X182868074Y-46084311D01*
X182867482Y-46084358D01*
X182867100Y-46079504D01*
X182830153Y-45846231D01*
X182757166Y-45621603D01*
X182693286Y-45496232D01*
X182685802Y-45481543D01*
X182649943Y-45411166D01*
X182511117Y-45220090D01*
X181144110Y-43853083D01*
X180953034Y-43714257D01*
X180742596Y-43607033D01*
X180517968Y-43534046D01*
X180284697Y-43497100D01*
X180284692Y-43497100D01*
X179839489Y-43497100D01*
X179772450Y-43477415D01*
X179751808Y-43460781D01*
X178271039Y-41980012D01*
X178237554Y-41918689D01*
X178234720Y-41892331D01*
X178234720Y-40439571D01*
X178234720Y-40439564D01*
X178224107Y-40320182D01*
X178168130Y-40124551D01*
X178073919Y-39944193D01*
X178021905Y-39880403D01*
X177945330Y-39786490D01*
X177830154Y-39692577D01*
X177787628Y-39657902D01*
X177607270Y-39563691D01*
X177607269Y-39563690D01*
X177607266Y-39563689D01*
X177490050Y-39530150D01*
X177411639Y-39507714D01*
X177411636Y-39507713D01*
X177411634Y-39507713D01*
X177345323Y-39501817D01*
X177292258Y-39497100D01*
X177292253Y-39497100D01*
X175576192Y-39497100D01*
X175576186Y-39497100D01*
X175576185Y-39497101D01*
X175564537Y-39498136D01*
X175456805Y-39507713D01*
X175261175Y-39563689D01*
X175170993Y-39610796D01*
X175080814Y-39657902D01*
X175080812Y-39657903D01*
X175080811Y-39657904D01*
X174923111Y-39786490D01*
X174794525Y-39944190D01*
X174700310Y-40124554D01*
X174644335Y-40320183D01*
X174644334Y-40320186D01*
X174633721Y-40439566D01*
X174633721Y-41707089D01*
X174614036Y-41774128D01*
X174597402Y-41794770D01*
X174189392Y-42202781D01*
X174128069Y-42236266D01*
X174101711Y-42239100D01*
X170691100Y-42239100D01*
X170624061Y-42219415D01*
X170578306Y-42166611D01*
X170567100Y-42115100D01*
X170567099Y-41420488D01*
X170586783Y-41353449D01*
X170603413Y-41332812D01*
X172651809Y-39284419D01*
X172713132Y-39250934D01*
X172739490Y-39248100D01*
X174534697Y-39248100D01*
X174767968Y-39211153D01*
X174992592Y-39138168D01*
X175203034Y-39030943D01*
X175394110Y-38892117D01*
X177766808Y-36519417D01*
X177828131Y-36485933D01*
X177854489Y-36483099D01*
X179124628Y-36483099D01*
X179124636Y-36483099D01*
X179244018Y-36472486D01*
X179439649Y-36416509D01*
X179620007Y-36322298D01*
X179777709Y-36193709D01*
X179906298Y-36036007D01*
X180000509Y-35855649D01*
X180056486Y-35660018D01*
X180067100Y-35540637D01*
X180067099Y-33724564D01*
X180056486Y-33605182D01*
X180000509Y-33409551D01*
X179906298Y-33229193D01*
X179837908Y-33145319D01*
X179810799Y-33080922D01*
X179822808Y-33012093D01*
X179826612Y-33004976D01*
X179879824Y-32912812D01*
X179972654Y-32688700D01*
X180035438Y-32454389D01*
X180067100Y-32213888D01*
X180067100Y-31971312D01*
X180035438Y-31730811D01*
X179972654Y-31496500D01*
X179879824Y-31272388D01*
X179847836Y-31216984D01*
X179758536Y-31062311D01*
X179742724Y-31041704D01*
X179717530Y-30976535D01*
X179717100Y-30966218D01*
X179717100Y-30779502D01*
X179680153Y-30546231D01*
X179634106Y-30404514D01*
X179607168Y-30321608D01*
X179607166Y-30321605D01*
X179607166Y-30321603D01*
X179499942Y-30111166D01*
X179483974Y-30089188D01*
X179400358Y-29974100D01*
X179384841Y-29952743D01*
X179369637Y-29931816D01*
X179361118Y-29920090D01*
X176358110Y-26917083D01*
X176167034Y-26778257D01*
X175956596Y-26671033D01*
X175731968Y-26598046D01*
X175498697Y-26561100D01*
X175498692Y-26561100D01*
X168884508Y-26561100D01*
X168884503Y-26561100D01*
X168651231Y-26598046D01*
X168490089Y-26650405D01*
X168450571Y-26663246D01*
X168450570Y-26663246D01*
X168426613Y-26671029D01*
X168426607Y-26671032D01*
X168216165Y-26778257D01*
X168025088Y-26917084D01*
X166222082Y-28720090D01*
X166111143Y-28872782D01*
X166076799Y-28904888D01*
X165995601Y-28955909D01*
X165917352Y-29005077D01*
X165917349Y-29005079D01*
X165917345Y-29005082D01*
X165697775Y-29180183D01*
X165499183Y-29378775D01*
X165324076Y-29598353D01*
X165174653Y-29836157D01*
X165052800Y-30089188D01*
X164960043Y-30354270D01*
X164960039Y-30354282D01*
X164897545Y-30628087D01*
X164897542Y-30628105D01*
X164866100Y-30907168D01*
X164866100Y-31188031D01*
X164897542Y-31467094D01*
X164897545Y-31467112D01*
X164960039Y-31740917D01*
X164960043Y-31740929D01*
X165052800Y-32006011D01*
X165174653Y-32259042D01*
X165174655Y-32259045D01*
X165324077Y-32496848D01*
X165499184Y-32716425D01*
X165697775Y-32915016D01*
X165917352Y-33090123D01*
X166155155Y-33239545D01*
X166408192Y-33361401D01*
X166607280Y-33431065D01*
X166673270Y-33454156D01*
X166673282Y-33454160D01*
X166947091Y-33516655D01*
X166947097Y-33516655D01*
X166947105Y-33516657D01*
X167133147Y-33537618D01*
X167226169Y-33548099D01*
X167226172Y-33548100D01*
X167226175Y-33548100D01*
X167507028Y-33548100D01*
X167507029Y-33548099D01*
X167649655Y-33532029D01*
X167786094Y-33516657D01*
X167786099Y-33516656D01*
X167786109Y-33516655D01*
X168059918Y-33454160D01*
X168325008Y-33361401D01*
X168578045Y-33239545D01*
X168815848Y-33090123D01*
X169035425Y-32915016D01*
X169234016Y-32716425D01*
X169409123Y-32496848D01*
X169558545Y-32259045D01*
X169680401Y-32006008D01*
X169773160Y-31740918D01*
X169835655Y-31467109D01*
X169842277Y-31408342D01*
X169864051Y-31215083D01*
X169867100Y-31188025D01*
X169867100Y-30907175D01*
X169856618Y-30814147D01*
X169835657Y-30628105D01*
X169835654Y-30628087D01*
X169773160Y-30354282D01*
X169773156Y-30354270D01*
X169688090Y-30111166D01*
X169680401Y-30089192D01*
X169558545Y-29836155D01*
X169530710Y-29791857D01*
X169522530Y-29762911D01*
X169512020Y-29734730D01*
X169513127Y-29729637D01*
X169511710Y-29724621D01*
X169520480Y-29695839D01*
X169526873Y-29666457D01*
X169531193Y-29660685D01*
X169532077Y-29657786D01*
X169548024Y-29638203D01*
X169587810Y-29598418D01*
X169649133Y-29564933D01*
X169675490Y-29562100D01*
X174707711Y-29562100D01*
X174774750Y-29581785D01*
X174795392Y-29598419D01*
X176470181Y-31273209D01*
X176503666Y-31334532D01*
X176498682Y-31404224D01*
X176497061Y-31408342D01*
X176460548Y-31496492D01*
X176397761Y-31730814D01*
X176366100Y-31971311D01*
X176366100Y-32213888D01*
X176397761Y-32454385D01*
X176460547Y-32688704D01*
X176553373Y-32912805D01*
X176553377Y-32912815D01*
X176606576Y-33004958D01*
X176623049Y-33072859D01*
X176600196Y-33138885D01*
X176595292Y-33145318D01*
X176526903Y-33229191D01*
X176432690Y-33409553D01*
X176376713Y-33605185D01*
X176376711Y-33605194D01*
X176374818Y-33626488D01*
X176349272Y-33691520D01*
X176338987Y-33703184D01*
X173831392Y-36210781D01*
X173770069Y-36244266D01*
X173743711Y-36247100D01*
X171948503Y-36247100D01*
X171715231Y-36284046D01*
X171490603Y-36357033D01*
X171280163Y-36464259D01*
X171089096Y-36603076D01*
X171089091Y-36603080D01*
X168231390Y-39460781D01*
X168170067Y-39494266D01*
X168143710Y-39497100D01*
X167908571Y-39497100D01*
X167908565Y-39497100D01*
X167908564Y-39497101D01*
X167896916Y-39498136D01*
X167789184Y-39507713D01*
X167593554Y-39563689D01*
X167413187Y-39657905D01*
X167338013Y-39719202D01*
X167273617Y-39746311D01*
X167259653Y-39747100D01*
X165115089Y-39747100D01*
X165048050Y-39727415D01*
X165027408Y-39710781D01*
X162393607Y-37076980D01*
X162360122Y-37015657D01*
X162365106Y-36945965D01*
X162406978Y-36890032D01*
X162472442Y-36865615D01*
X162481288Y-36865299D01*
X163049828Y-36865299D01*
X163049836Y-36865299D01*
X163169218Y-36854686D01*
X163364849Y-36798709D01*
X163545207Y-36704498D01*
X163702909Y-36575909D01*
X163831498Y-36418207D01*
X163925709Y-36237849D01*
X163981686Y-36042218D01*
X163992300Y-35922837D01*
X163992299Y-33876364D01*
X163981686Y-33756982D01*
X163954997Y-33663709D01*
X163954997Y-33595490D01*
X163981686Y-33502218D01*
X163992300Y-33382837D01*
X163992299Y-31336364D01*
X163981686Y-31216982D01*
X163925709Y-31021351D01*
X163831498Y-30840993D01*
X163779484Y-30777203D01*
X163702909Y-30683290D01*
X163545209Y-30554704D01*
X163545210Y-30554704D01*
X163545207Y-30554702D01*
X163364849Y-30460491D01*
X163364848Y-30460490D01*
X163364845Y-30460489D01*
X163247629Y-30426950D01*
X163169218Y-30404514D01*
X163169215Y-30404513D01*
X163169213Y-30404513D01*
X163102902Y-30398617D01*
X163049837Y-30393900D01*
X163049832Y-30393900D01*
X161003371Y-30393900D01*
X161003365Y-30393900D01*
X161003364Y-30393901D01*
X160991716Y-30394936D01*
X160883984Y-30404513D01*
X160688354Y-30460489D01*
X160598172Y-30507596D01*
X160507993Y-30554702D01*
X160507991Y-30554703D01*
X160507990Y-30554704D01*
X160350290Y-30683290D01*
X160217728Y-30845866D01*
X160215632Y-30844157D01*
X160170604Y-30881488D01*
X160140964Y-30890070D01*
X160103232Y-30896046D01*
X159878605Y-30969033D01*
X159668165Y-31076257D01*
X159477088Y-31215084D01*
X157872084Y-32820088D01*
X157733257Y-33011165D01*
X157664539Y-33146033D01*
X157664538Y-33146034D01*
X157651584Y-33171457D01*
X157603609Y-33222252D01*
X157535788Y-33239047D01*
X157469653Y-33216509D01*
X157426203Y-33161793D01*
X157417100Y-33115161D01*
X157417100Y-29075739D01*
X157436785Y-29008700D01*
X157453419Y-28988058D01*
X157625058Y-28816419D01*
X157686381Y-28782934D01*
X157712739Y-28780100D01*
X160148050Y-28780100D01*
X160215089Y-28799785D01*
X160244152Y-28825740D01*
X160350288Y-28955907D01*
X160410590Y-29005076D01*
X160507993Y-29084498D01*
X160688351Y-29178709D01*
X160883982Y-29234686D01*
X161003363Y-29245300D01*
X163049836Y-29245299D01*
X163169218Y-29234686D01*
X163364849Y-29178709D01*
X163545207Y-29084498D01*
X163702909Y-28955909D01*
X163831498Y-28798207D01*
X163925709Y-28617849D01*
X163981686Y-28422218D01*
X163992300Y-28302837D01*
X163992299Y-26256364D01*
X163981686Y-26136982D01*
X163925709Y-25941351D01*
X163831498Y-25760993D01*
X163729456Y-25635848D01*
X163702909Y-25603290D01*
X163545209Y-25474704D01*
X163545210Y-25474704D01*
X163545207Y-25474702D01*
X163364849Y-25380491D01*
X163364848Y-25380490D01*
X163364845Y-25380489D01*
X163247629Y-25346950D01*
X163169218Y-25324514D01*
X163169215Y-25324513D01*
X163169213Y-25324513D01*
X163102902Y-25318617D01*
X163049837Y-25313900D01*
X163049832Y-25313900D01*
X161003371Y-25313900D01*
X161003365Y-25313900D01*
X161003364Y-25313901D01*
X160991716Y-25314936D01*
X160883984Y-25324513D01*
X160688354Y-25380489D01*
X160598172Y-25427596D01*
X160507993Y-25474702D01*
X160507991Y-25474703D01*
X160507990Y-25474704D01*
X160350288Y-25603292D01*
X160244152Y-25733460D01*
X160186532Y-25772978D01*
X160148050Y-25779100D01*
X156921753Y-25779100D01*
X156688481Y-25816046D01*
X156463853Y-25889033D01*
X156253415Y-25996257D01*
X156062338Y-26135084D01*
X154772084Y-27425338D01*
X154633255Y-27616417D01*
X154558167Y-27763789D01*
X154558167Y-27763790D01*
X154526033Y-27826853D01*
X154453046Y-28051481D01*
X154416100Y-28284752D01*
X141441460Y-28284752D01*
X141447240Y-28255694D01*
X141448043Y-28251651D01*
X141450789Y-28237850D01*
X141484500Y-27895569D01*
X141484500Y-27551631D01*
X141450789Y-27209350D01*
X141383690Y-26872022D01*
X141283850Y-26542895D01*
X141152231Y-26225138D01*
X141104095Y-26135083D01*
X140990106Y-25921824D01*
X140990105Y-25921822D01*
X140990100Y-25921813D01*
X140799019Y-25635840D01*
X140580828Y-25369973D01*
X140580827Y-25369972D01*
X140580823Y-25369967D01*
X140337632Y-25126776D01*
X140166706Y-24986501D01*
X140127372Y-24928756D01*
X140125501Y-24858911D01*
X140161688Y-24799143D01*
X140224444Y-24768427D01*
X140246001Y-24766650D01*
X180019287Y-24971739D01*
G37*
%TD.AperFunction*%
%TD*%
M02*
