M48
; DRILL file {KiCad 9.0.0} date 2025-05-27T12:16:44+0300
; FORMAT={-:-/ absolute / metric / decimal}
; #@! TF.CreationDate,2025-05-27T12:16:44+03:00
; #@! TF.GenerationSoftware,Kicad,Pcbnew,9.0.0
; #@! TF.FileFunction,Plated,1,4,PTH
FMAT,2
METRIC
; #@! TA.AperFunction,Plated,PTH,ComponentDrill
T1C0.700
; #@! TA.AperFunction,Plated,PTH,ComponentDrill
T2C0.800
; #@! TA.AperFunction,Plated,PTH,ComponentDrill
T3C0.900
; #@! TA.AperFunction,Plated,PTH,ComponentDrill
T4C0.950
; #@! TA.AperFunction,Plated,PTH,ComponentDrill
T5C1.000
; #@! TA.AperFunction,Plated,PTH,ComponentDrill
T6C1.100
; #@! TA.AperFunction,Plated,PTH,ComponentDrill
T7C1.300
%
G90
G05
T1
X137.643Y-64.11
X137.643Y-66.65
X142.723Y-64.11
X142.723Y-66.65
X145.263Y-47.605
X145.263Y-52.685
X162.027Y-27.28
X162.027Y-29.82
X162.027Y-32.36
X162.027Y-34.9
T2
X168.671Y-39.218
X173.671Y-39.218
X179.807Y-40.274
X179.807Y-42.774
X180.061Y-47.552
X180.061Y-50.052
T3
X138.659Y-59.03
X138.659Y-72.746
X139.675Y-47.605
X139.675Y-50.145
X141.199Y-59.03
X141.199Y-72.746
T4
X139.675Y-36.678
X139.675Y-39.178
X139.675Y-41.678
X170.066Y-59.03
X170.066Y-68.682
X172.566Y-59.03
X172.566Y-68.682
X175.066Y-59.03
X175.066Y-68.682
X177.566Y-59.03
X177.566Y-68.682
X180.066Y-59.03
X180.066Y-68.682
T5
X148.819Y-43.74
X148.819Y-46.28
X148.819Y-48.82
X148.819Y-51.36
X148.819Y-53.9
X148.819Y-56.44
X148.819Y-58.98
X148.819Y-61.52
X148.819Y-64.06
X148.819Y-66.6
X148.819Y-69.14
X148.819Y-71.68
X148.819Y-74.22
X148.819Y-76.76
X148.819Y-79.3
X164.059Y-43.74
X164.059Y-46.28
X164.059Y-48.82
X164.059Y-51.36
X164.059Y-53.9
X164.059Y-56.44
X164.059Y-58.98
X164.059Y-61.52
X164.059Y-64.06
X164.059Y-66.6
X164.059Y-69.14
X164.059Y-71.68
X164.059Y-74.22
X164.059Y-76.76
X164.059Y-79.3
X177.521Y-74.016
X177.526Y-54.458
X179.04Y-35.408
X180.061Y-74.016
X180.066Y-54.458
X181.58Y-35.408
T6
X168.631Y-43.282
X168.631Y-49.782
X173.131Y-43.282
X173.131Y-49.782
T7
X166.853Y-31.09
X171.853Y-31.09
M30
