M48
; DRILL file {KiCad 9.0.1} date 2025-07-06T08:30:01+0300
; FORMAT={-:-/ absolute / metric / decimal}
; #@! TF.CreationDate,2025-07-06T08:30:01+03:00
; #@! TF.GenerationSoftware,Kicad,Pcbnew,9.0.1
; #@! TF.FileFunction,Plated,1,4,PTH
FMAT,2
METRIC
; #@! TA.AperFunction,Plated,PTH,ComponentDrill
T1C0.500
; #@! TA.AperFunction,Plated,PTH,ComponentDrill
T2C0.700
; #@! TA.AperFunction,Plated,PTH,ComponentDrill
T3C0.800
; #@! TA.AperFunction,Plated,PTH,ComponentDrill
T4C0.900
; #@! TA.AperFunction,Plated,PTH,ComponentDrill
T5C0.950
; #@! TA.AperFunction,Plated,PTH,ComponentDrill
T6C1.000
; #@! TA.AperFunction,Plated,PTH,ComponentDrill
T7C1.300
; #@! TA.AperFunction,Plated,PTH,ComponentDrill
T8C2.500
%
G90
G05
T1
X136.109Y-27.724
X136.109Y-83.524
X136.658Y-26.398
X136.658Y-29.049
X136.658Y-82.198
X136.658Y-84.849
X137.984Y-25.849
X137.984Y-29.599
X137.984Y-81.649
X137.984Y-85.399
X139.31Y-26.398
X139.31Y-29.049
X139.31Y-82.198
X139.31Y-84.849
X139.859Y-27.724
X139.859Y-83.524
X180.642Y-27.724
X180.642Y-83.524
X181.191Y-26.398
X181.191Y-29.049
X181.191Y-82.198
X181.191Y-84.849
X182.517Y-25.849
X182.517Y-29.599
X182.517Y-81.649
X182.517Y-85.399
X183.842Y-26.398
X183.842Y-29.049
X183.842Y-82.198
X183.842Y-84.849
X184.392Y-27.724
X184.392Y-83.524
T2
X144.217Y-63.048
X144.217Y-68.128
X144.967Y-55.308
X144.967Y-60.388
X145.263Y-47.605
X145.263Y-52.685
X162.027Y-27.28
X162.027Y-29.82
X162.027Y-32.36
X162.027Y-34.9
T3
X168.767Y-41.298
X171.267Y-41.298
X176.434Y-41.298
X178.934Y-41.298
T4
X139.675Y-47.605
X139.675Y-50.145
X139.675Y-55.348
X139.675Y-57.888
X139.675Y-63.598
X139.675Y-66.138
T5
X139.675Y-34.798
X139.675Y-37.298
X139.675Y-39.798
X144.317Y-72.498
X144.317Y-74.998
X144.317Y-77.498
X144.317Y-79.998
X144.317Y-82.498
X170.167Y-52.798
X170.167Y-60.848
X172.667Y-52.798
X172.667Y-60.848
X175.167Y-52.798
X175.167Y-60.848
X177.667Y-52.798
X177.667Y-60.848
X180.167Y-52.798
X180.167Y-60.848
T6
X148.819Y-43.74
X148.819Y-46.28
X148.819Y-48.82
X148.819Y-51.36
X148.819Y-53.9
X148.819Y-56.44
X148.819Y-58.98
X148.819Y-61.52
X148.819Y-64.06
X148.819Y-66.6
X148.819Y-69.14
X148.819Y-71.68
X148.819Y-74.22
X148.819Y-76.76
X148.819Y-79.3
X164.059Y-43.74
X164.059Y-46.28
X164.059Y-48.82
X164.059Y-51.36
X164.059Y-53.9
X164.059Y-56.44
X164.059Y-58.98
X164.059Y-61.52
X164.059Y-64.06
X164.059Y-66.6
X164.059Y-69.14
X164.059Y-71.68
X164.059Y-74.22
X164.059Y-76.76
X164.059Y-79.3
X178.217Y-32.093
X178.217Y-34.633
X178.827Y-47.748
X178.877Y-67.298
X181.367Y-47.748
X181.417Y-67.298
T7
X167.367Y-31.048
X172.367Y-31.048
T8
X137.984Y-27.724
X137.984Y-83.524
X182.517Y-27.724
X182.517Y-83.524
M30
