%TF.GenerationSoftware,KiCad,Pcbnew,9.0.0*%
%TF.CreationDate,2025-05-27T12:16:38+03:00*%
%TF.ProjectId,Dual_Wind_Sensor-NANO_noReg,4475616c-5f57-4696-9e64-5f53656e736f,rev?*%
%TF.SameCoordinates,Original*%
%TF.FileFunction,Soldermask,Bot*%
%TF.FilePolarity,Negative*%
%FSLAX46Y46*%
G04 Gerber Fmt 4.6, Leading zero omitted, Abs format (unit mm)*
G04 Created by KiCad (PCBNEW 9.0.0) date 2025-05-27 12:16:38*
%MOMM*%
%LPD*%
G01*
G04 APERTURE LIST*
%ADD10C,0.100000*%
%ADD11C,0.150000*%
%ADD12C,0.300000*%
%ADD13C,0.400000*%
G04 APERTURE END LIST*
D10*
D11*
X177002200Y-166007200D02*
X285002200Y-166007200D01*
X285002200Y-198007200D01*
X177002200Y-198007200D01*
X177002200Y-166007200D01*
D10*
D11*
X10000000Y-10000000D02*
X287002200Y-10000000D01*
X287002200Y-200007200D01*
X10000000Y-200007200D01*
X10000000Y-10000000D01*
D10*
D11*
X12000000Y-12000000D02*
X285002200Y-12000000D01*
X285002200Y-198007200D01*
X12000000Y-198007200D01*
X12000000Y-12000000D01*
D10*
D11*
X60000000Y-12000000D02*
X60000000Y-10000000D01*
D10*
D11*
X110000000Y-12000000D02*
X110000000Y-10000000D01*
D10*
D11*
X160000000Y-12000000D02*
X160000000Y-10000000D01*
D10*
D11*
X210000000Y-12000000D02*
X210000000Y-10000000D01*
D10*
D11*
X260000000Y-12000000D02*
X260000000Y-10000000D01*
D10*
D11*
X36089160Y-11593604D02*
X35346303Y-11593604D01*
X35717731Y-11593604D02*
X35717731Y-10293604D01*
X35717731Y-10293604D02*
X35593922Y-10479319D01*
X35593922Y-10479319D02*
X35470112Y-10603128D01*
X35470112Y-10603128D02*
X35346303Y-10665033D01*
D10*
D11*
X85346303Y-10417414D02*
X85408207Y-10355509D01*
X85408207Y-10355509D02*
X85532017Y-10293604D01*
X85532017Y-10293604D02*
X85841541Y-10293604D01*
X85841541Y-10293604D02*
X85965350Y-10355509D01*
X85965350Y-10355509D02*
X86027255Y-10417414D01*
X86027255Y-10417414D02*
X86089160Y-10541223D01*
X86089160Y-10541223D02*
X86089160Y-10665033D01*
X86089160Y-10665033D02*
X86027255Y-10850747D01*
X86027255Y-10850747D02*
X85284398Y-11593604D01*
X85284398Y-11593604D02*
X86089160Y-11593604D01*
D10*
D11*
X135284398Y-10293604D02*
X136089160Y-10293604D01*
X136089160Y-10293604D02*
X135655826Y-10788842D01*
X135655826Y-10788842D02*
X135841541Y-10788842D01*
X135841541Y-10788842D02*
X135965350Y-10850747D01*
X135965350Y-10850747D02*
X136027255Y-10912652D01*
X136027255Y-10912652D02*
X136089160Y-11036461D01*
X136089160Y-11036461D02*
X136089160Y-11345985D01*
X136089160Y-11345985D02*
X136027255Y-11469795D01*
X136027255Y-11469795D02*
X135965350Y-11531700D01*
X135965350Y-11531700D02*
X135841541Y-11593604D01*
X135841541Y-11593604D02*
X135470112Y-11593604D01*
X135470112Y-11593604D02*
X135346303Y-11531700D01*
X135346303Y-11531700D02*
X135284398Y-11469795D01*
D10*
D11*
X185965350Y-10726938D02*
X185965350Y-11593604D01*
X185655826Y-10231700D02*
X185346303Y-11160271D01*
X185346303Y-11160271D02*
X186151064Y-11160271D01*
D10*
D11*
X236027255Y-10293604D02*
X235408207Y-10293604D01*
X235408207Y-10293604D02*
X235346303Y-10912652D01*
X235346303Y-10912652D02*
X235408207Y-10850747D01*
X235408207Y-10850747D02*
X235532017Y-10788842D01*
X235532017Y-10788842D02*
X235841541Y-10788842D01*
X235841541Y-10788842D02*
X235965350Y-10850747D01*
X235965350Y-10850747D02*
X236027255Y-10912652D01*
X236027255Y-10912652D02*
X236089160Y-11036461D01*
X236089160Y-11036461D02*
X236089160Y-11345985D01*
X236089160Y-11345985D02*
X236027255Y-11469795D01*
X236027255Y-11469795D02*
X235965350Y-11531700D01*
X235965350Y-11531700D02*
X235841541Y-11593604D01*
X235841541Y-11593604D02*
X235532017Y-11593604D01*
X235532017Y-11593604D02*
X235408207Y-11531700D01*
X235408207Y-11531700D02*
X235346303Y-11469795D01*
D10*
D11*
X285965350Y-10293604D02*
X285717731Y-10293604D01*
X285717731Y-10293604D02*
X285593922Y-10355509D01*
X285593922Y-10355509D02*
X285532017Y-10417414D01*
X285532017Y-10417414D02*
X285408207Y-10603128D01*
X285408207Y-10603128D02*
X285346303Y-10850747D01*
X285346303Y-10850747D02*
X285346303Y-11345985D01*
X285346303Y-11345985D02*
X285408207Y-11469795D01*
X285408207Y-11469795D02*
X285470112Y-11531700D01*
X285470112Y-11531700D02*
X285593922Y-11593604D01*
X285593922Y-11593604D02*
X285841541Y-11593604D01*
X285841541Y-11593604D02*
X285965350Y-11531700D01*
X285965350Y-11531700D02*
X286027255Y-11469795D01*
X286027255Y-11469795D02*
X286089160Y-11345985D01*
X286089160Y-11345985D02*
X286089160Y-11036461D01*
X286089160Y-11036461D02*
X286027255Y-10912652D01*
X286027255Y-10912652D02*
X285965350Y-10850747D01*
X285965350Y-10850747D02*
X285841541Y-10788842D01*
X285841541Y-10788842D02*
X285593922Y-10788842D01*
X285593922Y-10788842D02*
X285470112Y-10850747D01*
X285470112Y-10850747D02*
X285408207Y-10912652D01*
X285408207Y-10912652D02*
X285346303Y-11036461D01*
D10*
D11*
X60000000Y-198007200D02*
X60000000Y-200007200D01*
D10*
D11*
X110000000Y-198007200D02*
X110000000Y-200007200D01*
D10*
D11*
X160000000Y-198007200D02*
X160000000Y-200007200D01*
D10*
D11*
X210000000Y-198007200D02*
X210000000Y-200007200D01*
D10*
D11*
X260000000Y-198007200D02*
X260000000Y-200007200D01*
D10*
D11*
X36089160Y-199600804D02*
X35346303Y-199600804D01*
X35717731Y-199600804D02*
X35717731Y-198300804D01*
X35717731Y-198300804D02*
X35593922Y-198486519D01*
X35593922Y-198486519D02*
X35470112Y-198610328D01*
X35470112Y-198610328D02*
X35346303Y-198672233D01*
D10*
D11*
X85346303Y-198424614D02*
X85408207Y-198362709D01*
X85408207Y-198362709D02*
X85532017Y-198300804D01*
X85532017Y-198300804D02*
X85841541Y-198300804D01*
X85841541Y-198300804D02*
X85965350Y-198362709D01*
X85965350Y-198362709D02*
X86027255Y-198424614D01*
X86027255Y-198424614D02*
X86089160Y-198548423D01*
X86089160Y-198548423D02*
X86089160Y-198672233D01*
X86089160Y-198672233D02*
X86027255Y-198857947D01*
X86027255Y-198857947D02*
X85284398Y-199600804D01*
X85284398Y-199600804D02*
X86089160Y-199600804D01*
D10*
D11*
X135284398Y-198300804D02*
X136089160Y-198300804D01*
X136089160Y-198300804D02*
X135655826Y-198796042D01*
X135655826Y-198796042D02*
X135841541Y-198796042D01*
X135841541Y-198796042D02*
X135965350Y-198857947D01*
X135965350Y-198857947D02*
X136027255Y-198919852D01*
X136027255Y-198919852D02*
X136089160Y-199043661D01*
X136089160Y-199043661D02*
X136089160Y-199353185D01*
X136089160Y-199353185D02*
X136027255Y-199476995D01*
X136027255Y-199476995D02*
X135965350Y-199538900D01*
X135965350Y-199538900D02*
X135841541Y-199600804D01*
X135841541Y-199600804D02*
X135470112Y-199600804D01*
X135470112Y-199600804D02*
X135346303Y-199538900D01*
X135346303Y-199538900D02*
X135284398Y-199476995D01*
D10*
D11*
X185965350Y-198734138D02*
X185965350Y-199600804D01*
X185655826Y-198238900D02*
X185346303Y-199167471D01*
X185346303Y-199167471D02*
X186151064Y-199167471D01*
D10*
D11*
X236027255Y-198300804D02*
X235408207Y-198300804D01*
X235408207Y-198300804D02*
X235346303Y-198919852D01*
X235346303Y-198919852D02*
X235408207Y-198857947D01*
X235408207Y-198857947D02*
X235532017Y-198796042D01*
X235532017Y-198796042D02*
X235841541Y-198796042D01*
X235841541Y-198796042D02*
X235965350Y-198857947D01*
X235965350Y-198857947D02*
X236027255Y-198919852D01*
X236027255Y-198919852D02*
X236089160Y-199043661D01*
X236089160Y-199043661D02*
X236089160Y-199353185D01*
X236089160Y-199353185D02*
X236027255Y-199476995D01*
X236027255Y-199476995D02*
X235965350Y-199538900D01*
X235965350Y-199538900D02*
X235841541Y-199600804D01*
X235841541Y-199600804D02*
X235532017Y-199600804D01*
X235532017Y-199600804D02*
X235408207Y-199538900D01*
X235408207Y-199538900D02*
X235346303Y-199476995D01*
D10*
D11*
X285965350Y-198300804D02*
X285717731Y-198300804D01*
X285717731Y-198300804D02*
X285593922Y-198362709D01*
X285593922Y-198362709D02*
X285532017Y-198424614D01*
X285532017Y-198424614D02*
X285408207Y-198610328D01*
X285408207Y-198610328D02*
X285346303Y-198857947D01*
X285346303Y-198857947D02*
X285346303Y-199353185D01*
X285346303Y-199353185D02*
X285408207Y-199476995D01*
X285408207Y-199476995D02*
X285470112Y-199538900D01*
X285470112Y-199538900D02*
X285593922Y-199600804D01*
X285593922Y-199600804D02*
X285841541Y-199600804D01*
X285841541Y-199600804D02*
X285965350Y-199538900D01*
X285965350Y-199538900D02*
X286027255Y-199476995D01*
X286027255Y-199476995D02*
X286089160Y-199353185D01*
X286089160Y-199353185D02*
X286089160Y-199043661D01*
X286089160Y-199043661D02*
X286027255Y-198919852D01*
X286027255Y-198919852D02*
X285965350Y-198857947D01*
X285965350Y-198857947D02*
X285841541Y-198796042D01*
X285841541Y-198796042D02*
X285593922Y-198796042D01*
X285593922Y-198796042D02*
X285470112Y-198857947D01*
X285470112Y-198857947D02*
X285408207Y-198919852D01*
X285408207Y-198919852D02*
X285346303Y-199043661D01*
D10*
D11*
X10000000Y-60000000D02*
X12000000Y-60000000D01*
D10*
D11*
X10000000Y-110000000D02*
X12000000Y-110000000D01*
D10*
D11*
X10000000Y-160000000D02*
X12000000Y-160000000D01*
D10*
D11*
X10690476Y-35222176D02*
X11309523Y-35222176D01*
X10566666Y-35593604D02*
X10999999Y-34293604D01*
X10999999Y-34293604D02*
X11433333Y-35593604D01*
D10*
D11*
X11092857Y-84912652D02*
X11278571Y-84974557D01*
X11278571Y-84974557D02*
X11340476Y-85036461D01*
X11340476Y-85036461D02*
X11402380Y-85160271D01*
X11402380Y-85160271D02*
X11402380Y-85345985D01*
X11402380Y-85345985D02*
X11340476Y-85469795D01*
X11340476Y-85469795D02*
X11278571Y-85531700D01*
X11278571Y-85531700D02*
X11154761Y-85593604D01*
X11154761Y-85593604D02*
X10659523Y-85593604D01*
X10659523Y-85593604D02*
X10659523Y-84293604D01*
X10659523Y-84293604D02*
X11092857Y-84293604D01*
X11092857Y-84293604D02*
X11216666Y-84355509D01*
X11216666Y-84355509D02*
X11278571Y-84417414D01*
X11278571Y-84417414D02*
X11340476Y-84541223D01*
X11340476Y-84541223D02*
X11340476Y-84665033D01*
X11340476Y-84665033D02*
X11278571Y-84788842D01*
X11278571Y-84788842D02*
X11216666Y-84850747D01*
X11216666Y-84850747D02*
X11092857Y-84912652D01*
X11092857Y-84912652D02*
X10659523Y-84912652D01*
D10*
D11*
X11402380Y-135469795D02*
X11340476Y-135531700D01*
X11340476Y-135531700D02*
X11154761Y-135593604D01*
X11154761Y-135593604D02*
X11030952Y-135593604D01*
X11030952Y-135593604D02*
X10845238Y-135531700D01*
X10845238Y-135531700D02*
X10721428Y-135407890D01*
X10721428Y-135407890D02*
X10659523Y-135284080D01*
X10659523Y-135284080D02*
X10597619Y-135036461D01*
X10597619Y-135036461D02*
X10597619Y-134850747D01*
X10597619Y-134850747D02*
X10659523Y-134603128D01*
X10659523Y-134603128D02*
X10721428Y-134479319D01*
X10721428Y-134479319D02*
X10845238Y-134355509D01*
X10845238Y-134355509D02*
X11030952Y-134293604D01*
X11030952Y-134293604D02*
X11154761Y-134293604D01*
X11154761Y-134293604D02*
X11340476Y-134355509D01*
X11340476Y-134355509D02*
X11402380Y-134417414D01*
D10*
D11*
X10659523Y-185593604D02*
X10659523Y-184293604D01*
X10659523Y-184293604D02*
X10969047Y-184293604D01*
X10969047Y-184293604D02*
X11154761Y-184355509D01*
X11154761Y-184355509D02*
X11278571Y-184479319D01*
X11278571Y-184479319D02*
X11340476Y-184603128D01*
X11340476Y-184603128D02*
X11402380Y-184850747D01*
X11402380Y-184850747D02*
X11402380Y-185036461D01*
X11402380Y-185036461D02*
X11340476Y-185284080D01*
X11340476Y-185284080D02*
X11278571Y-185407890D01*
X11278571Y-185407890D02*
X11154761Y-185531700D01*
X11154761Y-185531700D02*
X10969047Y-185593604D01*
X10969047Y-185593604D02*
X10659523Y-185593604D01*
D10*
D11*
X287002200Y-60000000D02*
X285002200Y-60000000D01*
D10*
D11*
X287002200Y-110000000D02*
X285002200Y-110000000D01*
D10*
D11*
X287002200Y-160000000D02*
X285002200Y-160000000D01*
D10*
D11*
X285692676Y-35222176D02*
X286311723Y-35222176D01*
X285568866Y-35593604D02*
X286002199Y-34293604D01*
X286002199Y-34293604D02*
X286435533Y-35593604D01*
D10*
D11*
X286095057Y-84912652D02*
X286280771Y-84974557D01*
X286280771Y-84974557D02*
X286342676Y-85036461D01*
X286342676Y-85036461D02*
X286404580Y-85160271D01*
X286404580Y-85160271D02*
X286404580Y-85345985D01*
X286404580Y-85345985D02*
X286342676Y-85469795D01*
X286342676Y-85469795D02*
X286280771Y-85531700D01*
X286280771Y-85531700D02*
X286156961Y-85593604D01*
X286156961Y-85593604D02*
X285661723Y-85593604D01*
X285661723Y-85593604D02*
X285661723Y-84293604D01*
X285661723Y-84293604D02*
X286095057Y-84293604D01*
X286095057Y-84293604D02*
X286218866Y-84355509D01*
X286218866Y-84355509D02*
X286280771Y-84417414D01*
X286280771Y-84417414D02*
X286342676Y-84541223D01*
X286342676Y-84541223D02*
X286342676Y-84665033D01*
X286342676Y-84665033D02*
X286280771Y-84788842D01*
X286280771Y-84788842D02*
X286218866Y-84850747D01*
X286218866Y-84850747D02*
X286095057Y-84912652D01*
X286095057Y-84912652D02*
X285661723Y-84912652D01*
D10*
D11*
X286404580Y-135469795D02*
X286342676Y-135531700D01*
X286342676Y-135531700D02*
X286156961Y-135593604D01*
X286156961Y-135593604D02*
X286033152Y-135593604D01*
X286033152Y-135593604D02*
X285847438Y-135531700D01*
X285847438Y-135531700D02*
X285723628Y-135407890D01*
X285723628Y-135407890D02*
X285661723Y-135284080D01*
X285661723Y-135284080D02*
X285599819Y-135036461D01*
X285599819Y-135036461D02*
X285599819Y-134850747D01*
X285599819Y-134850747D02*
X285661723Y-134603128D01*
X285661723Y-134603128D02*
X285723628Y-134479319D01*
X285723628Y-134479319D02*
X285847438Y-134355509D01*
X285847438Y-134355509D02*
X286033152Y-134293604D01*
X286033152Y-134293604D02*
X286156961Y-134293604D01*
X286156961Y-134293604D02*
X286342676Y-134355509D01*
X286342676Y-134355509D02*
X286404580Y-134417414D01*
D10*
D11*
X285661723Y-185593604D02*
X285661723Y-184293604D01*
X285661723Y-184293604D02*
X285971247Y-184293604D01*
X285971247Y-184293604D02*
X286156961Y-184355509D01*
X286156961Y-184355509D02*
X286280771Y-184479319D01*
X286280771Y-184479319D02*
X286342676Y-184603128D01*
X286342676Y-184603128D02*
X286404580Y-184850747D01*
X286404580Y-184850747D02*
X286404580Y-185036461D01*
X286404580Y-185036461D02*
X286342676Y-185284080D01*
X286342676Y-185284080D02*
X286280771Y-185407890D01*
X286280771Y-185407890D02*
X286156961Y-185531700D01*
X286156961Y-185531700D02*
X285971247Y-185593604D01*
X285971247Y-185593604D02*
X285661723Y-185593604D01*
D10*
D11*
X200458026Y-193793328D02*
X200458026Y-192293328D01*
X200458026Y-192293328D02*
X200815169Y-192293328D01*
X200815169Y-192293328D02*
X201029455Y-192364757D01*
X201029455Y-192364757D02*
X201172312Y-192507614D01*
X201172312Y-192507614D02*
X201243741Y-192650471D01*
X201243741Y-192650471D02*
X201315169Y-192936185D01*
X201315169Y-192936185D02*
X201315169Y-193150471D01*
X201315169Y-193150471D02*
X201243741Y-193436185D01*
X201243741Y-193436185D02*
X201172312Y-193579042D01*
X201172312Y-193579042D02*
X201029455Y-193721900D01*
X201029455Y-193721900D02*
X200815169Y-193793328D01*
X200815169Y-193793328D02*
X200458026Y-193793328D01*
X202600884Y-193793328D02*
X202600884Y-193007614D01*
X202600884Y-193007614D02*
X202529455Y-192864757D01*
X202529455Y-192864757D02*
X202386598Y-192793328D01*
X202386598Y-192793328D02*
X202100884Y-192793328D01*
X202100884Y-192793328D02*
X201958026Y-192864757D01*
X202600884Y-193721900D02*
X202458026Y-193793328D01*
X202458026Y-193793328D02*
X202100884Y-193793328D01*
X202100884Y-193793328D02*
X201958026Y-193721900D01*
X201958026Y-193721900D02*
X201886598Y-193579042D01*
X201886598Y-193579042D02*
X201886598Y-193436185D01*
X201886598Y-193436185D02*
X201958026Y-193293328D01*
X201958026Y-193293328D02*
X202100884Y-193221900D01*
X202100884Y-193221900D02*
X202458026Y-193221900D01*
X202458026Y-193221900D02*
X202600884Y-193150471D01*
X203100884Y-192793328D02*
X203672312Y-192793328D01*
X203315169Y-192293328D02*
X203315169Y-193579042D01*
X203315169Y-193579042D02*
X203386598Y-193721900D01*
X203386598Y-193721900D02*
X203529455Y-193793328D01*
X203529455Y-193793328D02*
X203672312Y-193793328D01*
X204743741Y-193721900D02*
X204600884Y-193793328D01*
X204600884Y-193793328D02*
X204315170Y-193793328D01*
X204315170Y-193793328D02*
X204172312Y-193721900D01*
X204172312Y-193721900D02*
X204100884Y-193579042D01*
X204100884Y-193579042D02*
X204100884Y-193007614D01*
X204100884Y-193007614D02*
X204172312Y-192864757D01*
X204172312Y-192864757D02*
X204315170Y-192793328D01*
X204315170Y-192793328D02*
X204600884Y-192793328D01*
X204600884Y-192793328D02*
X204743741Y-192864757D01*
X204743741Y-192864757D02*
X204815170Y-193007614D01*
X204815170Y-193007614D02*
X204815170Y-193150471D01*
X204815170Y-193150471D02*
X204100884Y-193293328D01*
X205458026Y-193650471D02*
X205529455Y-193721900D01*
X205529455Y-193721900D02*
X205458026Y-193793328D01*
X205458026Y-193793328D02*
X205386598Y-193721900D01*
X205386598Y-193721900D02*
X205458026Y-193650471D01*
X205458026Y-193650471D02*
X205458026Y-193793328D01*
X205458026Y-192864757D02*
X205529455Y-192936185D01*
X205529455Y-192936185D02*
X205458026Y-193007614D01*
X205458026Y-193007614D02*
X205386598Y-192936185D01*
X205386598Y-192936185D02*
X205458026Y-192864757D01*
X205458026Y-192864757D02*
X205458026Y-193007614D01*
D10*
D11*
X177002200Y-194507200D02*
X285002200Y-194507200D01*
D10*
D11*
X178458026Y-196593328D02*
X178458026Y-195093328D01*
X179315169Y-196593328D02*
X178672312Y-195736185D01*
X179315169Y-195093328D02*
X178458026Y-195950471D01*
X179958026Y-196593328D02*
X179958026Y-195593328D01*
X179958026Y-195093328D02*
X179886598Y-195164757D01*
X179886598Y-195164757D02*
X179958026Y-195236185D01*
X179958026Y-195236185D02*
X180029455Y-195164757D01*
X180029455Y-195164757D02*
X179958026Y-195093328D01*
X179958026Y-195093328D02*
X179958026Y-195236185D01*
X181529455Y-196450471D02*
X181458027Y-196521900D01*
X181458027Y-196521900D02*
X181243741Y-196593328D01*
X181243741Y-196593328D02*
X181100884Y-196593328D01*
X181100884Y-196593328D02*
X180886598Y-196521900D01*
X180886598Y-196521900D02*
X180743741Y-196379042D01*
X180743741Y-196379042D02*
X180672312Y-196236185D01*
X180672312Y-196236185D02*
X180600884Y-195950471D01*
X180600884Y-195950471D02*
X180600884Y-195736185D01*
X180600884Y-195736185D02*
X180672312Y-195450471D01*
X180672312Y-195450471D02*
X180743741Y-195307614D01*
X180743741Y-195307614D02*
X180886598Y-195164757D01*
X180886598Y-195164757D02*
X181100884Y-195093328D01*
X181100884Y-195093328D02*
X181243741Y-195093328D01*
X181243741Y-195093328D02*
X181458027Y-195164757D01*
X181458027Y-195164757D02*
X181529455Y-195236185D01*
X182815170Y-196593328D02*
X182815170Y-195807614D01*
X182815170Y-195807614D02*
X182743741Y-195664757D01*
X182743741Y-195664757D02*
X182600884Y-195593328D01*
X182600884Y-195593328D02*
X182315170Y-195593328D01*
X182315170Y-195593328D02*
X182172312Y-195664757D01*
X182815170Y-196521900D02*
X182672312Y-196593328D01*
X182672312Y-196593328D02*
X182315170Y-196593328D01*
X182315170Y-196593328D02*
X182172312Y-196521900D01*
X182172312Y-196521900D02*
X182100884Y-196379042D01*
X182100884Y-196379042D02*
X182100884Y-196236185D01*
X182100884Y-196236185D02*
X182172312Y-196093328D01*
X182172312Y-196093328D02*
X182315170Y-196021900D01*
X182315170Y-196021900D02*
X182672312Y-196021900D01*
X182672312Y-196021900D02*
X182815170Y-195950471D01*
X184172313Y-196593328D02*
X184172313Y-195093328D01*
X184172313Y-196521900D02*
X184029455Y-196593328D01*
X184029455Y-196593328D02*
X183743741Y-196593328D01*
X183743741Y-196593328D02*
X183600884Y-196521900D01*
X183600884Y-196521900D02*
X183529455Y-196450471D01*
X183529455Y-196450471D02*
X183458027Y-196307614D01*
X183458027Y-196307614D02*
X183458027Y-195879042D01*
X183458027Y-195879042D02*
X183529455Y-195736185D01*
X183529455Y-195736185D02*
X183600884Y-195664757D01*
X183600884Y-195664757D02*
X183743741Y-195593328D01*
X183743741Y-195593328D02*
X184029455Y-195593328D01*
X184029455Y-195593328D02*
X184172313Y-195664757D01*
X186029455Y-195807614D02*
X186529455Y-195807614D01*
X186743741Y-196593328D02*
X186029455Y-196593328D01*
X186029455Y-196593328D02*
X186029455Y-195093328D01*
X186029455Y-195093328D02*
X186743741Y-195093328D01*
X187386598Y-196450471D02*
X187458027Y-196521900D01*
X187458027Y-196521900D02*
X187386598Y-196593328D01*
X187386598Y-196593328D02*
X187315170Y-196521900D01*
X187315170Y-196521900D02*
X187386598Y-196450471D01*
X187386598Y-196450471D02*
X187386598Y-196593328D01*
X188100884Y-196593328D02*
X188100884Y-195093328D01*
X188100884Y-195093328D02*
X188458027Y-195093328D01*
X188458027Y-195093328D02*
X188672313Y-195164757D01*
X188672313Y-195164757D02*
X188815170Y-195307614D01*
X188815170Y-195307614D02*
X188886599Y-195450471D01*
X188886599Y-195450471D02*
X188958027Y-195736185D01*
X188958027Y-195736185D02*
X188958027Y-195950471D01*
X188958027Y-195950471D02*
X188886599Y-196236185D01*
X188886599Y-196236185D02*
X188815170Y-196379042D01*
X188815170Y-196379042D02*
X188672313Y-196521900D01*
X188672313Y-196521900D02*
X188458027Y-196593328D01*
X188458027Y-196593328D02*
X188100884Y-196593328D01*
X189600884Y-196450471D02*
X189672313Y-196521900D01*
X189672313Y-196521900D02*
X189600884Y-196593328D01*
X189600884Y-196593328D02*
X189529456Y-196521900D01*
X189529456Y-196521900D02*
X189600884Y-196450471D01*
X189600884Y-196450471D02*
X189600884Y-196593328D01*
X190243742Y-196164757D02*
X190958028Y-196164757D01*
X190100885Y-196593328D02*
X190600885Y-195093328D01*
X190600885Y-195093328D02*
X191100885Y-196593328D01*
X191600884Y-196450471D02*
X191672313Y-196521900D01*
X191672313Y-196521900D02*
X191600884Y-196593328D01*
X191600884Y-196593328D02*
X191529456Y-196521900D01*
X191529456Y-196521900D02*
X191600884Y-196450471D01*
X191600884Y-196450471D02*
X191600884Y-196593328D01*
X193529456Y-196593328D02*
X193815170Y-196593328D01*
X193815170Y-196593328D02*
X193958027Y-196521900D01*
X193958027Y-196521900D02*
X194029456Y-196450471D01*
X194029456Y-196450471D02*
X194172313Y-196236185D01*
X194172313Y-196236185D02*
X194243742Y-195950471D01*
X194243742Y-195950471D02*
X194243742Y-195379042D01*
X194243742Y-195379042D02*
X194172313Y-195236185D01*
X194172313Y-195236185D02*
X194100885Y-195164757D01*
X194100885Y-195164757D02*
X193958027Y-195093328D01*
X193958027Y-195093328D02*
X193672313Y-195093328D01*
X193672313Y-195093328D02*
X193529456Y-195164757D01*
X193529456Y-195164757D02*
X193458027Y-195236185D01*
X193458027Y-195236185D02*
X193386599Y-195379042D01*
X193386599Y-195379042D02*
X193386599Y-195736185D01*
X193386599Y-195736185D02*
X193458027Y-195879042D01*
X193458027Y-195879042D02*
X193529456Y-195950471D01*
X193529456Y-195950471D02*
X193672313Y-196021900D01*
X193672313Y-196021900D02*
X193958027Y-196021900D01*
X193958027Y-196021900D02*
X194100885Y-195950471D01*
X194100885Y-195950471D02*
X194172313Y-195879042D01*
X194172313Y-195879042D02*
X194243742Y-195736185D01*
X194886598Y-196450471D02*
X194958027Y-196521900D01*
X194958027Y-196521900D02*
X194886598Y-196593328D01*
X194886598Y-196593328D02*
X194815170Y-196521900D01*
X194815170Y-196521900D02*
X194886598Y-196450471D01*
X194886598Y-196450471D02*
X194886598Y-196593328D01*
X195886599Y-195093328D02*
X196029456Y-195093328D01*
X196029456Y-195093328D02*
X196172313Y-195164757D01*
X196172313Y-195164757D02*
X196243742Y-195236185D01*
X196243742Y-195236185D02*
X196315170Y-195379042D01*
X196315170Y-195379042D02*
X196386599Y-195664757D01*
X196386599Y-195664757D02*
X196386599Y-196021900D01*
X196386599Y-196021900D02*
X196315170Y-196307614D01*
X196315170Y-196307614D02*
X196243742Y-196450471D01*
X196243742Y-196450471D02*
X196172313Y-196521900D01*
X196172313Y-196521900D02*
X196029456Y-196593328D01*
X196029456Y-196593328D02*
X195886599Y-196593328D01*
X195886599Y-196593328D02*
X195743742Y-196521900D01*
X195743742Y-196521900D02*
X195672313Y-196450471D01*
X195672313Y-196450471D02*
X195600884Y-196307614D01*
X195600884Y-196307614D02*
X195529456Y-196021900D01*
X195529456Y-196021900D02*
X195529456Y-195664757D01*
X195529456Y-195664757D02*
X195600884Y-195379042D01*
X195600884Y-195379042D02*
X195672313Y-195236185D01*
X195672313Y-195236185D02*
X195743742Y-195164757D01*
X195743742Y-195164757D02*
X195886599Y-195093328D01*
X197029455Y-196450471D02*
X197100884Y-196521900D01*
X197100884Y-196521900D02*
X197029455Y-196593328D01*
X197029455Y-196593328D02*
X196958027Y-196521900D01*
X196958027Y-196521900D02*
X197029455Y-196450471D01*
X197029455Y-196450471D02*
X197029455Y-196593328D01*
X198029456Y-195093328D02*
X198172313Y-195093328D01*
X198172313Y-195093328D02*
X198315170Y-195164757D01*
X198315170Y-195164757D02*
X198386599Y-195236185D01*
X198386599Y-195236185D02*
X198458027Y-195379042D01*
X198458027Y-195379042D02*
X198529456Y-195664757D01*
X198529456Y-195664757D02*
X198529456Y-196021900D01*
X198529456Y-196021900D02*
X198458027Y-196307614D01*
X198458027Y-196307614D02*
X198386599Y-196450471D01*
X198386599Y-196450471D02*
X198315170Y-196521900D01*
X198315170Y-196521900D02*
X198172313Y-196593328D01*
X198172313Y-196593328D02*
X198029456Y-196593328D01*
X198029456Y-196593328D02*
X197886599Y-196521900D01*
X197886599Y-196521900D02*
X197815170Y-196450471D01*
X197815170Y-196450471D02*
X197743741Y-196307614D01*
X197743741Y-196307614D02*
X197672313Y-196021900D01*
X197672313Y-196021900D02*
X197672313Y-195664757D01*
X197672313Y-195664757D02*
X197743741Y-195379042D01*
X197743741Y-195379042D02*
X197815170Y-195236185D01*
X197815170Y-195236185D02*
X197886599Y-195164757D01*
X197886599Y-195164757D02*
X198029456Y-195093328D01*
D10*
D11*
X177002200Y-191507200D02*
X285002200Y-191507200D01*
D10*
D12*
X264413853Y-193785528D02*
X263913853Y-193071242D01*
X263556710Y-193785528D02*
X263556710Y-192285528D01*
X263556710Y-192285528D02*
X264128139Y-192285528D01*
X264128139Y-192285528D02*
X264270996Y-192356957D01*
X264270996Y-192356957D02*
X264342425Y-192428385D01*
X264342425Y-192428385D02*
X264413853Y-192571242D01*
X264413853Y-192571242D02*
X264413853Y-192785528D01*
X264413853Y-192785528D02*
X264342425Y-192928385D01*
X264342425Y-192928385D02*
X264270996Y-192999814D01*
X264270996Y-192999814D02*
X264128139Y-193071242D01*
X264128139Y-193071242D02*
X263556710Y-193071242D01*
X265628139Y-193714100D02*
X265485282Y-193785528D01*
X265485282Y-193785528D02*
X265199568Y-193785528D01*
X265199568Y-193785528D02*
X265056710Y-193714100D01*
X265056710Y-193714100D02*
X264985282Y-193571242D01*
X264985282Y-193571242D02*
X264985282Y-192999814D01*
X264985282Y-192999814D02*
X265056710Y-192856957D01*
X265056710Y-192856957D02*
X265199568Y-192785528D01*
X265199568Y-192785528D02*
X265485282Y-192785528D01*
X265485282Y-192785528D02*
X265628139Y-192856957D01*
X265628139Y-192856957D02*
X265699568Y-192999814D01*
X265699568Y-192999814D02*
X265699568Y-193142671D01*
X265699568Y-193142671D02*
X264985282Y-193285528D01*
X266199567Y-192785528D02*
X266556710Y-193785528D01*
X266556710Y-193785528D02*
X266913853Y-192785528D01*
X267485281Y-193642671D02*
X267556710Y-193714100D01*
X267556710Y-193714100D02*
X267485281Y-193785528D01*
X267485281Y-193785528D02*
X267413853Y-193714100D01*
X267413853Y-193714100D02*
X267485281Y-193642671D01*
X267485281Y-193642671D02*
X267485281Y-193785528D01*
X267485281Y-192856957D02*
X267556710Y-192928385D01*
X267556710Y-192928385D02*
X267485281Y-192999814D01*
X267485281Y-192999814D02*
X267413853Y-192928385D01*
X267413853Y-192928385D02*
X267485281Y-192856957D01*
X267485281Y-192856957D02*
X267485281Y-192999814D01*
D10*
D11*
X178386598Y-193721900D02*
X178600884Y-193793328D01*
X178600884Y-193793328D02*
X178958026Y-193793328D01*
X178958026Y-193793328D02*
X179100884Y-193721900D01*
X179100884Y-193721900D02*
X179172312Y-193650471D01*
X179172312Y-193650471D02*
X179243741Y-193507614D01*
X179243741Y-193507614D02*
X179243741Y-193364757D01*
X179243741Y-193364757D02*
X179172312Y-193221900D01*
X179172312Y-193221900D02*
X179100884Y-193150471D01*
X179100884Y-193150471D02*
X178958026Y-193079042D01*
X178958026Y-193079042D02*
X178672312Y-193007614D01*
X178672312Y-193007614D02*
X178529455Y-192936185D01*
X178529455Y-192936185D02*
X178458026Y-192864757D01*
X178458026Y-192864757D02*
X178386598Y-192721900D01*
X178386598Y-192721900D02*
X178386598Y-192579042D01*
X178386598Y-192579042D02*
X178458026Y-192436185D01*
X178458026Y-192436185D02*
X178529455Y-192364757D01*
X178529455Y-192364757D02*
X178672312Y-192293328D01*
X178672312Y-192293328D02*
X179029455Y-192293328D01*
X179029455Y-192293328D02*
X179243741Y-192364757D01*
X179886597Y-193793328D02*
X179886597Y-192793328D01*
X179886597Y-192293328D02*
X179815169Y-192364757D01*
X179815169Y-192364757D02*
X179886597Y-192436185D01*
X179886597Y-192436185D02*
X179958026Y-192364757D01*
X179958026Y-192364757D02*
X179886597Y-192293328D01*
X179886597Y-192293328D02*
X179886597Y-192436185D01*
X180458026Y-192793328D02*
X181243741Y-192793328D01*
X181243741Y-192793328D02*
X180458026Y-193793328D01*
X180458026Y-193793328D02*
X181243741Y-193793328D01*
X182386598Y-193721900D02*
X182243741Y-193793328D01*
X182243741Y-193793328D02*
X181958027Y-193793328D01*
X181958027Y-193793328D02*
X181815169Y-193721900D01*
X181815169Y-193721900D02*
X181743741Y-193579042D01*
X181743741Y-193579042D02*
X181743741Y-193007614D01*
X181743741Y-193007614D02*
X181815169Y-192864757D01*
X181815169Y-192864757D02*
X181958027Y-192793328D01*
X181958027Y-192793328D02*
X182243741Y-192793328D01*
X182243741Y-192793328D02*
X182386598Y-192864757D01*
X182386598Y-192864757D02*
X182458027Y-193007614D01*
X182458027Y-193007614D02*
X182458027Y-193150471D01*
X182458027Y-193150471D02*
X181743741Y-193293328D01*
X183100883Y-193650471D02*
X183172312Y-193721900D01*
X183172312Y-193721900D02*
X183100883Y-193793328D01*
X183100883Y-193793328D02*
X183029455Y-193721900D01*
X183029455Y-193721900D02*
X183100883Y-193650471D01*
X183100883Y-193650471D02*
X183100883Y-193793328D01*
X183100883Y-192864757D02*
X183172312Y-192936185D01*
X183172312Y-192936185D02*
X183100883Y-193007614D01*
X183100883Y-193007614D02*
X183029455Y-192936185D01*
X183029455Y-192936185D02*
X183100883Y-192864757D01*
X183100883Y-192864757D02*
X183100883Y-193007614D01*
X184886598Y-193364757D02*
X185600884Y-193364757D01*
X184743741Y-193793328D02*
X185243741Y-192293328D01*
X185243741Y-192293328D02*
X185743741Y-193793328D01*
X186886598Y-192793328D02*
X186886598Y-193793328D01*
X186529455Y-192221900D02*
X186172312Y-193293328D01*
X186172312Y-193293328D02*
X187100883Y-193293328D01*
D10*
D11*
X263458026Y-196593328D02*
X263458026Y-195093328D01*
X264815170Y-196593328D02*
X264815170Y-195093328D01*
X264815170Y-196521900D02*
X264672312Y-196593328D01*
X264672312Y-196593328D02*
X264386598Y-196593328D01*
X264386598Y-196593328D02*
X264243741Y-196521900D01*
X264243741Y-196521900D02*
X264172312Y-196450471D01*
X264172312Y-196450471D02*
X264100884Y-196307614D01*
X264100884Y-196307614D02*
X264100884Y-195879042D01*
X264100884Y-195879042D02*
X264172312Y-195736185D01*
X264172312Y-195736185D02*
X264243741Y-195664757D01*
X264243741Y-195664757D02*
X264386598Y-195593328D01*
X264386598Y-195593328D02*
X264672312Y-195593328D01*
X264672312Y-195593328D02*
X264815170Y-195664757D01*
X265529455Y-196450471D02*
X265600884Y-196521900D01*
X265600884Y-196521900D02*
X265529455Y-196593328D01*
X265529455Y-196593328D02*
X265458027Y-196521900D01*
X265458027Y-196521900D02*
X265529455Y-196450471D01*
X265529455Y-196450471D02*
X265529455Y-196593328D01*
X265529455Y-195664757D02*
X265600884Y-195736185D01*
X265600884Y-195736185D02*
X265529455Y-195807614D01*
X265529455Y-195807614D02*
X265458027Y-195736185D01*
X265458027Y-195736185D02*
X265529455Y-195664757D01*
X265529455Y-195664757D02*
X265529455Y-195807614D01*
X268172313Y-196593328D02*
X267315170Y-196593328D01*
X267743741Y-196593328D02*
X267743741Y-195093328D01*
X267743741Y-195093328D02*
X267600884Y-195307614D01*
X267600884Y-195307614D02*
X267458027Y-195450471D01*
X267458027Y-195450471D02*
X267315170Y-195521900D01*
X269100884Y-195093328D02*
X269243741Y-195093328D01*
X269243741Y-195093328D02*
X269386598Y-195164757D01*
X269386598Y-195164757D02*
X269458027Y-195236185D01*
X269458027Y-195236185D02*
X269529455Y-195379042D01*
X269529455Y-195379042D02*
X269600884Y-195664757D01*
X269600884Y-195664757D02*
X269600884Y-196021900D01*
X269600884Y-196021900D02*
X269529455Y-196307614D01*
X269529455Y-196307614D02*
X269458027Y-196450471D01*
X269458027Y-196450471D02*
X269386598Y-196521900D01*
X269386598Y-196521900D02*
X269243741Y-196593328D01*
X269243741Y-196593328D02*
X269100884Y-196593328D01*
X269100884Y-196593328D02*
X268958027Y-196521900D01*
X268958027Y-196521900D02*
X268886598Y-196450471D01*
X268886598Y-196450471D02*
X268815169Y-196307614D01*
X268815169Y-196307614D02*
X268743741Y-196021900D01*
X268743741Y-196021900D02*
X268743741Y-195664757D01*
X268743741Y-195664757D02*
X268815169Y-195379042D01*
X268815169Y-195379042D02*
X268886598Y-195236185D01*
X268886598Y-195236185D02*
X268958027Y-195164757D01*
X268958027Y-195164757D02*
X269100884Y-195093328D01*
X271315169Y-195021900D02*
X270029455Y-196950471D01*
X272600884Y-196593328D02*
X271743741Y-196593328D01*
X272172312Y-196593328D02*
X272172312Y-195093328D01*
X272172312Y-195093328D02*
X272029455Y-195307614D01*
X272029455Y-195307614D02*
X271886598Y-195450471D01*
X271886598Y-195450471D02*
X271743741Y-195521900D01*
X274029455Y-196593328D02*
X273172312Y-196593328D01*
X273600883Y-196593328D02*
X273600883Y-195093328D01*
X273600883Y-195093328D02*
X273458026Y-195307614D01*
X273458026Y-195307614D02*
X273315169Y-195450471D01*
X273315169Y-195450471D02*
X273172312Y-195521900D01*
D10*
D11*
X177002200Y-187507200D02*
X285002200Y-187507200D01*
D10*
D13*
X178693928Y-188211638D02*
X179836785Y-188211638D01*
X179015357Y-190211638D02*
X179265357Y-188211638D01*
X180253452Y-190211638D02*
X180420119Y-188878304D01*
X180503452Y-188211638D02*
X180396309Y-188306876D01*
X180396309Y-188306876D02*
X180479643Y-188402114D01*
X180479643Y-188402114D02*
X180586786Y-188306876D01*
X180586786Y-188306876D02*
X180503452Y-188211638D01*
X180503452Y-188211638D02*
X180479643Y-188402114D01*
X181086786Y-188878304D02*
X181848690Y-188878304D01*
X181455833Y-188211638D02*
X181241548Y-189925923D01*
X181241548Y-189925923D02*
X181312976Y-190116400D01*
X181312976Y-190116400D02*
X181491548Y-190211638D01*
X181491548Y-190211638D02*
X181682024Y-190211638D01*
X182634405Y-190211638D02*
X182455833Y-190116400D01*
X182455833Y-190116400D02*
X182384405Y-189925923D01*
X182384405Y-189925923D02*
X182598690Y-188211638D01*
X184170119Y-190116400D02*
X183967738Y-190211638D01*
X183967738Y-190211638D02*
X183586785Y-190211638D01*
X183586785Y-190211638D02*
X183408214Y-190116400D01*
X183408214Y-190116400D02*
X183336785Y-189925923D01*
X183336785Y-189925923D02*
X183432024Y-189164019D01*
X183432024Y-189164019D02*
X183551071Y-188973542D01*
X183551071Y-188973542D02*
X183753452Y-188878304D01*
X183753452Y-188878304D02*
X184134404Y-188878304D01*
X184134404Y-188878304D02*
X184312976Y-188973542D01*
X184312976Y-188973542D02*
X184384404Y-189164019D01*
X184384404Y-189164019D02*
X184360595Y-189354495D01*
X184360595Y-189354495D02*
X183384404Y-189544971D01*
X185134405Y-190021161D02*
X185217738Y-190116400D01*
X185217738Y-190116400D02*
X185110595Y-190211638D01*
X185110595Y-190211638D02*
X185027262Y-190116400D01*
X185027262Y-190116400D02*
X185134405Y-190021161D01*
X185134405Y-190021161D02*
X185110595Y-190211638D01*
X185265357Y-188973542D02*
X185348690Y-189068780D01*
X185348690Y-189068780D02*
X185241548Y-189164019D01*
X185241548Y-189164019D02*
X185158214Y-189068780D01*
X185158214Y-189068780D02*
X185265357Y-188973542D01*
X185265357Y-188973542D02*
X185241548Y-189164019D01*
D10*
D11*
X178958026Y-185607614D02*
X178458026Y-185607614D01*
X178458026Y-186393328D02*
X178458026Y-184893328D01*
X178458026Y-184893328D02*
X179172312Y-184893328D01*
X179743740Y-186393328D02*
X179743740Y-185393328D01*
X179743740Y-184893328D02*
X179672312Y-184964757D01*
X179672312Y-184964757D02*
X179743740Y-185036185D01*
X179743740Y-185036185D02*
X179815169Y-184964757D01*
X179815169Y-184964757D02*
X179743740Y-184893328D01*
X179743740Y-184893328D02*
X179743740Y-185036185D01*
X180672312Y-186393328D02*
X180529455Y-186321900D01*
X180529455Y-186321900D02*
X180458026Y-186179042D01*
X180458026Y-186179042D02*
X180458026Y-184893328D01*
X181815169Y-186321900D02*
X181672312Y-186393328D01*
X181672312Y-186393328D02*
X181386598Y-186393328D01*
X181386598Y-186393328D02*
X181243740Y-186321900D01*
X181243740Y-186321900D02*
X181172312Y-186179042D01*
X181172312Y-186179042D02*
X181172312Y-185607614D01*
X181172312Y-185607614D02*
X181243740Y-185464757D01*
X181243740Y-185464757D02*
X181386598Y-185393328D01*
X181386598Y-185393328D02*
X181672312Y-185393328D01*
X181672312Y-185393328D02*
X181815169Y-185464757D01*
X181815169Y-185464757D02*
X181886598Y-185607614D01*
X181886598Y-185607614D02*
X181886598Y-185750471D01*
X181886598Y-185750471D02*
X181172312Y-185893328D01*
X182529454Y-186250471D02*
X182600883Y-186321900D01*
X182600883Y-186321900D02*
X182529454Y-186393328D01*
X182529454Y-186393328D02*
X182458026Y-186321900D01*
X182458026Y-186321900D02*
X182529454Y-186250471D01*
X182529454Y-186250471D02*
X182529454Y-186393328D01*
X182529454Y-185464757D02*
X182600883Y-185536185D01*
X182600883Y-185536185D02*
X182529454Y-185607614D01*
X182529454Y-185607614D02*
X182458026Y-185536185D01*
X182458026Y-185536185D02*
X182529454Y-185464757D01*
X182529454Y-185464757D02*
X182529454Y-185607614D01*
X184386597Y-186393328D02*
X184386597Y-184893328D01*
X184386597Y-184893328D02*
X184743740Y-184893328D01*
X184743740Y-184893328D02*
X184958026Y-184964757D01*
X184958026Y-184964757D02*
X185100883Y-185107614D01*
X185100883Y-185107614D02*
X185172312Y-185250471D01*
X185172312Y-185250471D02*
X185243740Y-185536185D01*
X185243740Y-185536185D02*
X185243740Y-185750471D01*
X185243740Y-185750471D02*
X185172312Y-186036185D01*
X185172312Y-186036185D02*
X185100883Y-186179042D01*
X185100883Y-186179042D02*
X184958026Y-186321900D01*
X184958026Y-186321900D02*
X184743740Y-186393328D01*
X184743740Y-186393328D02*
X184386597Y-186393328D01*
X186529455Y-185393328D02*
X186529455Y-186393328D01*
X185886597Y-185393328D02*
X185886597Y-186179042D01*
X185886597Y-186179042D02*
X185958026Y-186321900D01*
X185958026Y-186321900D02*
X186100883Y-186393328D01*
X186100883Y-186393328D02*
X186315169Y-186393328D01*
X186315169Y-186393328D02*
X186458026Y-186321900D01*
X186458026Y-186321900D02*
X186529455Y-186250471D01*
X187886598Y-186393328D02*
X187886598Y-185607614D01*
X187886598Y-185607614D02*
X187815169Y-185464757D01*
X187815169Y-185464757D02*
X187672312Y-185393328D01*
X187672312Y-185393328D02*
X187386598Y-185393328D01*
X187386598Y-185393328D02*
X187243740Y-185464757D01*
X187886598Y-186321900D02*
X187743740Y-186393328D01*
X187743740Y-186393328D02*
X187386598Y-186393328D01*
X187386598Y-186393328D02*
X187243740Y-186321900D01*
X187243740Y-186321900D02*
X187172312Y-186179042D01*
X187172312Y-186179042D02*
X187172312Y-186036185D01*
X187172312Y-186036185D02*
X187243740Y-185893328D01*
X187243740Y-185893328D02*
X187386598Y-185821900D01*
X187386598Y-185821900D02*
X187743740Y-185821900D01*
X187743740Y-185821900D02*
X187886598Y-185750471D01*
X188815169Y-186393328D02*
X188672312Y-186321900D01*
X188672312Y-186321900D02*
X188600883Y-186179042D01*
X188600883Y-186179042D02*
X188600883Y-184893328D01*
X189029455Y-186536185D02*
X190172312Y-186536185D01*
X190386597Y-184893328D02*
X190743740Y-186393328D01*
X190743740Y-186393328D02*
X191029454Y-185321900D01*
X191029454Y-185321900D02*
X191315169Y-186393328D01*
X191315169Y-186393328D02*
X191672312Y-184893328D01*
X192243740Y-186393328D02*
X192243740Y-185393328D01*
X192243740Y-184893328D02*
X192172312Y-184964757D01*
X192172312Y-184964757D02*
X192243740Y-185036185D01*
X192243740Y-185036185D02*
X192315169Y-184964757D01*
X192315169Y-184964757D02*
X192243740Y-184893328D01*
X192243740Y-184893328D02*
X192243740Y-185036185D01*
X192958026Y-185393328D02*
X192958026Y-186393328D01*
X192958026Y-185536185D02*
X193029455Y-185464757D01*
X193029455Y-185464757D02*
X193172312Y-185393328D01*
X193172312Y-185393328D02*
X193386598Y-185393328D01*
X193386598Y-185393328D02*
X193529455Y-185464757D01*
X193529455Y-185464757D02*
X193600884Y-185607614D01*
X193600884Y-185607614D02*
X193600884Y-186393328D01*
X194958027Y-186393328D02*
X194958027Y-184893328D01*
X194958027Y-186321900D02*
X194815169Y-186393328D01*
X194815169Y-186393328D02*
X194529455Y-186393328D01*
X194529455Y-186393328D02*
X194386598Y-186321900D01*
X194386598Y-186321900D02*
X194315169Y-186250471D01*
X194315169Y-186250471D02*
X194243741Y-186107614D01*
X194243741Y-186107614D02*
X194243741Y-185679042D01*
X194243741Y-185679042D02*
X194315169Y-185536185D01*
X194315169Y-185536185D02*
X194386598Y-185464757D01*
X194386598Y-185464757D02*
X194529455Y-185393328D01*
X194529455Y-185393328D02*
X194815169Y-185393328D01*
X194815169Y-185393328D02*
X194958027Y-185464757D01*
X195315170Y-186536185D02*
X196458027Y-186536185D01*
X196743741Y-186321900D02*
X196958027Y-186393328D01*
X196958027Y-186393328D02*
X197315169Y-186393328D01*
X197315169Y-186393328D02*
X197458027Y-186321900D01*
X197458027Y-186321900D02*
X197529455Y-186250471D01*
X197529455Y-186250471D02*
X197600884Y-186107614D01*
X197600884Y-186107614D02*
X197600884Y-185964757D01*
X197600884Y-185964757D02*
X197529455Y-185821900D01*
X197529455Y-185821900D02*
X197458027Y-185750471D01*
X197458027Y-185750471D02*
X197315169Y-185679042D01*
X197315169Y-185679042D02*
X197029455Y-185607614D01*
X197029455Y-185607614D02*
X196886598Y-185536185D01*
X196886598Y-185536185D02*
X196815169Y-185464757D01*
X196815169Y-185464757D02*
X196743741Y-185321900D01*
X196743741Y-185321900D02*
X196743741Y-185179042D01*
X196743741Y-185179042D02*
X196815169Y-185036185D01*
X196815169Y-185036185D02*
X196886598Y-184964757D01*
X196886598Y-184964757D02*
X197029455Y-184893328D01*
X197029455Y-184893328D02*
X197386598Y-184893328D01*
X197386598Y-184893328D02*
X197600884Y-184964757D01*
X198815169Y-186321900D02*
X198672312Y-186393328D01*
X198672312Y-186393328D02*
X198386598Y-186393328D01*
X198386598Y-186393328D02*
X198243740Y-186321900D01*
X198243740Y-186321900D02*
X198172312Y-186179042D01*
X198172312Y-186179042D02*
X198172312Y-185607614D01*
X198172312Y-185607614D02*
X198243740Y-185464757D01*
X198243740Y-185464757D02*
X198386598Y-185393328D01*
X198386598Y-185393328D02*
X198672312Y-185393328D01*
X198672312Y-185393328D02*
X198815169Y-185464757D01*
X198815169Y-185464757D02*
X198886598Y-185607614D01*
X198886598Y-185607614D02*
X198886598Y-185750471D01*
X198886598Y-185750471D02*
X198172312Y-185893328D01*
X199529454Y-185393328D02*
X199529454Y-186393328D01*
X199529454Y-185536185D02*
X199600883Y-185464757D01*
X199600883Y-185464757D02*
X199743740Y-185393328D01*
X199743740Y-185393328D02*
X199958026Y-185393328D01*
X199958026Y-185393328D02*
X200100883Y-185464757D01*
X200100883Y-185464757D02*
X200172312Y-185607614D01*
X200172312Y-185607614D02*
X200172312Y-186393328D01*
X200815169Y-186321900D02*
X200958026Y-186393328D01*
X200958026Y-186393328D02*
X201243740Y-186393328D01*
X201243740Y-186393328D02*
X201386597Y-186321900D01*
X201386597Y-186321900D02*
X201458026Y-186179042D01*
X201458026Y-186179042D02*
X201458026Y-186107614D01*
X201458026Y-186107614D02*
X201386597Y-185964757D01*
X201386597Y-185964757D02*
X201243740Y-185893328D01*
X201243740Y-185893328D02*
X201029455Y-185893328D01*
X201029455Y-185893328D02*
X200886597Y-185821900D01*
X200886597Y-185821900D02*
X200815169Y-185679042D01*
X200815169Y-185679042D02*
X200815169Y-185607614D01*
X200815169Y-185607614D02*
X200886597Y-185464757D01*
X200886597Y-185464757D02*
X201029455Y-185393328D01*
X201029455Y-185393328D02*
X201243740Y-185393328D01*
X201243740Y-185393328D02*
X201386597Y-185464757D01*
X202315169Y-186393328D02*
X202172312Y-186321900D01*
X202172312Y-186321900D02*
X202100883Y-186250471D01*
X202100883Y-186250471D02*
X202029455Y-186107614D01*
X202029455Y-186107614D02*
X202029455Y-185679042D01*
X202029455Y-185679042D02*
X202100883Y-185536185D01*
X202100883Y-185536185D02*
X202172312Y-185464757D01*
X202172312Y-185464757D02*
X202315169Y-185393328D01*
X202315169Y-185393328D02*
X202529455Y-185393328D01*
X202529455Y-185393328D02*
X202672312Y-185464757D01*
X202672312Y-185464757D02*
X202743741Y-185536185D01*
X202743741Y-185536185D02*
X202815169Y-185679042D01*
X202815169Y-185679042D02*
X202815169Y-186107614D01*
X202815169Y-186107614D02*
X202743741Y-186250471D01*
X202743741Y-186250471D02*
X202672312Y-186321900D01*
X202672312Y-186321900D02*
X202529455Y-186393328D01*
X202529455Y-186393328D02*
X202315169Y-186393328D01*
X203458026Y-186393328D02*
X203458026Y-185393328D01*
X203458026Y-185679042D02*
X203529455Y-185536185D01*
X203529455Y-185536185D02*
X203600884Y-185464757D01*
X203600884Y-185464757D02*
X203743741Y-185393328D01*
X203743741Y-185393328D02*
X203886598Y-185393328D01*
X204386597Y-185821900D02*
X205529455Y-185821900D01*
X206243740Y-186393328D02*
X206243740Y-184893328D01*
X206243740Y-184893328D02*
X207100883Y-186393328D01*
X207100883Y-186393328D02*
X207100883Y-184893328D01*
X207743741Y-185964757D02*
X208458027Y-185964757D01*
X207600884Y-186393328D02*
X208100884Y-184893328D01*
X208100884Y-184893328D02*
X208600884Y-186393328D01*
X209100883Y-186393328D02*
X209100883Y-184893328D01*
X209100883Y-184893328D02*
X209958026Y-186393328D01*
X209958026Y-186393328D02*
X209958026Y-184893328D01*
X210958027Y-184893328D02*
X211243741Y-184893328D01*
X211243741Y-184893328D02*
X211386598Y-184964757D01*
X211386598Y-184964757D02*
X211529455Y-185107614D01*
X211529455Y-185107614D02*
X211600884Y-185393328D01*
X211600884Y-185393328D02*
X211600884Y-185893328D01*
X211600884Y-185893328D02*
X211529455Y-186179042D01*
X211529455Y-186179042D02*
X211386598Y-186321900D01*
X211386598Y-186321900D02*
X211243741Y-186393328D01*
X211243741Y-186393328D02*
X210958027Y-186393328D01*
X210958027Y-186393328D02*
X210815170Y-186321900D01*
X210815170Y-186321900D02*
X210672312Y-186179042D01*
X210672312Y-186179042D02*
X210600884Y-185893328D01*
X210600884Y-185893328D02*
X210600884Y-185393328D01*
X210600884Y-185393328D02*
X210672312Y-185107614D01*
X210672312Y-185107614D02*
X210815170Y-184964757D01*
X210815170Y-184964757D02*
X210958027Y-184893328D01*
X211886599Y-186536185D02*
X213029456Y-186536185D01*
X213386598Y-185393328D02*
X213386598Y-186393328D01*
X213386598Y-185536185D02*
X213458027Y-185464757D01*
X213458027Y-185464757D02*
X213600884Y-185393328D01*
X213600884Y-185393328D02*
X213815170Y-185393328D01*
X213815170Y-185393328D02*
X213958027Y-185464757D01*
X213958027Y-185464757D02*
X214029456Y-185607614D01*
X214029456Y-185607614D02*
X214029456Y-186393328D01*
X214958027Y-186393328D02*
X214815170Y-186321900D01*
X214815170Y-186321900D02*
X214743741Y-186250471D01*
X214743741Y-186250471D02*
X214672313Y-186107614D01*
X214672313Y-186107614D02*
X214672313Y-185679042D01*
X214672313Y-185679042D02*
X214743741Y-185536185D01*
X214743741Y-185536185D02*
X214815170Y-185464757D01*
X214815170Y-185464757D02*
X214958027Y-185393328D01*
X214958027Y-185393328D02*
X215172313Y-185393328D01*
X215172313Y-185393328D02*
X215315170Y-185464757D01*
X215315170Y-185464757D02*
X215386599Y-185536185D01*
X215386599Y-185536185D02*
X215458027Y-185679042D01*
X215458027Y-185679042D02*
X215458027Y-186107614D01*
X215458027Y-186107614D02*
X215386599Y-186250471D01*
X215386599Y-186250471D02*
X215315170Y-186321900D01*
X215315170Y-186321900D02*
X215172313Y-186393328D01*
X215172313Y-186393328D02*
X214958027Y-186393328D01*
X216958027Y-186393328D02*
X216458027Y-185679042D01*
X216100884Y-186393328D02*
X216100884Y-184893328D01*
X216100884Y-184893328D02*
X216672313Y-184893328D01*
X216672313Y-184893328D02*
X216815170Y-184964757D01*
X216815170Y-184964757D02*
X216886599Y-185036185D01*
X216886599Y-185036185D02*
X216958027Y-185179042D01*
X216958027Y-185179042D02*
X216958027Y-185393328D01*
X216958027Y-185393328D02*
X216886599Y-185536185D01*
X216886599Y-185536185D02*
X216815170Y-185607614D01*
X216815170Y-185607614D02*
X216672313Y-185679042D01*
X216672313Y-185679042D02*
X216100884Y-185679042D01*
X218172313Y-186321900D02*
X218029456Y-186393328D01*
X218029456Y-186393328D02*
X217743742Y-186393328D01*
X217743742Y-186393328D02*
X217600884Y-186321900D01*
X217600884Y-186321900D02*
X217529456Y-186179042D01*
X217529456Y-186179042D02*
X217529456Y-185607614D01*
X217529456Y-185607614D02*
X217600884Y-185464757D01*
X217600884Y-185464757D02*
X217743742Y-185393328D01*
X217743742Y-185393328D02*
X218029456Y-185393328D01*
X218029456Y-185393328D02*
X218172313Y-185464757D01*
X218172313Y-185464757D02*
X218243742Y-185607614D01*
X218243742Y-185607614D02*
X218243742Y-185750471D01*
X218243742Y-185750471D02*
X217529456Y-185893328D01*
X219529456Y-185393328D02*
X219529456Y-186607614D01*
X219529456Y-186607614D02*
X219458027Y-186750471D01*
X219458027Y-186750471D02*
X219386598Y-186821900D01*
X219386598Y-186821900D02*
X219243741Y-186893328D01*
X219243741Y-186893328D02*
X219029456Y-186893328D01*
X219029456Y-186893328D02*
X218886598Y-186821900D01*
X219529456Y-186321900D02*
X219386598Y-186393328D01*
X219386598Y-186393328D02*
X219100884Y-186393328D01*
X219100884Y-186393328D02*
X218958027Y-186321900D01*
X218958027Y-186321900D02*
X218886598Y-186250471D01*
X218886598Y-186250471D02*
X218815170Y-186107614D01*
X218815170Y-186107614D02*
X218815170Y-185679042D01*
X218815170Y-185679042D02*
X218886598Y-185536185D01*
X218886598Y-185536185D02*
X218958027Y-185464757D01*
X218958027Y-185464757D02*
X219100884Y-185393328D01*
X219100884Y-185393328D02*
X219386598Y-185393328D01*
X219386598Y-185393328D02*
X219529456Y-185464757D01*
X220243741Y-186250471D02*
X220315170Y-186321900D01*
X220315170Y-186321900D02*
X220243741Y-186393328D01*
X220243741Y-186393328D02*
X220172313Y-186321900D01*
X220172313Y-186321900D02*
X220243741Y-186250471D01*
X220243741Y-186250471D02*
X220243741Y-186393328D01*
X220958027Y-186393328D02*
X220958027Y-184893328D01*
X221100885Y-185821900D02*
X221529456Y-186393328D01*
X221529456Y-185393328D02*
X220958027Y-185964757D01*
X222172313Y-186393328D02*
X222172313Y-185393328D01*
X222172313Y-184893328D02*
X222100885Y-184964757D01*
X222100885Y-184964757D02*
X222172313Y-185036185D01*
X222172313Y-185036185D02*
X222243742Y-184964757D01*
X222243742Y-184964757D02*
X222172313Y-184893328D01*
X222172313Y-184893328D02*
X222172313Y-185036185D01*
X223529457Y-186321900D02*
X223386599Y-186393328D01*
X223386599Y-186393328D02*
X223100885Y-186393328D01*
X223100885Y-186393328D02*
X222958028Y-186321900D01*
X222958028Y-186321900D02*
X222886599Y-186250471D01*
X222886599Y-186250471D02*
X222815171Y-186107614D01*
X222815171Y-186107614D02*
X222815171Y-185679042D01*
X222815171Y-185679042D02*
X222886599Y-185536185D01*
X222886599Y-185536185D02*
X222958028Y-185464757D01*
X222958028Y-185464757D02*
X223100885Y-185393328D01*
X223100885Y-185393328D02*
X223386599Y-185393328D01*
X223386599Y-185393328D02*
X223529457Y-185464757D01*
X224815171Y-186393328D02*
X224815171Y-185607614D01*
X224815171Y-185607614D02*
X224743742Y-185464757D01*
X224743742Y-185464757D02*
X224600885Y-185393328D01*
X224600885Y-185393328D02*
X224315171Y-185393328D01*
X224315171Y-185393328D02*
X224172313Y-185464757D01*
X224815171Y-186321900D02*
X224672313Y-186393328D01*
X224672313Y-186393328D02*
X224315171Y-186393328D01*
X224315171Y-186393328D02*
X224172313Y-186321900D01*
X224172313Y-186321900D02*
X224100885Y-186179042D01*
X224100885Y-186179042D02*
X224100885Y-186036185D01*
X224100885Y-186036185D02*
X224172313Y-185893328D01*
X224172313Y-185893328D02*
X224315171Y-185821900D01*
X224315171Y-185821900D02*
X224672313Y-185821900D01*
X224672313Y-185821900D02*
X224815171Y-185750471D01*
X226172314Y-186393328D02*
X226172314Y-184893328D01*
X226172314Y-186321900D02*
X226029456Y-186393328D01*
X226029456Y-186393328D02*
X225743742Y-186393328D01*
X225743742Y-186393328D02*
X225600885Y-186321900D01*
X225600885Y-186321900D02*
X225529456Y-186250471D01*
X225529456Y-186250471D02*
X225458028Y-186107614D01*
X225458028Y-186107614D02*
X225458028Y-185679042D01*
X225458028Y-185679042D02*
X225529456Y-185536185D01*
X225529456Y-185536185D02*
X225600885Y-185464757D01*
X225600885Y-185464757D02*
X225743742Y-185393328D01*
X225743742Y-185393328D02*
X226029456Y-185393328D01*
X226029456Y-185393328D02*
X226172314Y-185464757D01*
X226529457Y-186536185D02*
X227672314Y-186536185D01*
X228029456Y-185393328D02*
X228029456Y-186893328D01*
X228029456Y-185464757D02*
X228172314Y-185393328D01*
X228172314Y-185393328D02*
X228458028Y-185393328D01*
X228458028Y-185393328D02*
X228600885Y-185464757D01*
X228600885Y-185464757D02*
X228672314Y-185536185D01*
X228672314Y-185536185D02*
X228743742Y-185679042D01*
X228743742Y-185679042D02*
X228743742Y-186107614D01*
X228743742Y-186107614D02*
X228672314Y-186250471D01*
X228672314Y-186250471D02*
X228600885Y-186321900D01*
X228600885Y-186321900D02*
X228458028Y-186393328D01*
X228458028Y-186393328D02*
X228172314Y-186393328D01*
X228172314Y-186393328D02*
X228029456Y-186321900D01*
X230029457Y-186321900D02*
X229886599Y-186393328D01*
X229886599Y-186393328D02*
X229600885Y-186393328D01*
X229600885Y-186393328D02*
X229458028Y-186321900D01*
X229458028Y-186321900D02*
X229386599Y-186250471D01*
X229386599Y-186250471D02*
X229315171Y-186107614D01*
X229315171Y-186107614D02*
X229315171Y-185679042D01*
X229315171Y-185679042D02*
X229386599Y-185536185D01*
X229386599Y-185536185D02*
X229458028Y-185464757D01*
X229458028Y-185464757D02*
X229600885Y-185393328D01*
X229600885Y-185393328D02*
X229886599Y-185393328D01*
X229886599Y-185393328D02*
X230029457Y-185464757D01*
X230672313Y-186393328D02*
X230672313Y-184893328D01*
X230672313Y-185464757D02*
X230815171Y-185393328D01*
X230815171Y-185393328D02*
X231100885Y-185393328D01*
X231100885Y-185393328D02*
X231243742Y-185464757D01*
X231243742Y-185464757D02*
X231315171Y-185536185D01*
X231315171Y-185536185D02*
X231386599Y-185679042D01*
X231386599Y-185679042D02*
X231386599Y-186107614D01*
X231386599Y-186107614D02*
X231315171Y-186250471D01*
X231315171Y-186250471D02*
X231243742Y-186321900D01*
X231243742Y-186321900D02*
X231100885Y-186393328D01*
X231100885Y-186393328D02*
X230815171Y-186393328D01*
X230815171Y-186393328D02*
X230672313Y-186321900D01*
D10*
D11*
X177002200Y-181507200D02*
X285002200Y-181507200D01*
D10*
D11*
X178386598Y-183621900D02*
X178600884Y-183693328D01*
X178600884Y-183693328D02*
X178958026Y-183693328D01*
X178958026Y-183693328D02*
X179100884Y-183621900D01*
X179100884Y-183621900D02*
X179172312Y-183550471D01*
X179172312Y-183550471D02*
X179243741Y-183407614D01*
X179243741Y-183407614D02*
X179243741Y-183264757D01*
X179243741Y-183264757D02*
X179172312Y-183121900D01*
X179172312Y-183121900D02*
X179100884Y-183050471D01*
X179100884Y-183050471D02*
X178958026Y-182979042D01*
X178958026Y-182979042D02*
X178672312Y-182907614D01*
X178672312Y-182907614D02*
X178529455Y-182836185D01*
X178529455Y-182836185D02*
X178458026Y-182764757D01*
X178458026Y-182764757D02*
X178386598Y-182621900D01*
X178386598Y-182621900D02*
X178386598Y-182479042D01*
X178386598Y-182479042D02*
X178458026Y-182336185D01*
X178458026Y-182336185D02*
X178529455Y-182264757D01*
X178529455Y-182264757D02*
X178672312Y-182193328D01*
X178672312Y-182193328D02*
X179029455Y-182193328D01*
X179029455Y-182193328D02*
X179243741Y-182264757D01*
X179886597Y-183693328D02*
X179886597Y-182193328D01*
X180529455Y-183693328D02*
X180529455Y-182907614D01*
X180529455Y-182907614D02*
X180458026Y-182764757D01*
X180458026Y-182764757D02*
X180315169Y-182693328D01*
X180315169Y-182693328D02*
X180100883Y-182693328D01*
X180100883Y-182693328D02*
X179958026Y-182764757D01*
X179958026Y-182764757D02*
X179886597Y-182836185D01*
X181815169Y-183621900D02*
X181672312Y-183693328D01*
X181672312Y-183693328D02*
X181386598Y-183693328D01*
X181386598Y-183693328D02*
X181243740Y-183621900D01*
X181243740Y-183621900D02*
X181172312Y-183479042D01*
X181172312Y-183479042D02*
X181172312Y-182907614D01*
X181172312Y-182907614D02*
X181243740Y-182764757D01*
X181243740Y-182764757D02*
X181386598Y-182693328D01*
X181386598Y-182693328D02*
X181672312Y-182693328D01*
X181672312Y-182693328D02*
X181815169Y-182764757D01*
X181815169Y-182764757D02*
X181886598Y-182907614D01*
X181886598Y-182907614D02*
X181886598Y-183050471D01*
X181886598Y-183050471D02*
X181172312Y-183193328D01*
X183100883Y-183621900D02*
X182958026Y-183693328D01*
X182958026Y-183693328D02*
X182672312Y-183693328D01*
X182672312Y-183693328D02*
X182529454Y-183621900D01*
X182529454Y-183621900D02*
X182458026Y-183479042D01*
X182458026Y-183479042D02*
X182458026Y-182907614D01*
X182458026Y-182907614D02*
X182529454Y-182764757D01*
X182529454Y-182764757D02*
X182672312Y-182693328D01*
X182672312Y-182693328D02*
X182958026Y-182693328D01*
X182958026Y-182693328D02*
X183100883Y-182764757D01*
X183100883Y-182764757D02*
X183172312Y-182907614D01*
X183172312Y-182907614D02*
X183172312Y-183050471D01*
X183172312Y-183050471D02*
X182458026Y-183193328D01*
X183600883Y-182693328D02*
X184172311Y-182693328D01*
X183815168Y-182193328D02*
X183815168Y-183479042D01*
X183815168Y-183479042D02*
X183886597Y-183621900D01*
X183886597Y-183621900D02*
X184029454Y-183693328D01*
X184029454Y-183693328D02*
X184172311Y-183693328D01*
X184672311Y-183550471D02*
X184743740Y-183621900D01*
X184743740Y-183621900D02*
X184672311Y-183693328D01*
X184672311Y-183693328D02*
X184600883Y-183621900D01*
X184600883Y-183621900D02*
X184672311Y-183550471D01*
X184672311Y-183550471D02*
X184672311Y-183693328D01*
X184672311Y-182764757D02*
X184743740Y-182836185D01*
X184743740Y-182836185D02*
X184672311Y-182907614D01*
X184672311Y-182907614D02*
X184600883Y-182836185D01*
X184600883Y-182836185D02*
X184672311Y-182764757D01*
X184672311Y-182764757D02*
X184672311Y-182907614D01*
D10*
D11*
X197002200Y-191507200D02*
X197002200Y-194507200D01*
D10*
D11*
X261002200Y-191507200D02*
X261002200Y-198007200D01*
G36*
X139540113Y-80841808D02*
G01*
X139778893Y-80919393D01*
X140002598Y-81033376D01*
X140205717Y-81180950D01*
X140383250Y-81358483D01*
X140530824Y-81561602D01*
X140644807Y-81785307D01*
X140722392Y-82024087D01*
X140761668Y-82272065D01*
X140761668Y-82523135D01*
X140722392Y-82771113D01*
X140644807Y-83009893D01*
X140530824Y-83233598D01*
X140383250Y-83436717D01*
X140205717Y-83614250D01*
X140002598Y-83761824D01*
X139778893Y-83875807D01*
X139540113Y-83953392D01*
X139292135Y-83992668D01*
X139041065Y-83992668D01*
X138793087Y-83953392D01*
X138554307Y-83875807D01*
X138330602Y-83761824D01*
X138127483Y-83614250D01*
X137949950Y-83436717D01*
X137802376Y-83233598D01*
X137688393Y-83009893D01*
X137610808Y-82771113D01*
X137571532Y-82523135D01*
X137571532Y-82272065D01*
X137610808Y-82024087D01*
X137688393Y-81785307D01*
X137802376Y-81561602D01*
X137949950Y-81358483D01*
X138127483Y-81180950D01*
X138330602Y-81033376D01*
X138554307Y-80919393D01*
X138793087Y-80841808D01*
X139041065Y-80802532D01*
X139292135Y-80802532D01*
X139540113Y-80841808D01*
G37*
G36*
X181704113Y-80841808D02*
G01*
X181942893Y-80919393D01*
X182166598Y-81033376D01*
X182369717Y-81180950D01*
X182547250Y-81358483D01*
X182694824Y-81561602D01*
X182808807Y-81785307D01*
X182886392Y-82024087D01*
X182925668Y-82272065D01*
X182925668Y-82523135D01*
X182886392Y-82771113D01*
X182808807Y-83009893D01*
X182694824Y-83233598D01*
X182547250Y-83436717D01*
X182369717Y-83614250D01*
X182166598Y-83761824D01*
X181942893Y-83875807D01*
X181704113Y-83953392D01*
X181456135Y-83992668D01*
X181205065Y-83992668D01*
X180957087Y-83953392D01*
X180718307Y-83875807D01*
X180494602Y-83761824D01*
X180291483Y-83614250D01*
X180113950Y-83436717D01*
X179966376Y-83233598D01*
X179852393Y-83009893D01*
X179774808Y-82771113D01*
X179735532Y-82523135D01*
X179735532Y-82272065D01*
X179774808Y-82024087D01*
X179852393Y-81785307D01*
X179966376Y-81561602D01*
X180113950Y-81358483D01*
X180291483Y-81180950D01*
X180494602Y-81033376D01*
X180718307Y-80919393D01*
X180957087Y-80841808D01*
X181205065Y-80802532D01*
X181456135Y-80802532D01*
X181704113Y-80841808D01*
G37*
G36*
X149050828Y-78534048D02*
G01*
X149195717Y-78594063D01*
X149326115Y-78681192D01*
X149437008Y-78792085D01*
X149524137Y-78922483D01*
X149584152Y-79067372D01*
X149614748Y-79221186D01*
X149614748Y-79378014D01*
X149584152Y-79531828D01*
X149524137Y-79676717D01*
X149437008Y-79807115D01*
X149326115Y-79918008D01*
X149195717Y-80005137D01*
X149050828Y-80065152D01*
X148897014Y-80095748D01*
X148740186Y-80095748D01*
X148586372Y-80065152D01*
X148441483Y-80005137D01*
X148311085Y-79918008D01*
X148200192Y-79807115D01*
X148113063Y-79676717D01*
X148053048Y-79531828D01*
X148022452Y-79378014D01*
X148022452Y-79221186D01*
X148053048Y-79067372D01*
X148113063Y-78922483D01*
X148200192Y-78792085D01*
X148311085Y-78681192D01*
X148441483Y-78594063D01*
X148586372Y-78534048D01*
X148740186Y-78503452D01*
X148897014Y-78503452D01*
X149050828Y-78534048D01*
G37*
G36*
X164290828Y-78534048D02*
G01*
X164435717Y-78594063D01*
X164566115Y-78681192D01*
X164677008Y-78792085D01*
X164764137Y-78922483D01*
X164824152Y-79067372D01*
X164854748Y-79221186D01*
X164854748Y-79378014D01*
X164824152Y-79531828D01*
X164764137Y-79676717D01*
X164677008Y-79807115D01*
X164566115Y-79918008D01*
X164435717Y-80005137D01*
X164290828Y-80065152D01*
X164137014Y-80095748D01*
X163980186Y-80095748D01*
X163826372Y-80065152D01*
X163681483Y-80005137D01*
X163551085Y-79918008D01*
X163440192Y-79807115D01*
X163353063Y-79676717D01*
X163293048Y-79531828D01*
X163262452Y-79378014D01*
X163262452Y-79221186D01*
X163293048Y-79067372D01*
X163353063Y-78922483D01*
X163440192Y-78792085D01*
X163551085Y-78681192D01*
X163681483Y-78594063D01*
X163826372Y-78534048D01*
X163980186Y-78503452D01*
X164137014Y-78503452D01*
X164290828Y-78534048D01*
G37*
G36*
X149050828Y-75994048D02*
G01*
X149195717Y-76054063D01*
X149326115Y-76141192D01*
X149437008Y-76252085D01*
X149524137Y-76382483D01*
X149584152Y-76527372D01*
X149614748Y-76681186D01*
X149614748Y-76838014D01*
X149584152Y-76991828D01*
X149524137Y-77136717D01*
X149437008Y-77267115D01*
X149326115Y-77378008D01*
X149195717Y-77465137D01*
X149050828Y-77525152D01*
X148897014Y-77555748D01*
X148740186Y-77555748D01*
X148586372Y-77525152D01*
X148441483Y-77465137D01*
X148311085Y-77378008D01*
X148200192Y-77267115D01*
X148113063Y-77136717D01*
X148053048Y-76991828D01*
X148022452Y-76838014D01*
X148022452Y-76681186D01*
X148053048Y-76527372D01*
X148113063Y-76382483D01*
X148200192Y-76252085D01*
X148311085Y-76141192D01*
X148441483Y-76054063D01*
X148586372Y-75994048D01*
X148740186Y-75963452D01*
X148897014Y-75963452D01*
X149050828Y-75994048D01*
G37*
G36*
X164290828Y-75994048D02*
G01*
X164435717Y-76054063D01*
X164566115Y-76141192D01*
X164677008Y-76252085D01*
X164764137Y-76382483D01*
X164824152Y-76527372D01*
X164854748Y-76681186D01*
X164854748Y-76838014D01*
X164824152Y-76991828D01*
X164764137Y-77136717D01*
X164677008Y-77267115D01*
X164566115Y-77378008D01*
X164435717Y-77465137D01*
X164290828Y-77525152D01*
X164137014Y-77555748D01*
X163980186Y-77555748D01*
X163826372Y-77525152D01*
X163681483Y-77465137D01*
X163551085Y-77378008D01*
X163440192Y-77267115D01*
X163353063Y-77136717D01*
X163293048Y-76991828D01*
X163262452Y-76838014D01*
X163262452Y-76681186D01*
X163293048Y-76527372D01*
X163353063Y-76382483D01*
X163440192Y-76252085D01*
X163551085Y-76141192D01*
X163681483Y-76054063D01*
X163826372Y-75994048D01*
X163980186Y-75963452D01*
X164137014Y-75963452D01*
X164290828Y-75994048D01*
G37*
G36*
X149050828Y-73454048D02*
G01*
X149195717Y-73514063D01*
X149326115Y-73601192D01*
X149437008Y-73712085D01*
X149524137Y-73842483D01*
X149584152Y-73987372D01*
X149614748Y-74141186D01*
X149614748Y-74298014D01*
X149584152Y-74451828D01*
X149524137Y-74596717D01*
X149437008Y-74727115D01*
X149326115Y-74838008D01*
X149195717Y-74925137D01*
X149050828Y-74985152D01*
X148897014Y-75015748D01*
X148740186Y-75015748D01*
X148586372Y-74985152D01*
X148441483Y-74925137D01*
X148311085Y-74838008D01*
X148200192Y-74727115D01*
X148113063Y-74596717D01*
X148053048Y-74451828D01*
X148022452Y-74298014D01*
X148022452Y-74141186D01*
X148053048Y-73987372D01*
X148113063Y-73842483D01*
X148200192Y-73712085D01*
X148311085Y-73601192D01*
X148441483Y-73514063D01*
X148586372Y-73454048D01*
X148740186Y-73423452D01*
X148897014Y-73423452D01*
X149050828Y-73454048D01*
G37*
G36*
X164290828Y-73454048D02*
G01*
X164435717Y-73514063D01*
X164566115Y-73601192D01*
X164677008Y-73712085D01*
X164764137Y-73842483D01*
X164824152Y-73987372D01*
X164854748Y-74141186D01*
X164854748Y-74298014D01*
X164824152Y-74451828D01*
X164764137Y-74596717D01*
X164677008Y-74727115D01*
X164566115Y-74838008D01*
X164435717Y-74925137D01*
X164290828Y-74985152D01*
X164137014Y-75015748D01*
X163980186Y-75015748D01*
X163826372Y-74985152D01*
X163681483Y-74925137D01*
X163551085Y-74838008D01*
X163440192Y-74727115D01*
X163353063Y-74596717D01*
X163293048Y-74451828D01*
X163262452Y-74298014D01*
X163262452Y-74141186D01*
X163293048Y-73987372D01*
X163353063Y-73842483D01*
X163440192Y-73712085D01*
X163551085Y-73601192D01*
X163681483Y-73514063D01*
X163826372Y-73454048D01*
X163980186Y-73423452D01*
X164137014Y-73423452D01*
X164290828Y-73454048D01*
G37*
G36*
X180910600Y-74865600D02*
G01*
X179210600Y-74865600D01*
X179210600Y-73165600D01*
X180910600Y-73165600D01*
X180910600Y-74865600D01*
G37*
G36*
X177767342Y-73202201D02*
G01*
X177921287Y-73265967D01*
X178059834Y-73358541D01*
X178177659Y-73476366D01*
X178270233Y-73614913D01*
X178333999Y-73768858D01*
X178366507Y-73932285D01*
X178366507Y-74098915D01*
X178333999Y-74262342D01*
X178270233Y-74416287D01*
X178177659Y-74554834D01*
X178059834Y-74672659D01*
X177921287Y-74765233D01*
X177767342Y-74828999D01*
X177603915Y-74861507D01*
X177437285Y-74861507D01*
X177273858Y-74828999D01*
X177119913Y-74765233D01*
X176981366Y-74672659D01*
X176863541Y-74554834D01*
X176770967Y-74416287D01*
X176707201Y-74262342D01*
X176674693Y-74098915D01*
X176674693Y-73932285D01*
X176707201Y-73768858D01*
X176770967Y-73614913D01*
X176863541Y-73476366D01*
X176981366Y-73358541D01*
X177119913Y-73265967D01*
X177273858Y-73202201D01*
X177437285Y-73169693D01*
X177603915Y-73169693D01*
X177767342Y-73202201D01*
G37*
G36*
X142098600Y-73645600D02*
G01*
X140298600Y-73645600D01*
X140298600Y-71845600D01*
X142098600Y-71845600D01*
X142098600Y-73645600D01*
G37*
G36*
X138919856Y-71884354D02*
G01*
X139082857Y-71951871D01*
X139229554Y-72049891D01*
X139354309Y-72174646D01*
X139452329Y-72321343D01*
X139519846Y-72484344D01*
X139554266Y-72657385D01*
X139554266Y-72833815D01*
X139519846Y-73006856D01*
X139452329Y-73169857D01*
X139354309Y-73316554D01*
X139229554Y-73441309D01*
X139082857Y-73539329D01*
X138919856Y-73606846D01*
X138746815Y-73641266D01*
X138570385Y-73641266D01*
X138397344Y-73606846D01*
X138234343Y-73539329D01*
X138087646Y-73441309D01*
X137962891Y-73316554D01*
X137864871Y-73169857D01*
X137797354Y-73006856D01*
X137762934Y-72833815D01*
X137762934Y-72657385D01*
X137797354Y-72484344D01*
X137864871Y-72321343D01*
X137962891Y-72174646D01*
X138087646Y-72049891D01*
X138234343Y-71951871D01*
X138397344Y-71884354D01*
X138570385Y-71849934D01*
X138746815Y-71849934D01*
X138919856Y-71884354D01*
G37*
G36*
X149050828Y-70914048D02*
G01*
X149195717Y-70974063D01*
X149326115Y-71061192D01*
X149437008Y-71172085D01*
X149524137Y-71302483D01*
X149584152Y-71447372D01*
X149614748Y-71601186D01*
X149614748Y-71758014D01*
X149584152Y-71911828D01*
X149524137Y-72056717D01*
X149437008Y-72187115D01*
X149326115Y-72298008D01*
X149195717Y-72385137D01*
X149050828Y-72445152D01*
X148897014Y-72475748D01*
X148740186Y-72475748D01*
X148586372Y-72445152D01*
X148441483Y-72385137D01*
X148311085Y-72298008D01*
X148200192Y-72187115D01*
X148113063Y-72056717D01*
X148053048Y-71911828D01*
X148022452Y-71758014D01*
X148022452Y-71601186D01*
X148053048Y-71447372D01*
X148113063Y-71302483D01*
X148200192Y-71172085D01*
X148311085Y-71061192D01*
X148441483Y-70974063D01*
X148586372Y-70914048D01*
X148740186Y-70883452D01*
X148897014Y-70883452D01*
X149050828Y-70914048D01*
G37*
G36*
X164290828Y-70914048D02*
G01*
X164435717Y-70974063D01*
X164566115Y-71061192D01*
X164677008Y-71172085D01*
X164764137Y-71302483D01*
X164824152Y-71447372D01*
X164854748Y-71601186D01*
X164854748Y-71758014D01*
X164824152Y-71911828D01*
X164764137Y-72056717D01*
X164677008Y-72187115D01*
X164566115Y-72298008D01*
X164435717Y-72385137D01*
X164290828Y-72445152D01*
X164137014Y-72475748D01*
X163980186Y-72475748D01*
X163826372Y-72445152D01*
X163681483Y-72385137D01*
X163551085Y-72298008D01*
X163440192Y-72187115D01*
X163353063Y-72056717D01*
X163293048Y-71911828D01*
X163262452Y-71758014D01*
X163262452Y-71601186D01*
X163293048Y-71447372D01*
X163353063Y-71302483D01*
X163440192Y-71172085D01*
X163551085Y-71061192D01*
X163681483Y-70974063D01*
X163826372Y-70914048D01*
X163980186Y-70883452D01*
X164137014Y-70883452D01*
X164290828Y-70914048D01*
G37*
G36*
X149050828Y-68374048D02*
G01*
X149195717Y-68434063D01*
X149326115Y-68521192D01*
X149437008Y-68632085D01*
X149524137Y-68762483D01*
X149584152Y-68907372D01*
X149614748Y-69061186D01*
X149614748Y-69218014D01*
X149584152Y-69371828D01*
X149524137Y-69516717D01*
X149437008Y-69647115D01*
X149326115Y-69758008D01*
X149195717Y-69845137D01*
X149050828Y-69905152D01*
X148897014Y-69935748D01*
X148740186Y-69935748D01*
X148586372Y-69905152D01*
X148441483Y-69845137D01*
X148311085Y-69758008D01*
X148200192Y-69647115D01*
X148113063Y-69516717D01*
X148053048Y-69371828D01*
X148022452Y-69218014D01*
X148022452Y-69061186D01*
X148053048Y-68907372D01*
X148113063Y-68762483D01*
X148200192Y-68632085D01*
X148311085Y-68521192D01*
X148441483Y-68434063D01*
X148586372Y-68374048D01*
X148740186Y-68343452D01*
X148897014Y-68343452D01*
X149050828Y-68374048D01*
G37*
G36*
X164290828Y-68374048D02*
G01*
X164435717Y-68434063D01*
X164566115Y-68521192D01*
X164677008Y-68632085D01*
X164764137Y-68762483D01*
X164824152Y-68907372D01*
X164854748Y-69061186D01*
X164854748Y-69218014D01*
X164824152Y-69371828D01*
X164764137Y-69516717D01*
X164677008Y-69647115D01*
X164566115Y-69758008D01*
X164435717Y-69845137D01*
X164290828Y-69905152D01*
X164137014Y-69935748D01*
X163980186Y-69935748D01*
X163826372Y-69905152D01*
X163681483Y-69845137D01*
X163551085Y-69758008D01*
X163440192Y-69647115D01*
X163353063Y-69516717D01*
X163293048Y-69371828D01*
X163262452Y-69218014D01*
X163262452Y-69061186D01*
X163293048Y-68907372D01*
X163353063Y-68762483D01*
X163440192Y-68632085D01*
X163551085Y-68521192D01*
X163681483Y-68434063D01*
X163826372Y-68374048D01*
X163980186Y-68343452D01*
X164137014Y-68343452D01*
X164290828Y-68374048D01*
G37*
G36*
X170670450Y-67707564D02*
G01*
X170720640Y-67713387D01*
X170737789Y-67720959D01*
X170761271Y-67725630D01*
X170786410Y-67742427D01*
X170806296Y-67751208D01*
X170819877Y-67764789D01*
X170842377Y-67779823D01*
X170857410Y-67802322D01*
X170870991Y-67815903D01*
X170879770Y-67835786D01*
X170896570Y-67860929D01*
X170901241Y-67884412D01*
X170908812Y-67901559D01*
X170914633Y-67951739D01*
X170915600Y-67956600D01*
X170915600Y-69406600D01*
X170914632Y-69411463D01*
X170908812Y-69461640D01*
X170901241Y-69478785D01*
X170896570Y-69502271D01*
X170879769Y-69527415D01*
X170870991Y-69547296D01*
X170857412Y-69560874D01*
X170842377Y-69583377D01*
X170819874Y-69598412D01*
X170806296Y-69611991D01*
X170786415Y-69620769D01*
X170761271Y-69637570D01*
X170737785Y-69642241D01*
X170720640Y-69649812D01*
X170670461Y-69655632D01*
X170665600Y-69656600D01*
X169465600Y-69656600D01*
X169460738Y-69655632D01*
X169410559Y-69649812D01*
X169393412Y-69642241D01*
X169369929Y-69637570D01*
X169344786Y-69620770D01*
X169324903Y-69611991D01*
X169311322Y-69598410D01*
X169288823Y-69583377D01*
X169273789Y-69560877D01*
X169260208Y-69547296D01*
X169251427Y-69527410D01*
X169234630Y-69502271D01*
X169229959Y-69478789D01*
X169222387Y-69461640D01*
X169216564Y-69411449D01*
X169215600Y-69406600D01*
X169215600Y-67956600D01*
X169216564Y-67951750D01*
X169222387Y-67901559D01*
X169229959Y-67884408D01*
X169234630Y-67860929D01*
X169251426Y-67835791D01*
X169260208Y-67815903D01*
X169273791Y-67802319D01*
X169288823Y-67779823D01*
X169311319Y-67764791D01*
X169324903Y-67751208D01*
X169344791Y-67742426D01*
X169369929Y-67725630D01*
X169393408Y-67720959D01*
X169410559Y-67713387D01*
X169460751Y-67707564D01*
X169465600Y-67706600D01*
X170665600Y-67706600D01*
X170670450Y-67707564D01*
G37*
G36*
X172812342Y-67743201D02*
G01*
X172966287Y-67806967D01*
X173104834Y-67899541D01*
X173222659Y-68017366D01*
X173315233Y-68155913D01*
X173378999Y-68309858D01*
X173411507Y-68473285D01*
X173415600Y-68556600D01*
X173415600Y-68806600D01*
X173411507Y-68889915D01*
X173378999Y-69053342D01*
X173315233Y-69207287D01*
X173222659Y-69345834D01*
X173104834Y-69463659D01*
X172966287Y-69556233D01*
X172812342Y-69619999D01*
X172648915Y-69652507D01*
X172482285Y-69652507D01*
X172318858Y-69619999D01*
X172164913Y-69556233D01*
X172026366Y-69463659D01*
X171908541Y-69345834D01*
X171815967Y-69207287D01*
X171752201Y-69053342D01*
X171719693Y-68889915D01*
X171715600Y-68806600D01*
X171715600Y-68556600D01*
X171719693Y-68473285D01*
X171752201Y-68309858D01*
X171815967Y-68155913D01*
X171908541Y-68017366D01*
X172026366Y-67899541D01*
X172164913Y-67806967D01*
X172318858Y-67743201D01*
X172482285Y-67710693D01*
X172648915Y-67710693D01*
X172812342Y-67743201D01*
G37*
G36*
X175312342Y-67743201D02*
G01*
X175466287Y-67806967D01*
X175604834Y-67899541D01*
X175722659Y-68017366D01*
X175815233Y-68155913D01*
X175878999Y-68309858D01*
X175911507Y-68473285D01*
X175915600Y-68556600D01*
X175915600Y-68806600D01*
X175911507Y-68889915D01*
X175878999Y-69053342D01*
X175815233Y-69207287D01*
X175722659Y-69345834D01*
X175604834Y-69463659D01*
X175466287Y-69556233D01*
X175312342Y-69619999D01*
X175148915Y-69652507D01*
X174982285Y-69652507D01*
X174818858Y-69619999D01*
X174664913Y-69556233D01*
X174526366Y-69463659D01*
X174408541Y-69345834D01*
X174315967Y-69207287D01*
X174252201Y-69053342D01*
X174219693Y-68889915D01*
X174215600Y-68806600D01*
X174215600Y-68556600D01*
X174219693Y-68473285D01*
X174252201Y-68309858D01*
X174315967Y-68155913D01*
X174408541Y-68017366D01*
X174526366Y-67899541D01*
X174664913Y-67806967D01*
X174818858Y-67743201D01*
X174982285Y-67710693D01*
X175148915Y-67710693D01*
X175312342Y-67743201D01*
G37*
G36*
X177812342Y-67743201D02*
G01*
X177966287Y-67806967D01*
X178104834Y-67899541D01*
X178222659Y-68017366D01*
X178315233Y-68155913D01*
X178378999Y-68309858D01*
X178411507Y-68473285D01*
X178415600Y-68556600D01*
X178415600Y-68806600D01*
X178411507Y-68889915D01*
X178378999Y-69053342D01*
X178315233Y-69207287D01*
X178222659Y-69345834D01*
X178104834Y-69463659D01*
X177966287Y-69556233D01*
X177812342Y-69619999D01*
X177648915Y-69652507D01*
X177482285Y-69652507D01*
X177318858Y-69619999D01*
X177164913Y-69556233D01*
X177026366Y-69463659D01*
X176908541Y-69345834D01*
X176815967Y-69207287D01*
X176752201Y-69053342D01*
X176719693Y-68889915D01*
X176715600Y-68806600D01*
X176715600Y-68556600D01*
X176719693Y-68473285D01*
X176752201Y-68309858D01*
X176815967Y-68155913D01*
X176908541Y-68017366D01*
X177026366Y-67899541D01*
X177164913Y-67806967D01*
X177318858Y-67743201D01*
X177482285Y-67710693D01*
X177648915Y-67710693D01*
X177812342Y-67743201D01*
G37*
G36*
X180312342Y-67743201D02*
G01*
X180466287Y-67806967D01*
X180604834Y-67899541D01*
X180722659Y-68017366D01*
X180815233Y-68155913D01*
X180878999Y-68309858D01*
X180911507Y-68473285D01*
X180915600Y-68556600D01*
X180915600Y-68806600D01*
X180911507Y-68889915D01*
X180878999Y-69053342D01*
X180815233Y-69207287D01*
X180722659Y-69345834D01*
X180604834Y-69463659D01*
X180466287Y-69556233D01*
X180312342Y-69619999D01*
X180148915Y-69652507D01*
X179982285Y-69652507D01*
X179818858Y-69619999D01*
X179664913Y-69556233D01*
X179526366Y-69463659D01*
X179408541Y-69345834D01*
X179315967Y-69207287D01*
X179252201Y-69053342D01*
X179219693Y-68889915D01*
X179215600Y-68806600D01*
X179215600Y-68556600D01*
X179219693Y-68473285D01*
X179252201Y-68309858D01*
X179315967Y-68155913D01*
X179408541Y-68017366D01*
X179526366Y-67899541D01*
X179664913Y-67806967D01*
X179818858Y-67743201D01*
X179982285Y-67710693D01*
X180148915Y-67710693D01*
X180312342Y-67743201D01*
G37*
G36*
X149050828Y-65834048D02*
G01*
X149195717Y-65894063D01*
X149326115Y-65981192D01*
X149437008Y-66092085D01*
X149524137Y-66222483D01*
X149584152Y-66367372D01*
X149614748Y-66521186D01*
X149614748Y-66678014D01*
X149584152Y-66831828D01*
X149524137Y-66976717D01*
X149437008Y-67107115D01*
X149326115Y-67218008D01*
X149195717Y-67305137D01*
X149050828Y-67365152D01*
X148897014Y-67395748D01*
X148740186Y-67395748D01*
X148586372Y-67365152D01*
X148441483Y-67305137D01*
X148311085Y-67218008D01*
X148200192Y-67107115D01*
X148113063Y-66976717D01*
X148053048Y-66831828D01*
X148022452Y-66678014D01*
X148022452Y-66521186D01*
X148053048Y-66367372D01*
X148113063Y-66222483D01*
X148200192Y-66092085D01*
X148311085Y-65981192D01*
X148441483Y-65894063D01*
X148586372Y-65834048D01*
X148740186Y-65803452D01*
X148897014Y-65803452D01*
X149050828Y-65834048D01*
G37*
G36*
X164290828Y-65834048D02*
G01*
X164435717Y-65894063D01*
X164566115Y-65981192D01*
X164677008Y-66092085D01*
X164764137Y-66222483D01*
X164824152Y-66367372D01*
X164854748Y-66521186D01*
X164854748Y-66678014D01*
X164824152Y-66831828D01*
X164764137Y-66976717D01*
X164677008Y-67107115D01*
X164566115Y-67218008D01*
X164435717Y-67305137D01*
X164290828Y-67365152D01*
X164137014Y-67395748D01*
X163980186Y-67395748D01*
X163826372Y-67365152D01*
X163681483Y-67305137D01*
X163551085Y-67218008D01*
X163440192Y-67107115D01*
X163353063Y-66976717D01*
X163293048Y-66831828D01*
X163262452Y-66678014D01*
X163262452Y-66521186D01*
X163293048Y-66367372D01*
X163353063Y-66222483D01*
X163440192Y-66092085D01*
X163551085Y-65981192D01*
X163681483Y-65894063D01*
X163826372Y-65834048D01*
X163980186Y-65803452D01*
X164137014Y-65803452D01*
X164290828Y-65834048D01*
G37*
G36*
X137845799Y-65979742D02*
G01*
X137972578Y-66032255D01*
X138086675Y-66108493D01*
X138183707Y-66205525D01*
X138259945Y-66319622D01*
X138312458Y-66446401D01*
X138339229Y-66580988D01*
X138339229Y-66718212D01*
X138312458Y-66852799D01*
X138259945Y-66979578D01*
X138183707Y-67093675D01*
X138086675Y-67190707D01*
X137972578Y-67266945D01*
X137845799Y-67319458D01*
X137711212Y-67346229D01*
X137573988Y-67346229D01*
X137439401Y-67319458D01*
X137312622Y-67266945D01*
X137198525Y-67190707D01*
X137101493Y-67093675D01*
X137025255Y-66979578D01*
X136972742Y-66852799D01*
X136945971Y-66718212D01*
X136945971Y-66580988D01*
X136972742Y-66446401D01*
X137025255Y-66319622D01*
X137101493Y-66205525D01*
X137198525Y-66108493D01*
X137312622Y-66032255D01*
X137439401Y-65979742D01*
X137573988Y-65952971D01*
X137711212Y-65952971D01*
X137845799Y-65979742D01*
G37*
G36*
X142925799Y-65979742D02*
G01*
X143052578Y-66032255D01*
X143166675Y-66108493D01*
X143263707Y-66205525D01*
X143339945Y-66319622D01*
X143392458Y-66446401D01*
X143419229Y-66580988D01*
X143419229Y-66718212D01*
X143392458Y-66852799D01*
X143339945Y-66979578D01*
X143263707Y-67093675D01*
X143166675Y-67190707D01*
X143052578Y-67266945D01*
X142925799Y-67319458D01*
X142791212Y-67346229D01*
X142653988Y-67346229D01*
X142519401Y-67319458D01*
X142392622Y-67266945D01*
X142278525Y-67190707D01*
X142181493Y-67093675D01*
X142105255Y-66979578D01*
X142052742Y-66852799D01*
X142025971Y-66718212D01*
X142025971Y-66580988D01*
X142052742Y-66446401D01*
X142105255Y-66319622D01*
X142181493Y-66205525D01*
X142278525Y-66108493D01*
X142392622Y-66032255D01*
X142519401Y-65979742D01*
X142653988Y-65952971D01*
X142791212Y-65952971D01*
X142925799Y-65979742D01*
G37*
G36*
X149050828Y-63294048D02*
G01*
X149195717Y-63354063D01*
X149326115Y-63441192D01*
X149437008Y-63552085D01*
X149524137Y-63682483D01*
X149584152Y-63827372D01*
X149614748Y-63981186D01*
X149614748Y-64138014D01*
X149584152Y-64291828D01*
X149524137Y-64436717D01*
X149437008Y-64567115D01*
X149326115Y-64678008D01*
X149195717Y-64765137D01*
X149050828Y-64825152D01*
X148897014Y-64855748D01*
X148740186Y-64855748D01*
X148586372Y-64825152D01*
X148441483Y-64765137D01*
X148311085Y-64678008D01*
X148200192Y-64567115D01*
X148113063Y-64436717D01*
X148053048Y-64291828D01*
X148022452Y-64138014D01*
X148022452Y-63981186D01*
X148053048Y-63827372D01*
X148113063Y-63682483D01*
X148200192Y-63552085D01*
X148311085Y-63441192D01*
X148441483Y-63354063D01*
X148586372Y-63294048D01*
X148740186Y-63263452D01*
X148897014Y-63263452D01*
X149050828Y-63294048D01*
G37*
G36*
X164290828Y-63294048D02*
G01*
X164435717Y-63354063D01*
X164566115Y-63441192D01*
X164677008Y-63552085D01*
X164764137Y-63682483D01*
X164824152Y-63827372D01*
X164854748Y-63981186D01*
X164854748Y-64138014D01*
X164824152Y-64291828D01*
X164764137Y-64436717D01*
X164677008Y-64567115D01*
X164566115Y-64678008D01*
X164435717Y-64765137D01*
X164290828Y-64825152D01*
X164137014Y-64855748D01*
X163980186Y-64855748D01*
X163826372Y-64825152D01*
X163681483Y-64765137D01*
X163551085Y-64678008D01*
X163440192Y-64567115D01*
X163353063Y-64436717D01*
X163293048Y-64291828D01*
X163262452Y-64138014D01*
X163262452Y-63981186D01*
X163293048Y-63827372D01*
X163353063Y-63682483D01*
X163440192Y-63552085D01*
X163551085Y-63441192D01*
X163681483Y-63354063D01*
X163826372Y-63294048D01*
X163980186Y-63263452D01*
X164137014Y-63263452D01*
X164290828Y-63294048D01*
G37*
G36*
X137845799Y-63439742D02*
G01*
X137972578Y-63492255D01*
X138086675Y-63568493D01*
X138183707Y-63665525D01*
X138259945Y-63779622D01*
X138312458Y-63906401D01*
X138339229Y-64040988D01*
X138339229Y-64178212D01*
X138312458Y-64312799D01*
X138259945Y-64439578D01*
X138183707Y-64553675D01*
X138086675Y-64650707D01*
X137972578Y-64726945D01*
X137845799Y-64779458D01*
X137711212Y-64806229D01*
X137573988Y-64806229D01*
X137439401Y-64779458D01*
X137312622Y-64726945D01*
X137198525Y-64650707D01*
X137101493Y-64553675D01*
X137025255Y-64439578D01*
X136972742Y-64312799D01*
X136945971Y-64178212D01*
X136945971Y-64040988D01*
X136972742Y-63906401D01*
X137025255Y-63779622D01*
X137101493Y-63665525D01*
X137198525Y-63568493D01*
X137312622Y-63492255D01*
X137439401Y-63439742D01*
X137573988Y-63412971D01*
X137711212Y-63412971D01*
X137845799Y-63439742D01*
G37*
G36*
X142925799Y-63439742D02*
G01*
X143052578Y-63492255D01*
X143166675Y-63568493D01*
X143263707Y-63665525D01*
X143339945Y-63779622D01*
X143392458Y-63906401D01*
X143419229Y-64040988D01*
X143419229Y-64178212D01*
X143392458Y-64312799D01*
X143339945Y-64439578D01*
X143263707Y-64553675D01*
X143166675Y-64650707D01*
X143052578Y-64726945D01*
X142925799Y-64779458D01*
X142791212Y-64806229D01*
X142653988Y-64806229D01*
X142519401Y-64779458D01*
X142392622Y-64726945D01*
X142278525Y-64650707D01*
X142181493Y-64553675D01*
X142105255Y-64439578D01*
X142052742Y-64312799D01*
X142025971Y-64178212D01*
X142025971Y-64040988D01*
X142052742Y-63906401D01*
X142105255Y-63779622D01*
X142181493Y-63665525D01*
X142278525Y-63568493D01*
X142392622Y-63492255D01*
X142519401Y-63439742D01*
X142653988Y-63412971D01*
X142791212Y-63412971D01*
X142925799Y-63439742D01*
G37*
G36*
X149050828Y-60754048D02*
G01*
X149195717Y-60814063D01*
X149326115Y-60901192D01*
X149437008Y-61012085D01*
X149524137Y-61142483D01*
X149584152Y-61287372D01*
X149614748Y-61441186D01*
X149614748Y-61598014D01*
X149584152Y-61751828D01*
X149524137Y-61896717D01*
X149437008Y-62027115D01*
X149326115Y-62138008D01*
X149195717Y-62225137D01*
X149050828Y-62285152D01*
X148897014Y-62315748D01*
X148740186Y-62315748D01*
X148586372Y-62285152D01*
X148441483Y-62225137D01*
X148311085Y-62138008D01*
X148200192Y-62027115D01*
X148113063Y-61896717D01*
X148053048Y-61751828D01*
X148022452Y-61598014D01*
X148022452Y-61441186D01*
X148053048Y-61287372D01*
X148113063Y-61142483D01*
X148200192Y-61012085D01*
X148311085Y-60901192D01*
X148441483Y-60814063D01*
X148586372Y-60754048D01*
X148740186Y-60723452D01*
X148897014Y-60723452D01*
X149050828Y-60754048D01*
G37*
G36*
X164290828Y-60754048D02*
G01*
X164435717Y-60814063D01*
X164566115Y-60901192D01*
X164677008Y-61012085D01*
X164764137Y-61142483D01*
X164824152Y-61287372D01*
X164854748Y-61441186D01*
X164854748Y-61598014D01*
X164824152Y-61751828D01*
X164764137Y-61896717D01*
X164677008Y-62027115D01*
X164566115Y-62138008D01*
X164435717Y-62225137D01*
X164290828Y-62285152D01*
X164137014Y-62315748D01*
X163980186Y-62315748D01*
X163826372Y-62285152D01*
X163681483Y-62225137D01*
X163551085Y-62138008D01*
X163440192Y-62027115D01*
X163353063Y-61896717D01*
X163293048Y-61751828D01*
X163262452Y-61598014D01*
X163262452Y-61441186D01*
X163293048Y-61287372D01*
X163353063Y-61142483D01*
X163440192Y-61012085D01*
X163551085Y-60901192D01*
X163681483Y-60814063D01*
X163826372Y-60754048D01*
X163980186Y-60723452D01*
X164137014Y-60723452D01*
X164290828Y-60754048D01*
G37*
G36*
X170670450Y-58055564D02*
G01*
X170720640Y-58061387D01*
X170737789Y-58068959D01*
X170761271Y-58073630D01*
X170786410Y-58090427D01*
X170806296Y-58099208D01*
X170819877Y-58112789D01*
X170842377Y-58127823D01*
X170857410Y-58150322D01*
X170870991Y-58163903D01*
X170879770Y-58183786D01*
X170896570Y-58208929D01*
X170901241Y-58232412D01*
X170908812Y-58249559D01*
X170914633Y-58299739D01*
X170915600Y-58304600D01*
X170915600Y-59754600D01*
X170914632Y-59759463D01*
X170908812Y-59809640D01*
X170901241Y-59826785D01*
X170896570Y-59850271D01*
X170879769Y-59875415D01*
X170870991Y-59895296D01*
X170857412Y-59908874D01*
X170842377Y-59931377D01*
X170819874Y-59946412D01*
X170806296Y-59959991D01*
X170786415Y-59968769D01*
X170761271Y-59985570D01*
X170737785Y-59990241D01*
X170720640Y-59997812D01*
X170670461Y-60003632D01*
X170665600Y-60004600D01*
X169465600Y-60004600D01*
X169460738Y-60003632D01*
X169410559Y-59997812D01*
X169393412Y-59990241D01*
X169369929Y-59985570D01*
X169344786Y-59968770D01*
X169324903Y-59959991D01*
X169311322Y-59946410D01*
X169288823Y-59931377D01*
X169273789Y-59908877D01*
X169260208Y-59895296D01*
X169251427Y-59875410D01*
X169234630Y-59850271D01*
X169229959Y-59826789D01*
X169222387Y-59809640D01*
X169216564Y-59759449D01*
X169215600Y-59754600D01*
X169215600Y-58304600D01*
X169216564Y-58299750D01*
X169222387Y-58249559D01*
X169229959Y-58232408D01*
X169234630Y-58208929D01*
X169251426Y-58183791D01*
X169260208Y-58163903D01*
X169273791Y-58150319D01*
X169288823Y-58127823D01*
X169311319Y-58112791D01*
X169324903Y-58099208D01*
X169344791Y-58090426D01*
X169369929Y-58073630D01*
X169393408Y-58068959D01*
X169410559Y-58061387D01*
X169460751Y-58055564D01*
X169465600Y-58054600D01*
X170665600Y-58054600D01*
X170670450Y-58055564D01*
G37*
G36*
X172812342Y-58091201D02*
G01*
X172966287Y-58154967D01*
X173104834Y-58247541D01*
X173222659Y-58365366D01*
X173315233Y-58503913D01*
X173378999Y-58657858D01*
X173411507Y-58821285D01*
X173415600Y-58904600D01*
X173415600Y-59154600D01*
X173411507Y-59237915D01*
X173378999Y-59401342D01*
X173315233Y-59555287D01*
X173222659Y-59693834D01*
X173104834Y-59811659D01*
X172966287Y-59904233D01*
X172812342Y-59967999D01*
X172648915Y-60000507D01*
X172482285Y-60000507D01*
X172318858Y-59967999D01*
X172164913Y-59904233D01*
X172026366Y-59811659D01*
X171908541Y-59693834D01*
X171815967Y-59555287D01*
X171752201Y-59401342D01*
X171719693Y-59237915D01*
X171715600Y-59154600D01*
X171715600Y-58904600D01*
X171719693Y-58821285D01*
X171752201Y-58657858D01*
X171815967Y-58503913D01*
X171908541Y-58365366D01*
X172026366Y-58247541D01*
X172164913Y-58154967D01*
X172318858Y-58091201D01*
X172482285Y-58058693D01*
X172648915Y-58058693D01*
X172812342Y-58091201D01*
G37*
G36*
X175312342Y-58091201D02*
G01*
X175466287Y-58154967D01*
X175604834Y-58247541D01*
X175722659Y-58365366D01*
X175815233Y-58503913D01*
X175878999Y-58657858D01*
X175911507Y-58821285D01*
X175915600Y-58904600D01*
X175915600Y-59154600D01*
X175911507Y-59237915D01*
X175878999Y-59401342D01*
X175815233Y-59555287D01*
X175722659Y-59693834D01*
X175604834Y-59811659D01*
X175466287Y-59904233D01*
X175312342Y-59967999D01*
X175148915Y-60000507D01*
X174982285Y-60000507D01*
X174818858Y-59967999D01*
X174664913Y-59904233D01*
X174526366Y-59811659D01*
X174408541Y-59693834D01*
X174315967Y-59555287D01*
X174252201Y-59401342D01*
X174219693Y-59237915D01*
X174215600Y-59154600D01*
X174215600Y-58904600D01*
X174219693Y-58821285D01*
X174252201Y-58657858D01*
X174315967Y-58503913D01*
X174408541Y-58365366D01*
X174526366Y-58247541D01*
X174664913Y-58154967D01*
X174818858Y-58091201D01*
X174982285Y-58058693D01*
X175148915Y-58058693D01*
X175312342Y-58091201D01*
G37*
G36*
X177812342Y-58091201D02*
G01*
X177966287Y-58154967D01*
X178104834Y-58247541D01*
X178222659Y-58365366D01*
X178315233Y-58503913D01*
X178378999Y-58657858D01*
X178411507Y-58821285D01*
X178415600Y-58904600D01*
X178415600Y-59154600D01*
X178411507Y-59237915D01*
X178378999Y-59401342D01*
X178315233Y-59555287D01*
X178222659Y-59693834D01*
X178104834Y-59811659D01*
X177966287Y-59904233D01*
X177812342Y-59967999D01*
X177648915Y-60000507D01*
X177482285Y-60000507D01*
X177318858Y-59967999D01*
X177164913Y-59904233D01*
X177026366Y-59811659D01*
X176908541Y-59693834D01*
X176815967Y-59555287D01*
X176752201Y-59401342D01*
X176719693Y-59237915D01*
X176715600Y-59154600D01*
X176715600Y-58904600D01*
X176719693Y-58821285D01*
X176752201Y-58657858D01*
X176815967Y-58503913D01*
X176908541Y-58365366D01*
X177026366Y-58247541D01*
X177164913Y-58154967D01*
X177318858Y-58091201D01*
X177482285Y-58058693D01*
X177648915Y-58058693D01*
X177812342Y-58091201D01*
G37*
G36*
X180312342Y-58091201D02*
G01*
X180466287Y-58154967D01*
X180604834Y-58247541D01*
X180722659Y-58365366D01*
X180815233Y-58503913D01*
X180878999Y-58657858D01*
X180911507Y-58821285D01*
X180915600Y-58904600D01*
X180915600Y-59154600D01*
X180911507Y-59237915D01*
X180878999Y-59401342D01*
X180815233Y-59555287D01*
X180722659Y-59693834D01*
X180604834Y-59811659D01*
X180466287Y-59904233D01*
X180312342Y-59967999D01*
X180148915Y-60000507D01*
X179982285Y-60000507D01*
X179818858Y-59967999D01*
X179664913Y-59904233D01*
X179526366Y-59811659D01*
X179408541Y-59693834D01*
X179315967Y-59555287D01*
X179252201Y-59401342D01*
X179219693Y-59237915D01*
X179215600Y-59154600D01*
X179215600Y-58904600D01*
X179219693Y-58821285D01*
X179252201Y-58657858D01*
X179315967Y-58503913D01*
X179408541Y-58365366D01*
X179526366Y-58247541D01*
X179664913Y-58154967D01*
X179818858Y-58091201D01*
X179982285Y-58058693D01*
X180148915Y-58058693D01*
X180312342Y-58091201D01*
G37*
G36*
X142098600Y-59929600D02*
G01*
X140298600Y-59929600D01*
X140298600Y-58129600D01*
X142098600Y-58129600D01*
X142098600Y-59929600D01*
G37*
G36*
X138919856Y-58168354D02*
G01*
X139082857Y-58235871D01*
X139229554Y-58333891D01*
X139354309Y-58458646D01*
X139452329Y-58605343D01*
X139519846Y-58768344D01*
X139554266Y-58941385D01*
X139554266Y-59117815D01*
X139519846Y-59290856D01*
X139452329Y-59453857D01*
X139354309Y-59600554D01*
X139229554Y-59725309D01*
X139082857Y-59823329D01*
X138919856Y-59890846D01*
X138746815Y-59925266D01*
X138570385Y-59925266D01*
X138397344Y-59890846D01*
X138234343Y-59823329D01*
X138087646Y-59725309D01*
X137962891Y-59600554D01*
X137864871Y-59453857D01*
X137797354Y-59290856D01*
X137762934Y-59117815D01*
X137762934Y-58941385D01*
X137797354Y-58768344D01*
X137864871Y-58605343D01*
X137962891Y-58458646D01*
X138087646Y-58333891D01*
X138234343Y-58235871D01*
X138397344Y-58168354D01*
X138570385Y-58133934D01*
X138746815Y-58133934D01*
X138919856Y-58168354D01*
G37*
G36*
X149050828Y-58214048D02*
G01*
X149195717Y-58274063D01*
X149326115Y-58361192D01*
X149437008Y-58472085D01*
X149524137Y-58602483D01*
X149584152Y-58747372D01*
X149614748Y-58901186D01*
X149614748Y-59058014D01*
X149584152Y-59211828D01*
X149524137Y-59356717D01*
X149437008Y-59487115D01*
X149326115Y-59598008D01*
X149195717Y-59685137D01*
X149050828Y-59745152D01*
X148897014Y-59775748D01*
X148740186Y-59775748D01*
X148586372Y-59745152D01*
X148441483Y-59685137D01*
X148311085Y-59598008D01*
X148200192Y-59487115D01*
X148113063Y-59356717D01*
X148053048Y-59211828D01*
X148022452Y-59058014D01*
X148022452Y-58901186D01*
X148053048Y-58747372D01*
X148113063Y-58602483D01*
X148200192Y-58472085D01*
X148311085Y-58361192D01*
X148441483Y-58274063D01*
X148586372Y-58214048D01*
X148740186Y-58183452D01*
X148897014Y-58183452D01*
X149050828Y-58214048D01*
G37*
G36*
X164290828Y-58214048D02*
G01*
X164435717Y-58274063D01*
X164566115Y-58361192D01*
X164677008Y-58472085D01*
X164764137Y-58602483D01*
X164824152Y-58747372D01*
X164854748Y-58901186D01*
X164854748Y-59058014D01*
X164824152Y-59211828D01*
X164764137Y-59356717D01*
X164677008Y-59487115D01*
X164566115Y-59598008D01*
X164435717Y-59685137D01*
X164290828Y-59745152D01*
X164137014Y-59775748D01*
X163980186Y-59775748D01*
X163826372Y-59745152D01*
X163681483Y-59685137D01*
X163551085Y-59598008D01*
X163440192Y-59487115D01*
X163353063Y-59356717D01*
X163293048Y-59211828D01*
X163262452Y-59058014D01*
X163262452Y-58901186D01*
X163293048Y-58747372D01*
X163353063Y-58602483D01*
X163440192Y-58472085D01*
X163551085Y-58361192D01*
X163681483Y-58274063D01*
X163826372Y-58214048D01*
X163980186Y-58183452D01*
X164137014Y-58183452D01*
X164290828Y-58214048D01*
G37*
G36*
X149050828Y-55674048D02*
G01*
X149195717Y-55734063D01*
X149326115Y-55821192D01*
X149437008Y-55932085D01*
X149524137Y-56062483D01*
X149584152Y-56207372D01*
X149614748Y-56361186D01*
X149614748Y-56518014D01*
X149584152Y-56671828D01*
X149524137Y-56816717D01*
X149437008Y-56947115D01*
X149326115Y-57058008D01*
X149195717Y-57145137D01*
X149050828Y-57205152D01*
X148897014Y-57235748D01*
X148740186Y-57235748D01*
X148586372Y-57205152D01*
X148441483Y-57145137D01*
X148311085Y-57058008D01*
X148200192Y-56947115D01*
X148113063Y-56816717D01*
X148053048Y-56671828D01*
X148022452Y-56518014D01*
X148022452Y-56361186D01*
X148053048Y-56207372D01*
X148113063Y-56062483D01*
X148200192Y-55932085D01*
X148311085Y-55821192D01*
X148441483Y-55734063D01*
X148586372Y-55674048D01*
X148740186Y-55643452D01*
X148897014Y-55643452D01*
X149050828Y-55674048D01*
G37*
G36*
X164290828Y-55674048D02*
G01*
X164435717Y-55734063D01*
X164566115Y-55821192D01*
X164677008Y-55932085D01*
X164764137Y-56062483D01*
X164824152Y-56207372D01*
X164854748Y-56361186D01*
X164854748Y-56518014D01*
X164824152Y-56671828D01*
X164764137Y-56816717D01*
X164677008Y-56947115D01*
X164566115Y-57058008D01*
X164435717Y-57145137D01*
X164290828Y-57205152D01*
X164137014Y-57235748D01*
X163980186Y-57235748D01*
X163826372Y-57205152D01*
X163681483Y-57145137D01*
X163551085Y-57058008D01*
X163440192Y-56947115D01*
X163353063Y-56816717D01*
X163293048Y-56671828D01*
X163262452Y-56518014D01*
X163262452Y-56361186D01*
X163293048Y-56207372D01*
X163353063Y-56062483D01*
X163440192Y-55932085D01*
X163551085Y-55821192D01*
X163681483Y-55734063D01*
X163826372Y-55674048D01*
X163980186Y-55643452D01*
X164137014Y-55643452D01*
X164290828Y-55674048D01*
G37*
G36*
X180915600Y-55307600D02*
G01*
X179215600Y-55307600D01*
X179215600Y-53607600D01*
X180915600Y-53607600D01*
X180915600Y-55307600D01*
G37*
G36*
X177772342Y-53644201D02*
G01*
X177926287Y-53707967D01*
X178064834Y-53800541D01*
X178182659Y-53918366D01*
X178275233Y-54056913D01*
X178338999Y-54210858D01*
X178371507Y-54374285D01*
X178371507Y-54540915D01*
X178338999Y-54704342D01*
X178275233Y-54858287D01*
X178182659Y-54996834D01*
X178064834Y-55114659D01*
X177926287Y-55207233D01*
X177772342Y-55270999D01*
X177608915Y-55303507D01*
X177442285Y-55303507D01*
X177278858Y-55270999D01*
X177124913Y-55207233D01*
X176986366Y-55114659D01*
X176868541Y-54996834D01*
X176775967Y-54858287D01*
X176712201Y-54704342D01*
X176679693Y-54540915D01*
X176679693Y-54374285D01*
X176712201Y-54210858D01*
X176775967Y-54056913D01*
X176868541Y-53918366D01*
X176986366Y-53800541D01*
X177124913Y-53707967D01*
X177278858Y-53644201D01*
X177442285Y-53611693D01*
X177608915Y-53611693D01*
X177772342Y-53644201D01*
G37*
G36*
X149050828Y-53134048D02*
G01*
X149195717Y-53194063D01*
X149326115Y-53281192D01*
X149437008Y-53392085D01*
X149524137Y-53522483D01*
X149584152Y-53667372D01*
X149614748Y-53821186D01*
X149614748Y-53978014D01*
X149584152Y-54131828D01*
X149524137Y-54276717D01*
X149437008Y-54407115D01*
X149326115Y-54518008D01*
X149195717Y-54605137D01*
X149050828Y-54665152D01*
X148897014Y-54695748D01*
X148740186Y-54695748D01*
X148586372Y-54665152D01*
X148441483Y-54605137D01*
X148311085Y-54518008D01*
X148200192Y-54407115D01*
X148113063Y-54276717D01*
X148053048Y-54131828D01*
X148022452Y-53978014D01*
X148022452Y-53821186D01*
X148053048Y-53667372D01*
X148113063Y-53522483D01*
X148200192Y-53392085D01*
X148311085Y-53281192D01*
X148441483Y-53194063D01*
X148586372Y-53134048D01*
X148740186Y-53103452D01*
X148897014Y-53103452D01*
X149050828Y-53134048D01*
G37*
G36*
X164290828Y-53134048D02*
G01*
X164435717Y-53194063D01*
X164566115Y-53281192D01*
X164677008Y-53392085D01*
X164764137Y-53522483D01*
X164824152Y-53667372D01*
X164854748Y-53821186D01*
X164854748Y-53978014D01*
X164824152Y-54131828D01*
X164764137Y-54276717D01*
X164677008Y-54407115D01*
X164566115Y-54518008D01*
X164435717Y-54605137D01*
X164290828Y-54665152D01*
X164137014Y-54695748D01*
X163980186Y-54695748D01*
X163826372Y-54665152D01*
X163681483Y-54605137D01*
X163551085Y-54518008D01*
X163440192Y-54407115D01*
X163353063Y-54276717D01*
X163293048Y-54131828D01*
X163262452Y-53978014D01*
X163262452Y-53821186D01*
X163293048Y-53667372D01*
X163353063Y-53522483D01*
X163440192Y-53392085D01*
X163551085Y-53281192D01*
X163681483Y-53194063D01*
X163826372Y-53134048D01*
X163980186Y-53103452D01*
X164137014Y-53103452D01*
X164290828Y-53134048D01*
G37*
G36*
X145465799Y-52014742D02*
G01*
X145592578Y-52067255D01*
X145706675Y-52143493D01*
X145803707Y-52240525D01*
X145879945Y-52354622D01*
X145932458Y-52481401D01*
X145959229Y-52615988D01*
X145959229Y-52753212D01*
X145932458Y-52887799D01*
X145879945Y-53014578D01*
X145803707Y-53128675D01*
X145706675Y-53225707D01*
X145592578Y-53301945D01*
X145465799Y-53354458D01*
X145331212Y-53381229D01*
X145193988Y-53381229D01*
X145059401Y-53354458D01*
X144932622Y-53301945D01*
X144818525Y-53225707D01*
X144721493Y-53128675D01*
X144645255Y-53014578D01*
X144592742Y-52887799D01*
X144565971Y-52753212D01*
X144565971Y-52615988D01*
X144592742Y-52481401D01*
X144645255Y-52354622D01*
X144721493Y-52240525D01*
X144818525Y-52143493D01*
X144932622Y-52067255D01*
X145059401Y-52014742D01*
X145193988Y-51987971D01*
X145331212Y-51987971D01*
X145465799Y-52014742D01*
G37*
G36*
X149050828Y-50594048D02*
G01*
X149195717Y-50654063D01*
X149326115Y-50741192D01*
X149437008Y-50852085D01*
X149524137Y-50982483D01*
X149584152Y-51127372D01*
X149614748Y-51281186D01*
X149614748Y-51438014D01*
X149584152Y-51591828D01*
X149524137Y-51736717D01*
X149437008Y-51867115D01*
X149326115Y-51978008D01*
X149195717Y-52065137D01*
X149050828Y-52125152D01*
X148897014Y-52155748D01*
X148740186Y-52155748D01*
X148586372Y-52125152D01*
X148441483Y-52065137D01*
X148311085Y-51978008D01*
X148200192Y-51867115D01*
X148113063Y-51736717D01*
X148053048Y-51591828D01*
X148022452Y-51438014D01*
X148022452Y-51281186D01*
X148053048Y-51127372D01*
X148113063Y-50982483D01*
X148200192Y-50852085D01*
X148311085Y-50741192D01*
X148441483Y-50654063D01*
X148586372Y-50594048D01*
X148740186Y-50563452D01*
X148897014Y-50563452D01*
X149050828Y-50594048D01*
G37*
G36*
X164290828Y-50594048D02*
G01*
X164435717Y-50654063D01*
X164566115Y-50741192D01*
X164677008Y-50852085D01*
X164764137Y-50982483D01*
X164824152Y-51127372D01*
X164854748Y-51281186D01*
X164854748Y-51438014D01*
X164824152Y-51591828D01*
X164764137Y-51736717D01*
X164677008Y-51867115D01*
X164566115Y-51978008D01*
X164435717Y-52065137D01*
X164290828Y-52125152D01*
X164137014Y-52155748D01*
X163980186Y-52155748D01*
X163826372Y-52125152D01*
X163681483Y-52065137D01*
X163551085Y-51978008D01*
X163440192Y-51867115D01*
X163353063Y-51736717D01*
X163293048Y-51591828D01*
X163262452Y-51438014D01*
X163262452Y-51281186D01*
X163293048Y-51127372D01*
X163353063Y-50982483D01*
X163440192Y-50852085D01*
X163551085Y-50741192D01*
X163681483Y-50654063D01*
X163826372Y-50594048D01*
X163980186Y-50563452D01*
X164137014Y-50563452D01*
X164290828Y-50594048D01*
G37*
G36*
X140574600Y-51044600D02*
G01*
X138774600Y-51044600D01*
X138774600Y-49244600D01*
X140574600Y-49244600D01*
X140574600Y-51044600D01*
G37*
G36*
X180860600Y-50851980D02*
G01*
X179260600Y-50851980D01*
X179260600Y-49251980D01*
X180860600Y-49251980D01*
X180860600Y-50851980D01*
G37*
G36*
X168920885Y-48824660D02*
G01*
X169101997Y-48899679D01*
X169264993Y-49008590D01*
X169403610Y-49147207D01*
X169512521Y-49310203D01*
X169587540Y-49491315D01*
X169625785Y-49683583D01*
X169625785Y-49879617D01*
X169587540Y-50071885D01*
X169512521Y-50252997D01*
X169403610Y-50415993D01*
X169264993Y-50554610D01*
X169101997Y-50663521D01*
X168920885Y-50738540D01*
X168728617Y-50776785D01*
X168532583Y-50776785D01*
X168340315Y-50738540D01*
X168159203Y-50663521D01*
X167996207Y-50554610D01*
X167857590Y-50415993D01*
X167748679Y-50252997D01*
X167673660Y-50071885D01*
X167635415Y-49879617D01*
X167635415Y-49683583D01*
X167673660Y-49491315D01*
X167748679Y-49310203D01*
X167857590Y-49147207D01*
X167996207Y-49008590D01*
X168159203Y-48899679D01*
X168340315Y-48824660D01*
X168532583Y-48786415D01*
X168728617Y-48786415D01*
X168920885Y-48824660D01*
G37*
G36*
X173420885Y-48824660D02*
G01*
X173601997Y-48899679D01*
X173764993Y-49008590D01*
X173903610Y-49147207D01*
X174012521Y-49310203D01*
X174087540Y-49491315D01*
X174125785Y-49683583D01*
X174125785Y-49879617D01*
X174087540Y-50071885D01*
X174012521Y-50252997D01*
X173903610Y-50415993D01*
X173764993Y-50554610D01*
X173601997Y-50663521D01*
X173420885Y-50738540D01*
X173228617Y-50776785D01*
X173032583Y-50776785D01*
X172840315Y-50738540D01*
X172659203Y-50663521D01*
X172496207Y-50554610D01*
X172357590Y-50415993D01*
X172248679Y-50252997D01*
X172173660Y-50071885D01*
X172135415Y-49879617D01*
X172135415Y-49683583D01*
X172173660Y-49491315D01*
X172248679Y-49310203D01*
X172357590Y-49147207D01*
X172496207Y-49008590D01*
X172659203Y-48899679D01*
X172840315Y-48824660D01*
X173032583Y-48786415D01*
X173228617Y-48786415D01*
X173420885Y-48824660D01*
G37*
G36*
X149050828Y-48054048D02*
G01*
X149195717Y-48114063D01*
X149326115Y-48201192D01*
X149437008Y-48312085D01*
X149524137Y-48442483D01*
X149584152Y-48587372D01*
X149614748Y-48741186D01*
X149614748Y-48898014D01*
X149584152Y-49051828D01*
X149524137Y-49196717D01*
X149437008Y-49327115D01*
X149326115Y-49438008D01*
X149195717Y-49525137D01*
X149050828Y-49585152D01*
X148897014Y-49615748D01*
X148740186Y-49615748D01*
X148586372Y-49585152D01*
X148441483Y-49525137D01*
X148311085Y-49438008D01*
X148200192Y-49327115D01*
X148113063Y-49196717D01*
X148053048Y-49051828D01*
X148022452Y-48898014D01*
X148022452Y-48741186D01*
X148053048Y-48587372D01*
X148113063Y-48442483D01*
X148200192Y-48312085D01*
X148311085Y-48201192D01*
X148441483Y-48114063D01*
X148586372Y-48054048D01*
X148740186Y-48023452D01*
X148897014Y-48023452D01*
X149050828Y-48054048D01*
G37*
G36*
X164290828Y-48054048D02*
G01*
X164435717Y-48114063D01*
X164566115Y-48201192D01*
X164677008Y-48312085D01*
X164764137Y-48442483D01*
X164824152Y-48587372D01*
X164854748Y-48741186D01*
X164854748Y-48898014D01*
X164824152Y-49051828D01*
X164764137Y-49196717D01*
X164677008Y-49327115D01*
X164566115Y-49438008D01*
X164435717Y-49525137D01*
X164290828Y-49585152D01*
X164137014Y-49615748D01*
X163980186Y-49615748D01*
X163826372Y-49585152D01*
X163681483Y-49525137D01*
X163551085Y-49438008D01*
X163440192Y-49327115D01*
X163353063Y-49196717D01*
X163293048Y-49051828D01*
X163262452Y-48898014D01*
X163262452Y-48741186D01*
X163293048Y-48587372D01*
X163353063Y-48442483D01*
X163440192Y-48312085D01*
X163551085Y-48201192D01*
X163681483Y-48114063D01*
X163826372Y-48054048D01*
X163980186Y-48023452D01*
X164137014Y-48023452D01*
X164290828Y-48054048D01*
G37*
G36*
X139935856Y-46743354D02*
G01*
X140098857Y-46810871D01*
X140245554Y-46908891D01*
X140370309Y-47033646D01*
X140468329Y-47180343D01*
X140535846Y-47343344D01*
X140570266Y-47516385D01*
X140570266Y-47692815D01*
X140535846Y-47865856D01*
X140468329Y-48028857D01*
X140370309Y-48175554D01*
X140245554Y-48300309D01*
X140098857Y-48398329D01*
X139935856Y-48465846D01*
X139762815Y-48500266D01*
X139586385Y-48500266D01*
X139413344Y-48465846D01*
X139250343Y-48398329D01*
X139103646Y-48300309D01*
X138978891Y-48175554D01*
X138880871Y-48028857D01*
X138813354Y-47865856D01*
X138778934Y-47692815D01*
X138778934Y-47516385D01*
X138813354Y-47343344D01*
X138880871Y-47180343D01*
X138978891Y-47033646D01*
X139103646Y-46908891D01*
X139250343Y-46810871D01*
X139413344Y-46743354D01*
X139586385Y-46708934D01*
X139762815Y-46708934D01*
X139935856Y-46743354D01*
G37*
G36*
X180292828Y-46786428D02*
G01*
X180437717Y-46846443D01*
X180568115Y-46933572D01*
X180679008Y-47044465D01*
X180766137Y-47174863D01*
X180826152Y-47319752D01*
X180856748Y-47473566D01*
X180856748Y-47630394D01*
X180826152Y-47784208D01*
X180766137Y-47929097D01*
X180679008Y-48059495D01*
X180568115Y-48170388D01*
X180437717Y-48257517D01*
X180292828Y-48317532D01*
X180139014Y-48348128D01*
X179982186Y-48348128D01*
X179828372Y-48317532D01*
X179683483Y-48257517D01*
X179553085Y-48170388D01*
X179442192Y-48059495D01*
X179355063Y-47929097D01*
X179295048Y-47784208D01*
X179264452Y-47630394D01*
X179264452Y-47473566D01*
X179295048Y-47319752D01*
X179355063Y-47174863D01*
X179442192Y-47044465D01*
X179553085Y-46933572D01*
X179683483Y-46846443D01*
X179828372Y-46786428D01*
X179982186Y-46755832D01*
X180139014Y-46755832D01*
X180292828Y-46786428D01*
G37*
G36*
X145465799Y-46934742D02*
G01*
X145592578Y-46987255D01*
X145706675Y-47063493D01*
X145803707Y-47160525D01*
X145879945Y-47274622D01*
X145932458Y-47401401D01*
X145959229Y-47535988D01*
X145959229Y-47673212D01*
X145932458Y-47807799D01*
X145879945Y-47934578D01*
X145803707Y-48048675D01*
X145706675Y-48145707D01*
X145592578Y-48221945D01*
X145465799Y-48274458D01*
X145331212Y-48301229D01*
X145193988Y-48301229D01*
X145059401Y-48274458D01*
X144932622Y-48221945D01*
X144818525Y-48145707D01*
X144721493Y-48048675D01*
X144645255Y-47934578D01*
X144592742Y-47807799D01*
X144565971Y-47673212D01*
X144565971Y-47535988D01*
X144592742Y-47401401D01*
X144645255Y-47274622D01*
X144721493Y-47160525D01*
X144818525Y-47063493D01*
X144932622Y-46987255D01*
X145059401Y-46934742D01*
X145193988Y-46907971D01*
X145331212Y-46907971D01*
X145465799Y-46934742D01*
G37*
G36*
X149050828Y-45514048D02*
G01*
X149195717Y-45574063D01*
X149326115Y-45661192D01*
X149437008Y-45772085D01*
X149524137Y-45902483D01*
X149584152Y-46047372D01*
X149614748Y-46201186D01*
X149614748Y-46358014D01*
X149584152Y-46511828D01*
X149524137Y-46656717D01*
X149437008Y-46787115D01*
X149326115Y-46898008D01*
X149195717Y-46985137D01*
X149050828Y-47045152D01*
X148897014Y-47075748D01*
X148740186Y-47075748D01*
X148586372Y-47045152D01*
X148441483Y-46985137D01*
X148311085Y-46898008D01*
X148200192Y-46787115D01*
X148113063Y-46656717D01*
X148053048Y-46511828D01*
X148022452Y-46358014D01*
X148022452Y-46201186D01*
X148053048Y-46047372D01*
X148113063Y-45902483D01*
X148200192Y-45772085D01*
X148311085Y-45661192D01*
X148441483Y-45574063D01*
X148586372Y-45514048D01*
X148740186Y-45483452D01*
X148897014Y-45483452D01*
X149050828Y-45514048D01*
G37*
G36*
X164290828Y-45514048D02*
G01*
X164435717Y-45574063D01*
X164566115Y-45661192D01*
X164677008Y-45772085D01*
X164764137Y-45902483D01*
X164824152Y-46047372D01*
X164854748Y-46201186D01*
X164854748Y-46358014D01*
X164824152Y-46511828D01*
X164764137Y-46656717D01*
X164677008Y-46787115D01*
X164566115Y-46898008D01*
X164435717Y-46985137D01*
X164290828Y-47045152D01*
X164137014Y-47075748D01*
X163980186Y-47075748D01*
X163826372Y-47045152D01*
X163681483Y-46985137D01*
X163551085Y-46898008D01*
X163440192Y-46787115D01*
X163353063Y-46656717D01*
X163293048Y-46511828D01*
X163262452Y-46358014D01*
X163262452Y-46201186D01*
X163293048Y-46047372D01*
X163353063Y-45902483D01*
X163440192Y-45772085D01*
X163551085Y-45661192D01*
X163681483Y-45574063D01*
X163826372Y-45514048D01*
X163980186Y-45483452D01*
X164137014Y-45483452D01*
X164290828Y-45514048D01*
G37*
G36*
X149618600Y-44539600D02*
G01*
X148018600Y-44539600D01*
X148018600Y-42939600D01*
X149618600Y-42939600D01*
X149618600Y-44539600D01*
G37*
G36*
X164290828Y-42974048D02*
G01*
X164435717Y-43034063D01*
X164566115Y-43121192D01*
X164677008Y-43232085D01*
X164764137Y-43362483D01*
X164824152Y-43507372D01*
X164854748Y-43661186D01*
X164854748Y-43818014D01*
X164824152Y-43971828D01*
X164764137Y-44116717D01*
X164677008Y-44247115D01*
X164566115Y-44358008D01*
X164435717Y-44445137D01*
X164290828Y-44505152D01*
X164137014Y-44535748D01*
X163980186Y-44535748D01*
X163826372Y-44505152D01*
X163681483Y-44445137D01*
X163551085Y-44358008D01*
X163440192Y-44247115D01*
X163353063Y-44116717D01*
X163293048Y-43971828D01*
X163262452Y-43818014D01*
X163262452Y-43661186D01*
X163293048Y-43507372D01*
X163353063Y-43362483D01*
X163440192Y-43232085D01*
X163551085Y-43121192D01*
X163681483Y-43034063D01*
X163826372Y-42974048D01*
X163980186Y-42943452D01*
X164137014Y-42943452D01*
X164290828Y-42974048D01*
G37*
G36*
X168920885Y-42324660D02*
G01*
X169101997Y-42399679D01*
X169264993Y-42508590D01*
X169403610Y-42647207D01*
X169512521Y-42810203D01*
X169587540Y-42991315D01*
X169625785Y-43183583D01*
X169625785Y-43379617D01*
X169587540Y-43571885D01*
X169512521Y-43752997D01*
X169403610Y-43915993D01*
X169264993Y-44054610D01*
X169101997Y-44163521D01*
X168920885Y-44238540D01*
X168728617Y-44276785D01*
X168532583Y-44276785D01*
X168340315Y-44238540D01*
X168159203Y-44163521D01*
X167996207Y-44054610D01*
X167857590Y-43915993D01*
X167748679Y-43752997D01*
X167673660Y-43571885D01*
X167635415Y-43379617D01*
X167635415Y-43183583D01*
X167673660Y-42991315D01*
X167748679Y-42810203D01*
X167857590Y-42647207D01*
X167996207Y-42508590D01*
X168159203Y-42399679D01*
X168340315Y-42324660D01*
X168532583Y-42286415D01*
X168728617Y-42286415D01*
X168920885Y-42324660D01*
G37*
G36*
X173420885Y-42324660D02*
G01*
X173601997Y-42399679D01*
X173764993Y-42508590D01*
X173903610Y-42647207D01*
X174012521Y-42810203D01*
X174087540Y-42991315D01*
X174125785Y-43183583D01*
X174125785Y-43379617D01*
X174087540Y-43571885D01*
X174012521Y-43752997D01*
X173903610Y-43915993D01*
X173764993Y-44054610D01*
X173601997Y-44163521D01*
X173420885Y-44238540D01*
X173228617Y-44276785D01*
X173032583Y-44276785D01*
X172840315Y-44238540D01*
X172659203Y-44163521D01*
X172496207Y-44054610D01*
X172357590Y-43915993D01*
X172248679Y-43752997D01*
X172173660Y-43571885D01*
X172135415Y-43379617D01*
X172135415Y-43183583D01*
X172173660Y-42991315D01*
X172248679Y-42810203D01*
X172357590Y-42647207D01*
X172496207Y-42508590D01*
X172659203Y-42399679D01*
X172840315Y-42324660D01*
X173032583Y-42286415D01*
X173228617Y-42286415D01*
X173420885Y-42324660D01*
G37*
G36*
X180038828Y-42008048D02*
G01*
X180183717Y-42068063D01*
X180314115Y-42155192D01*
X180425008Y-42266085D01*
X180512137Y-42396483D01*
X180572152Y-42541372D01*
X180602748Y-42695186D01*
X180602748Y-42852014D01*
X180572152Y-43005828D01*
X180512137Y-43150717D01*
X180425008Y-43281115D01*
X180314115Y-43392008D01*
X180183717Y-43479137D01*
X180038828Y-43539152D01*
X179885014Y-43569748D01*
X179728186Y-43569748D01*
X179574372Y-43539152D01*
X179429483Y-43479137D01*
X179299085Y-43392008D01*
X179188192Y-43281115D01*
X179101063Y-43150717D01*
X179041048Y-43005828D01*
X179010452Y-42852014D01*
X179010452Y-42695186D01*
X179041048Y-42541372D01*
X179101063Y-42396483D01*
X179188192Y-42266085D01*
X179299085Y-42155192D01*
X179429483Y-42068063D01*
X179574372Y-42008048D01*
X179728186Y-41977452D01*
X179885014Y-41977452D01*
X180038828Y-42008048D01*
G37*
G36*
X139882915Y-40831693D02*
G01*
X140046342Y-40864201D01*
X140200287Y-40927967D01*
X140338834Y-41020541D01*
X140456659Y-41138366D01*
X140549233Y-41276913D01*
X140612999Y-41430858D01*
X140645507Y-41594285D01*
X140645507Y-41760915D01*
X140612999Y-41924342D01*
X140549233Y-42078287D01*
X140456659Y-42216834D01*
X140338834Y-42334659D01*
X140200287Y-42427233D01*
X140046342Y-42490999D01*
X139882915Y-42523507D01*
X139799600Y-42527600D01*
X139798122Y-42527600D01*
X139551078Y-42527600D01*
X139549600Y-42527600D01*
X139466285Y-42523507D01*
X139302858Y-42490999D01*
X139148913Y-42427233D01*
X139010366Y-42334659D01*
X138892541Y-42216834D01*
X138799967Y-42078287D01*
X138736201Y-41924342D01*
X138703693Y-41760915D01*
X138703693Y-41594285D01*
X138736201Y-41430858D01*
X138799967Y-41276913D01*
X138892541Y-41138366D01*
X139010366Y-41020541D01*
X139148913Y-40927967D01*
X139302858Y-40864201D01*
X139466285Y-40831693D01*
X139549600Y-40827600D01*
X139799600Y-40827600D01*
X139882915Y-40831693D01*
G37*
G36*
X180606600Y-41073600D02*
G01*
X179006600Y-41073600D01*
X179006600Y-39473600D01*
X180606600Y-39473600D01*
X180606600Y-41073600D01*
G37*
G36*
X139882915Y-38331693D02*
G01*
X140046342Y-38364201D01*
X140200287Y-38427967D01*
X140338834Y-38520541D01*
X140456659Y-38638366D01*
X140549233Y-38776913D01*
X140612999Y-38930858D01*
X140645507Y-39094285D01*
X140645507Y-39260915D01*
X140612999Y-39424342D01*
X140549233Y-39578287D01*
X140456659Y-39716834D01*
X140338834Y-39834659D01*
X140200287Y-39927233D01*
X140046342Y-39990999D01*
X139882915Y-40023507D01*
X139799600Y-40027600D01*
X139798122Y-40027600D01*
X139551078Y-40027600D01*
X139549600Y-40027600D01*
X139466285Y-40023507D01*
X139302858Y-39990999D01*
X139148913Y-39927233D01*
X139010366Y-39834659D01*
X138892541Y-39716834D01*
X138799967Y-39578287D01*
X138736201Y-39424342D01*
X138703693Y-39260915D01*
X138703693Y-39094285D01*
X138736201Y-38930858D01*
X138799967Y-38776913D01*
X138892541Y-38638366D01*
X139010366Y-38520541D01*
X139148913Y-38427967D01*
X139302858Y-38364201D01*
X139466285Y-38331693D01*
X139549600Y-38327600D01*
X139799600Y-38327600D01*
X139882915Y-38331693D01*
G37*
G36*
X168902828Y-38452048D02*
G01*
X169047717Y-38512063D01*
X169178115Y-38599192D01*
X169289008Y-38710085D01*
X169376137Y-38840483D01*
X169436152Y-38985372D01*
X169466748Y-39139186D01*
X169466748Y-39296014D01*
X169436152Y-39449828D01*
X169376137Y-39594717D01*
X169289008Y-39725115D01*
X169178115Y-39836008D01*
X169047717Y-39923137D01*
X168902828Y-39983152D01*
X168749014Y-40013748D01*
X168592186Y-40013748D01*
X168438372Y-39983152D01*
X168293483Y-39923137D01*
X168163085Y-39836008D01*
X168052192Y-39725115D01*
X167965063Y-39594717D01*
X167905048Y-39449828D01*
X167874452Y-39296014D01*
X167874452Y-39139186D01*
X167905048Y-38985372D01*
X167965063Y-38840483D01*
X168052192Y-38710085D01*
X168163085Y-38599192D01*
X168293483Y-38512063D01*
X168438372Y-38452048D01*
X168592186Y-38421452D01*
X168749014Y-38421452D01*
X168902828Y-38452048D01*
G37*
G36*
X173902828Y-38452048D02*
G01*
X174047717Y-38512063D01*
X174178115Y-38599192D01*
X174289008Y-38710085D01*
X174376137Y-38840483D01*
X174436152Y-38985372D01*
X174466748Y-39139186D01*
X174466748Y-39296014D01*
X174436152Y-39449828D01*
X174376137Y-39594717D01*
X174289008Y-39725115D01*
X174178115Y-39836008D01*
X174047717Y-39923137D01*
X173902828Y-39983152D01*
X173749014Y-40013748D01*
X173592186Y-40013748D01*
X173438372Y-39983152D01*
X173293483Y-39923137D01*
X173163085Y-39836008D01*
X173052192Y-39725115D01*
X172965063Y-39594717D01*
X172905048Y-39449828D01*
X172874452Y-39296014D01*
X172874452Y-39139186D01*
X172905048Y-38985372D01*
X172965063Y-38840483D01*
X173052192Y-38710085D01*
X173163085Y-38599192D01*
X173293483Y-38512063D01*
X173438372Y-38452048D01*
X173592186Y-38421452D01*
X173749014Y-38421452D01*
X173902828Y-38452048D01*
G37*
G36*
X140404450Y-35828564D02*
G01*
X140454640Y-35834387D01*
X140471789Y-35841959D01*
X140495271Y-35846630D01*
X140520410Y-35863427D01*
X140540296Y-35872208D01*
X140553877Y-35885789D01*
X140576377Y-35900823D01*
X140591410Y-35923322D01*
X140604991Y-35936903D01*
X140613770Y-35956786D01*
X140630570Y-35981929D01*
X140635241Y-36005412D01*
X140642812Y-36022559D01*
X140648633Y-36072739D01*
X140649600Y-36077600D01*
X140649600Y-37277600D01*
X140648632Y-37282463D01*
X140642812Y-37332640D01*
X140635241Y-37349785D01*
X140630570Y-37373271D01*
X140613769Y-37398415D01*
X140604991Y-37418296D01*
X140591412Y-37431874D01*
X140576377Y-37454377D01*
X140553874Y-37469412D01*
X140540296Y-37482991D01*
X140520415Y-37491769D01*
X140495271Y-37508570D01*
X140471785Y-37513241D01*
X140454640Y-37520812D01*
X140404461Y-37526632D01*
X140399600Y-37527600D01*
X138949600Y-37527600D01*
X138944738Y-37526632D01*
X138894559Y-37520812D01*
X138877412Y-37513241D01*
X138853929Y-37508570D01*
X138828786Y-37491770D01*
X138808903Y-37482991D01*
X138795322Y-37469410D01*
X138772823Y-37454377D01*
X138757789Y-37431877D01*
X138744208Y-37418296D01*
X138735427Y-37398410D01*
X138718630Y-37373271D01*
X138713959Y-37349789D01*
X138706387Y-37332640D01*
X138700564Y-37282449D01*
X138699600Y-37277600D01*
X138699600Y-36077600D01*
X138700564Y-36072750D01*
X138706387Y-36022559D01*
X138713959Y-36005408D01*
X138718630Y-35981929D01*
X138735426Y-35956791D01*
X138744208Y-35936903D01*
X138757791Y-35923319D01*
X138772823Y-35900823D01*
X138795319Y-35885791D01*
X138808903Y-35872208D01*
X138828791Y-35863426D01*
X138853929Y-35846630D01*
X138877408Y-35841959D01*
X138894559Y-35834387D01*
X138944751Y-35828564D01*
X138949600Y-35827600D01*
X140399600Y-35827600D01*
X140404450Y-35828564D01*
G37*
G36*
X179889600Y-36257600D02*
G01*
X178189600Y-36257600D01*
X178189600Y-34557600D01*
X179889600Y-34557600D01*
X179889600Y-36257600D01*
G37*
G36*
X181826342Y-34594201D02*
G01*
X181980287Y-34657967D01*
X182118834Y-34750541D01*
X182236659Y-34868366D01*
X182329233Y-35006913D01*
X182392999Y-35160858D01*
X182425507Y-35324285D01*
X182425507Y-35490915D01*
X182392999Y-35654342D01*
X182329233Y-35808287D01*
X182236659Y-35946834D01*
X182118834Y-36064659D01*
X181980287Y-36157233D01*
X181826342Y-36220999D01*
X181662915Y-36253507D01*
X181496285Y-36253507D01*
X181332858Y-36220999D01*
X181178913Y-36157233D01*
X181040366Y-36064659D01*
X180922541Y-35946834D01*
X180829967Y-35808287D01*
X180766201Y-35654342D01*
X180733693Y-35490915D01*
X180733693Y-35324285D01*
X180766201Y-35160858D01*
X180829967Y-35006913D01*
X180922541Y-34868366D01*
X181040366Y-34750541D01*
X181178913Y-34657967D01*
X181332858Y-34594201D01*
X181496285Y-34561693D01*
X181662915Y-34561693D01*
X181826342Y-34594201D01*
G37*
G36*
X162991800Y-35864800D02*
G01*
X161061400Y-35864800D01*
X161061400Y-33934400D01*
X162991800Y-33934400D01*
X162991800Y-35864800D01*
G37*
G36*
X162991800Y-33324800D02*
G01*
X161061400Y-33324800D01*
X161061400Y-31394400D01*
X162991800Y-31394400D01*
X162991800Y-33324800D01*
G37*
G36*
X173352600Y-32589600D02*
G01*
X170352600Y-32589600D01*
X170352600Y-29589600D01*
X173352600Y-29589600D01*
X173352600Y-32589600D01*
G37*
G36*
X167202768Y-29631045D02*
G01*
X167426625Y-29703781D01*
X167636348Y-29810640D01*
X167826772Y-29948991D01*
X167993209Y-30115428D01*
X168131560Y-30305852D01*
X168238419Y-30515575D01*
X168311155Y-30739432D01*
X168347976Y-30971911D01*
X168347976Y-31207289D01*
X168311155Y-31439768D01*
X168238419Y-31663625D01*
X168131560Y-31873348D01*
X167993209Y-32063772D01*
X167826772Y-32230209D01*
X167636348Y-32368560D01*
X167426625Y-32475419D01*
X167202768Y-32548155D01*
X166970289Y-32584976D01*
X166734911Y-32584976D01*
X166502432Y-32548155D01*
X166278575Y-32475419D01*
X166068852Y-32368560D01*
X165878428Y-32230209D01*
X165711991Y-32063772D01*
X165573640Y-31873348D01*
X165466781Y-31663625D01*
X165394045Y-31439768D01*
X165357224Y-31207289D01*
X165357224Y-30971911D01*
X165394045Y-30739432D01*
X165466781Y-30515575D01*
X165573640Y-30305852D01*
X165711991Y-30115428D01*
X165878428Y-29948991D01*
X166068852Y-29810640D01*
X166278575Y-29703781D01*
X166502432Y-29631045D01*
X166734911Y-29594224D01*
X166970289Y-29594224D01*
X167202768Y-29631045D01*
G37*
G36*
X162991800Y-30784800D02*
G01*
X161061400Y-30784800D01*
X161061400Y-28854400D01*
X162991800Y-28854400D01*
X162991800Y-30784800D01*
G37*
G36*
X139540113Y-27501808D02*
G01*
X139778893Y-27579393D01*
X140002598Y-27693376D01*
X140205717Y-27840950D01*
X140383250Y-28018483D01*
X140530824Y-28221602D01*
X140644807Y-28445307D01*
X140722392Y-28684087D01*
X140761668Y-28932065D01*
X140761668Y-29183135D01*
X140722392Y-29431113D01*
X140644807Y-29669893D01*
X140530824Y-29893598D01*
X140383250Y-30096717D01*
X140205717Y-30274250D01*
X140002598Y-30421824D01*
X139778893Y-30535807D01*
X139540113Y-30613392D01*
X139292135Y-30652668D01*
X139041065Y-30652668D01*
X138793087Y-30613392D01*
X138554307Y-30535807D01*
X138330602Y-30421824D01*
X138127483Y-30274250D01*
X137949950Y-30096717D01*
X137802376Y-29893598D01*
X137688393Y-29669893D01*
X137610808Y-29431113D01*
X137571532Y-29183135D01*
X137571532Y-28932065D01*
X137610808Y-28684087D01*
X137688393Y-28445307D01*
X137802376Y-28221602D01*
X137949950Y-28018483D01*
X138127483Y-27840950D01*
X138330602Y-27693376D01*
X138554307Y-27579393D01*
X138793087Y-27501808D01*
X139041065Y-27462532D01*
X139292135Y-27462532D01*
X139540113Y-27501808D01*
G37*
G36*
X181704113Y-27501808D02*
G01*
X181942893Y-27579393D01*
X182166598Y-27693376D01*
X182369717Y-27840950D01*
X182547250Y-28018483D01*
X182694824Y-28221602D01*
X182808807Y-28445307D01*
X182886392Y-28684087D01*
X182925668Y-28932065D01*
X182925668Y-29183135D01*
X182886392Y-29431113D01*
X182808807Y-29669893D01*
X182694824Y-29893598D01*
X182547250Y-30096717D01*
X182369717Y-30274250D01*
X182166598Y-30421824D01*
X181942893Y-30535807D01*
X181704113Y-30613392D01*
X181456135Y-30652668D01*
X181205065Y-30652668D01*
X180957087Y-30613392D01*
X180718307Y-30535807D01*
X180494602Y-30421824D01*
X180291483Y-30274250D01*
X180113950Y-30096717D01*
X179966376Y-29893598D01*
X179852393Y-29669893D01*
X179774808Y-29431113D01*
X179735532Y-29183135D01*
X179735532Y-28932065D01*
X179774808Y-28684087D01*
X179852393Y-28445307D01*
X179966376Y-28221602D01*
X180113950Y-28018483D01*
X180291483Y-27840950D01*
X180494602Y-27693376D01*
X180718307Y-27579393D01*
X180957087Y-27501808D01*
X181205065Y-27462532D01*
X181456135Y-27462532D01*
X181704113Y-27501808D01*
G37*
G36*
X162991800Y-28244800D02*
G01*
X161061400Y-28244800D01*
X161061400Y-26314400D01*
X162991800Y-26314400D01*
X162991800Y-28244800D01*
G37*
M02*
